<svg xmlns="http://www.w3.org/2000/svg" viewBox="0 0 500 312"><defs><style>.cls-1{fill:#323232;}.cls-2,.cls-3,.cls-4,.cls-5,.cls-6{fill:none;stroke-linecap:round;stroke-linejoin:round;}.cls-2,.cls-4,.cls-5,.cls-6{stroke:#fff;}.cls-3{stroke:#85cddb;}.cls-4{stroke-dasharray:3.73 3.73;}.cls-5{stroke-dasharray:3.75 3.75;}.cls-6{stroke-dasharray:3.88 3.88;}.cls-7{fill:#fff;}.cls-8{fill:#85cddb;}</style></defs><g id="Background_323232" data-name="Background #323232"><rect class="cls-1" width="500" height="312"/></g><g id="Line_Black" data-name="Line Black"><path class="cls-2" d="M137.92,190.13a46.44,46.44,0,0,1,14.71-12.77c26.58-15.44,69.82-15.44,96.58,0a47.29,47.29,0,0,1,14.64,12.49"/><path class="cls-2" d="M178.23,242.57a85.29,85.29,0,0,1-25.29-9.27c-7.38-4.26-12.73-9.25-16.06-14.57"/><path class="cls-2" d="M225.57,242.31a83.52,83.52,0,0,0,24-9A46.7,46.7,0,0,0,264,220.91a12.83,12.83,0,0,0,1.08-1.58"/><path class="cls-3" d="M344.4,210.06l-36.8,21.4a7,7,0,0,1-7,0l-10.35-6"/><path class="cls-3" d="M353.21,215.1,245.73,277.54a7,7,0,0,1-7,0l-27.49-16"/><path class="cls-3" d="M362,220.2,242.74,289.09a7,7,0,0,1-7,0l-110.47-64"/><path class="cls-3" d="M359.87,182.32,249.73,118.64a7,7,0,0,0-7,0L214.38,135.1"/><line class="cls-2" x1="219.89" y1="94.3" x2="221.62" y2="95.29"/><line class="cls-4" x1="224.86" y1="97.15" x2="242.64" y2="107.34"/><polyline class="cls-2" points="244.26 108.27 245.99 109.26 247.74 108.29"/><line class="cls-5" x1="251.02" y1="106.48" x2="269.04" y2="96.51"/><polyline class="cls-2" points="270.68 95.6 272.43 94.63 274.17 95.61"/><line class="cls-6" x1="277.55" y1="97.52" x2="316.39" y2="119.46"/><line class="cls-2" x1="318.08" y1="120.42" x2="319.82" y2="121.4"/><line class="cls-3" x1="351.24" y1="159.81" x2="370.86" y2="171.28"/><polyline class="cls-2" points="218.53 97.02 215.55 91.78 221.57 91.53"/></g><g id="Base_station_Black" data-name="Base_station Black"><path class="cls-7" d="M76.48,203.46v-5.69H78.4a2.61,2.61,0,0,1,1.56.4,1.31,1.31,0,0,1,.57,1.16,1.24,1.24,0,0,1-.21.71,1.2,1.2,0,0,1-.61.46,1.24,1.24,0,0,1,.77.47,1.41,1.41,0,0,1,.25.84,1.46,1.46,0,0,1-.54,1.23,2.41,2.41,0,0,1-1.52.42Zm1.14-3.3h.82a1.17,1.17,0,0,0,.7-.19.67.67,0,0,0,.25-.55.7.7,0,0,0-.25-.58,1.26,1.26,0,0,0-.74-.19h-.78Zm0,.79v1.63h1a1.07,1.07,0,0,0,.69-.19.73.73,0,0,0,.24-.59.87.87,0,0,0-.21-.63.81.81,0,0,0-.64-.22Z"/><path class="cls-7" d="M84.72,202.24h-2l-.39,1.22H81.19l2-5.69h1.17l2,5.69H85.11Zm-1.71-.9h1.43l-.7-2.23h0Z"/><path class="cls-7" d="M89.93,202a.65.65,0,0,0-.24-.53,2.2,2.2,0,0,0-.81-.37,4.57,4.57,0,0,1-1.53-.7,1.32,1.32,0,0,1-.52-1.1,1.34,1.34,0,0,1,.59-1.14,2.47,2.47,0,0,1,1.52-.45,2.29,2.29,0,0,1,1.53.5,1.5,1.5,0,0,1,.57,1.23v0h-1.1a.84.84,0,0,0-.27-.64,1,1,0,0,0-.74-.24,1.1,1.1,0,0,0-.7.2.64.64,0,0,0-.25.52.59.59,0,0,0,.26.48,4,4,0,0,0,.93.39,3.42,3.42,0,0,1,1.42.69,1.42,1.42,0,0,1,.49,1.13,1.33,1.33,0,0,1-.58,1.15,2.51,2.51,0,0,1-1.52.42,2.83,2.83,0,0,1-1.62-.47,1.49,1.49,0,0,1-.67-1.35v0h1.1a.85.85,0,0,0,.32.74,1.35,1.35,0,0,0,.86.24,1.11,1.11,0,0,0,.71-.19A.61.61,0,0,0,89.93,202Z"/><path class="cls-7" d="M95.49,201H93.14v1.62h2.75v.88H92v-5.69h3.88v.88H93.14v1.43h2.35Z"/><path class="cls-7" d="M67.16,210a.67.67,0,0,0-.23-.53,2.35,2.35,0,0,0-.82-.37,4.77,4.77,0,0,1-1.53-.7,1.32,1.32,0,0,1-.52-1.1,1.35,1.35,0,0,1,.6-1.14,2.43,2.43,0,0,1,1.52-.45,2.28,2.28,0,0,1,1.52.5,1.49,1.49,0,0,1,.58,1.23v0H67.16a.87.87,0,0,0-.26-.64,1.06,1.06,0,0,0-.74-.24,1.13,1.13,0,0,0-.71.2.64.64,0,0,0-.25.52.58.58,0,0,0,.27.48,3.89,3.89,0,0,0,.92.39,3.47,3.47,0,0,1,1.43.69A1.44,1.44,0,0,1,68.3,210a1.35,1.35,0,0,1-.57,1.15,2.54,2.54,0,0,1-1.53.42,2.86,2.86,0,0,1-1.62-.47,1.51,1.51,0,0,1-.67-1.35v0H65a.85.85,0,0,0,.31.74,1.39,1.39,0,0,0,.86.24,1.16,1.16,0,0,0,.72-.19A.63.63,0,0,0,67.16,210Z"/><path class="cls-7" d="M73.16,206.65H71.55v4.81H70.41v-4.81h-1.6v-.88h4.35Z"/><path class="cls-7" d="M76.52,210.24h-2l-.38,1.22H73l2-5.69h1.17l2,5.69H76.91Zm-1.71-.9h1.43l-.7-2.23h0Z"/><path class="cls-7" d="M82.58,206.65H81v4.81H79.83v-4.81h-1.6v-.88h4.35Z"/><path class="cls-7" d="M84.5,211.46H83.36v-5.69H84.5Z"/><path class="cls-7" d="M90.27,209.13a2.39,2.39,0,0,1-.66,1.73,2.5,2.5,0,0,1-3.43,0,2.39,2.39,0,0,1-.66-1.73v-1a2.39,2.39,0,0,1,.66-1.73,2.22,2.22,0,0,1,1.7-.69,2.3,2.3,0,0,1,1.73.69,2.39,2.39,0,0,1,.66,1.73Zm-1.14-1A1.73,1.73,0,0,0,88.8,207a1.12,1.12,0,0,0-.92-.43,1.05,1.05,0,0,0-.9.43,1.78,1.78,0,0,0-.32,1.09v1a1.77,1.77,0,0,0,.33,1.11,1.07,1.07,0,0,0,.9.43,1.1,1.1,0,0,0,.91-.43,1.77,1.77,0,0,0,.33-1.11Z"/><path class="cls-7" d="M95.82,211.46H94.69l-2.3-3.88h0v3.88H91.23v-5.69h1.14l2.29,3.89h0v-3.88h1.13Z"/><line class="cls-2" x1="108.5" y1="198.53" x2="118.74" y2="211.47"/><line class="cls-2" x1="111.04" y1="191.95" x2="118.73" y2="201.67"/><line class="cls-2" x1="112.95" y1="187.13" x2="118.72" y2="194.43"/><line class="cls-2" x1="114.71" y1="182.55" x2="118.71" y2="187.61"/><line class="cls-2" x1="106.1" y1="204.81" x2="118.73" y2="203.5"/><line class="cls-2" x1="109.11" y1="196.98" x2="118.72" y2="195.98"/><line class="cls-2" x1="111.37" y1="191.18" x2="118.71" y2="190.42"/><line class="cls-2" x1="113.38" y1="186.03" x2="118.71" y2="185.56"/><line class="cls-2" x1="131.45" y1="198.74" x2="121.54" y2="211.28"/><line class="cls-2" x1="128.89" y1="192.18" x2="121.52" y2="201.51"/><line class="cls-2" x1="127" y1="187.34" x2="121.51" y2="194.29"/><line class="cls-2" x1="125.24" y1="182.78" x2="121.5" y2="187.5"/><line class="cls-2" x1="133.77" y1="204.78" x2="121.52" y2="203.51"/><line class="cls-2" x1="130.76" y1="196.96" x2="121.51" y2="195.99"/><line class="cls-2" x1="128.49" y1="191.16" x2="121.5" y2="190.43"/><line class="cls-2" x1="126.48" y1="186.01" x2="121.5" y2="185.57"/><path class="cls-2" d="M126.8,166c3.66,2.11,3.68,5.54,0,7.65a14.55,14.55,0,0,1-13.2,0c-3.66-2.11-3.68-5.54,0-7.65A14.53,14.53,0,0,1,126.8,166Z"/><circle class="cls-2" cx="120.23" cy="161.6" r="1.75"/><line class="cls-2" x1="120.23" y1="163.36" x2="120.23" y2="169.32"/><path class="cls-8" d="M112,153.68l5.32,3.81a3.54,3.54,0,0,0-.53,3.53.69.69,0,0,0,.07.15l-5.72,2.61s-3.41-1.71-3.14-5.18S111.87,153.71,112,153.68Z"/><path class="cls-8" d="M128.64,153.63l-5.32,3.82a3.55,3.55,0,0,1,.54,3.52,1,1,0,0,1-.08.15l5.72,2.61s3.41-1.71,3.14-5.18S128.73,153.67,128.64,153.63Z"/><path class="cls-2" d="M136.55,204.6l-9.93-24.71a13.28,13.28,0,0,1-2.23.75l9.39,24.06h0l0,6.37,1.3.75,1.49-.86,0-6.37Z"/><path class="cls-2" d="M118.7,181.05l0,38.69,1.48.86,1.31-.76-.05-38.76A18.56,18.56,0,0,1,118.7,181.05Z"/><path class="cls-2" d="M106.09,204.7l9.46-24.22a12.41,12.41,0,0,1-2.19-.83l-10,24.95h0l0,6.37,1.48.86,1.31-.75-.05-6.37Z"/><path class="cls-2" d="M129.56,169.78l1.32,5.1a3.66,3.66,0,0,1,0,.66,5.67,5.67,0,0,1-3,3.78,16.61,16.61,0,0,1-15.07,0c-2-1.15-3-2.62-3.14-4.12l1.33-5.68"/><line class="cls-2" x1="190.5" y1="233.98" x2="200.74" y2="246.92"/><line class="cls-2" x1="193.04" y1="227.4" x2="200.73" y2="237.11"/><line class="cls-2" x1="194.95" y1="222.58" x2="200.72" y2="229.87"/><line class="cls-2" x1="196.71" y1="218" x2="200.71" y2="223.06"/><line class="cls-2" x1="188.1" y1="240.26" x2="200.73" y2="238.95"/><line class="cls-2" x1="191.11" y1="232.43" x2="200.72" y2="231.43"/><line class="cls-2" x1="193.37" y1="226.63" x2="200.71" y2="225.87"/><line class="cls-2" x1="195.38" y1="221.48" x2="200.71" y2="221.01"/><line class="cls-2" x1="213.45" y1="234.19" x2="203.54" y2="246.73"/><line class="cls-2" x1="210.89" y1="227.63" x2="203.52" y2="236.95"/><line class="cls-2" x1="209.01" y1="222.79" x2="203.51" y2="229.74"/><line class="cls-2" x1="207.24" y1="218.23" x2="203.5" y2="222.95"/><line class="cls-2" x1="215.77" y1="240.23" x2="203.52" y2="238.96"/><line class="cls-2" x1="212.76" y1="232.41" x2="203.51" y2="231.44"/><line class="cls-2" x1="210.49" y1="226.61" x2="203.5" y2="225.88"/><line class="cls-2" x1="208.48" y1="221.46" x2="203.5" y2="221.02"/><path class="cls-2" d="M208.8,201.42c3.66,2.11,3.68,5.54,0,7.65a14.55,14.55,0,0,1-13.2,0c-3.66-2.11-3.68-5.54,0-7.65A14.53,14.53,0,0,1,208.8,201.42Z"/><circle class="cls-2" cx="202.23" cy="197.05" r="1.75"/><line class="cls-2" x1="202.23" y1="198.81" x2="202.23" y2="204.77"/><path class="cls-8" d="M194,189.13l5.32,3.81a3.53,3.53,0,0,0-.53,3.52.59.59,0,0,0,.07.16l-5.71,2.6s-3.42-1.7-3.15-5.17S193.87,189.16,194,189.13Z"/><path class="cls-8" d="M210.64,189.08l-5.32,3.82a3.55,3.55,0,0,1,.54,3.52c0,.05-.05.11-.08.15l5.72,2.61s3.41-1.71,3.14-5.18S210.73,189.12,210.64,189.08Z"/><path class="cls-2" d="M218.55,240.05l-9.93-24.71a13.28,13.28,0,0,1-2.23.75l9.39,24.06h0l-.05,6.37,1.3.75,1.49-.86,0-6.37Z"/><path class="cls-2" d="M200.7,216.5l.05,38.69,1.48.86,1.31-.76,0-38.76A18.56,18.56,0,0,1,200.7,216.5Z"/><path class="cls-2" d="M188.09,240.15l9.46-24.22a12.41,12.41,0,0,1-2.19-.83l-10,25h0l.05,6.37,1.48.86,1.31-.75-.05-6.37Z"/><path class="cls-2" d="M211.56,205.23l1.32,5.1a3.66,3.66,0,0,1,0,.66,5.67,5.67,0,0,1-3.05,3.78,16.61,16.61,0,0,1-15.07,0c-2-1.15-3-2.62-3.14-4.12l1.33-5.68"/><line class="cls-2" x1="270.21" y1="198.81" x2="280.45" y2="211.75"/><line class="cls-2" x1="272.76" y1="192.23" x2="280.44" y2="201.94"/><line class="cls-2" x1="274.66" y1="187.41" x2="280.43" y2="194.7"/><line class="cls-2" x1="276.42" y1="182.83" x2="280.42" y2="187.89"/><line class="cls-2" x1="267.81" y1="205.09" x2="280.44" y2="203.77"/><line class="cls-2" x1="270.82" y1="197.26" x2="280.43" y2="196.26"/><line class="cls-2" x1="273.08" y1="191.46" x2="280.42" y2="190.7"/><line class="cls-2" x1="275.09" y1="186.31" x2="280.42" y2="185.84"/><line class="cls-2" x1="293.16" y1="199.02" x2="283.25" y2="211.55"/><line class="cls-2" x1="290.61" y1="192.46" x2="283.23" y2="201.78"/><line class="cls-2" x1="288.72" y1="187.62" x2="283.22" y2="194.57"/><line class="cls-2" x1="286.95" y1="183.05" x2="283.21" y2="187.78"/><line class="cls-2" x1="295.49" y1="205.06" x2="283.23" y2="203.79"/><line class="cls-2" x1="292.47" y1="197.23" x2="283.22" y2="196.27"/><line class="cls-2" x1="290.2" y1="191.43" x2="283.21" y2="190.71"/><line class="cls-2" x1="288.19" y1="186.28" x2="283.21" y2="185.84"/><path class="cls-2" d="M288.52,166.25c3.65,2.11,3.67,5.53,0,7.64a14.49,14.49,0,0,1-13.2,0c-3.66-2.11-3.67-5.53,0-7.64A14.55,14.55,0,0,1,288.52,166.25Z"/><circle class="cls-2" cx="281.94" cy="161.88" r="1.75"/><line class="cls-2" x1="281.94" y1="163.63" x2="281.94" y2="169.6"/><path class="cls-8" d="M273.67,154l5.32,3.82a3.52,3.52,0,0,0-.53,3.52.77.77,0,0,0,.07.16l-5.71,2.6s-3.42-1.71-3.15-5.18S273.58,154,273.67,154Z"/><path class="cls-8" d="M290.35,153.91,285,157.72a3.57,3.57,0,0,1,.54,3.53l-.07.15,5.71,2.61s3.41-1.71,3.14-5.18S290.44,153.94,290.35,153.91Z"/><path class="cls-2" d="M298.26,204.88l-9.93-24.71a14.24,14.24,0,0,1-2.23.75L295.49,205h0l-.05,6.37,1.3.75,1.49-.86,0-6.37Z"/><path class="cls-2" d="M280.41,181.33l0,38.68,1.48.86,1.31-.75-.05-38.77A17.33,17.33,0,0,1,280.41,181.33Z"/><path class="cls-2" d="M267.81,205l9.45-24.22a13.24,13.24,0,0,1-2.19-.83l-10,24.95h0l.05,6.37,1.48.86,1.31-.75-.05-6.37Z"/><path class="cls-2" d="M291.27,170.05l1.32,5.1a3.71,3.71,0,0,1,0,.67,5.64,5.64,0,0,1-3.05,3.77,16.61,16.61,0,0,1-15.07,0c-2-1.14-3-2.62-3.14-4.11l1.33-5.69"/></g><g id="Server_Black" data-name="Server Black"><polyline class="cls-2" points="343.37 154.45 365.81 141.3 365.75 101.79"/><polyline class="cls-2" points="343.61 114.59 365.83 101.71 350.94 93.25 328.89 105.94"/><path class="cls-2" d="M343.42,114.52s-5.45.15-9.23-2a13.43,13.43,0,0,1-5.3-6.56l-.11,39.84a11.33,11.33,0,0,0,5.57,6.34,19.44,19.44,0,0,0,8.95,2.24Z"/><path class="cls-2" d="M334.24,131.83a3,3,0,0,1,1.34,2.32c0,.86-.61,1.2-1.35.77a3,3,0,0,1-1.35-2.32C332.89,131.74,333.49,131.4,334.24,131.83Z"/><path class="cls-2" d="M334.24,137.26a3,3,0,0,1,1.34,2.33c0,.86-.61,1.2-1.35.77a3,3,0,0,1-1.35-2.33C332.89,137.18,333.49,136.83,334.24,137.26Z"/><line class="cls-2" x1="332.82" y1="119.46" x2="338.01" y2="122.6"/><line class="cls-2" x1="332.25" y1="123.01" x2="337.45" y2="126.15"/><path class="cls-7" d="M375.71,105.83a.66.66,0,0,0-.23-.53,2.47,2.47,0,0,0-.81-.37,4.73,4.73,0,0,1-1.54-.7,1.29,1.29,0,0,1-.52-1.1,1.37,1.37,0,0,1,.6-1.14,2.43,2.43,0,0,1,1.52-.44,2.32,2.32,0,0,1,1.53.49,1.53,1.53,0,0,1,.57,1.23v0h-1.11a.8.8,0,0,0-.26-.64,1.26,1.26,0,0,0-1.45,0,.65.65,0,0,0-.25.52.55.55,0,0,0,.27.47,3.33,3.33,0,0,0,.92.39,3.6,3.6,0,0,1,1.43.7,1.42,1.42,0,0,1,.48,1.12,1.37,1.37,0,0,1-.57,1.16,2.53,2.53,0,0,1-1.52.42,2.82,2.82,0,0,1-1.63-.48,1.51,1.51,0,0,1-.67-1.34v0h1.11a.88.88,0,0,0,.31.75,1.41,1.41,0,0,0,.87.24,1.13,1.13,0,0,0,.71-.2A.6.6,0,0,0,375.71,105.83Z"/><path class="cls-7" d="M381.28,104.82h-2.36v1.62h2.76v.88h-3.9v-5.69h3.89v.88h-2.75v1.43h2.36Z"/><path class="cls-7" d="M383.58,105v2.28h-1.14v-5.69h2.14a2.37,2.37,0,0,1,1.52.44,1.5,1.5,0,0,1,.55,1.24,1.22,1.22,0,0,1-.23.76,1.61,1.61,0,0,1-.67.51,1.25,1.25,0,0,1,.72.49,1.57,1.57,0,0,1,.22.86v.42a1.77,1.77,0,0,0,.07.5.62.62,0,0,0,.22.38v.09H385.8a.69.69,0,0,1-.2-.42,3.75,3.75,0,0,1-.05-.56v-.4a.93.93,0,0,0-.23-.66.87.87,0,0,0-.65-.24Zm0-.88h1a1.07,1.07,0,0,0,.72-.2.73.73,0,0,0,.24-.6.81.81,0,0,0-.24-.62,1,1,0,0,0-.7-.23h-1Z"/><path class="cls-7" d="M389.64,105.8l.07.31h0l.07-.3,1.23-4.18h1.21l-1.94,5.69h-1.17l-1.93-5.69h1.21Z"/><path class="cls-7" d="M396.36,104.82H394v1.62h2.75v.88h-3.89v-5.69h3.89v.88H394v1.43h2.36Z"/><path class="cls-7" d="M398.66,105v2.28h-1.14v-5.69h2.14a2.37,2.37,0,0,1,1.52.44,1.5,1.5,0,0,1,.55,1.24,1.22,1.22,0,0,1-.23.76,1.61,1.61,0,0,1-.67.51,1.25,1.25,0,0,1,.72.49,1.57,1.57,0,0,1,.22.86v.42a1.77,1.77,0,0,0,.07.5.62.62,0,0,0,.22.38v.09h-1.18a.69.69,0,0,1-.2-.42,3.75,3.75,0,0,1-.05-.56v-.4a.93.93,0,0,0-.23-.66.88.88,0,0,0-.66-.24Zm0-.88h1a1.07,1.07,0,0,0,.72-.2.73.73,0,0,0,.24-.6.81.81,0,0,0-.24-.62,1,1,0,0,0-.7-.23h-1Z"/></g><g id="Computer_Black" data-name="Computer Black"><path class="cls-8" d="M405.8,160.71c4.91,3,9.69,8.22,13.46,14.6l-1.82,1.44c-3.27-5.54-7.4-10-11.65-12.66s-8.49-3.26-11.79-1.71l-1.82-3.66C396,156.93,400.83,157.64,405.8,160.71Z"/><path class="cls-8" d="M405.78,170.72a28.22,28.22,0,0,1,8.87,9.62l-1.82,1.43a22.4,22.4,0,0,0-7.06-7.67c-2.57-1.58-5.17-2-7.15-1l-1.82-3.66C399.31,168.23,402.5,168.69,405.78,170.72Z"/><path class="cls-8" d="M405.76,180.63a14.92,14.92,0,0,1,4.72,5.12l-1.82,1.43a9.3,9.3,0,0,0-2.91-3.17,3.13,3.13,0,0,0-3-.42L401,179.93C402.31,179.3,404,179.55,405.76,180.63Z"/><path class="cls-2" d="M430.06,207l-30.78,17.85a4.19,4.19,0,0,1-4.18,0l-44.81-25.63a1.86,1.86,0,0,1,0-3.22L381,178.47Z"/><path class="cls-2" d="M381.81,142.05c1.11-.88,2.33-1.94,3.36-1.36l44.17,25.4a4.87,4.87,0,0,1,2.44,4.22v35.51L430,207V171.52a4.87,4.87,0,0,0-2.43-4.21l-44.17-25.4a1.41,1.41,0,0,0-2.11,1.22v35.39"/><path class="cls-2" d="M430,207.16v1.7a1.9,1.9,0,0,1-.65,1.79L397.82,228.9a1.33,1.33,0,0,1-1.31,0L350,202.22a1.31,1.31,0,0,1-.65-1.13v-3.45"/><path class="cls-2" d="M382.59,213.61l7.09-4.16a.33.33,0,0,0,0-.58l-12.59-7.31a.77.77,0,0,0-.75,0l-7.09,4.12a.47.47,0,0,0,0,.8l12.23,7.13A1.1,1.1,0,0,0,382.59,213.61Z"/><line class="cls-2" x1="397.05" y1="225.47" x2="397.03" y2="229.26"/><path class="cls-2" d="M405.54,214.79l-39.09-22.63a.53.53,0,0,1,0-.92l13.69-7.89a1.07,1.07,0,0,1,1,0l39.75,23a0,0,0,0,1,0,.06l-14.6,8.43A.8.8,0,0,1,405.54,214.79Z"/><path class="cls-2" d="M392.2,185.12l-1.35,1a.26.26,0,0,0,0,.44l21.3,12.36a1.25,1.25,0,0,0,1.34-.06l1.22-.83"/><path class="cls-2" d="M426.22,200.92l-41.48-24.06a1.71,1.71,0,0,1-.87-1.5l-.06-29.76a.8.8,0,0,1,1.2-.69l40.47,23.77a3.76,3.76,0,0,1,1.89,3.26l.11,28.25A.84.84,0,0,1,426.22,200.92Z"/><line class="cls-2" x1="378.75" y1="186.67" x2="400.91" y2="199.39"/><line class="cls-2" x1="381" y1="191.16" x2="412.21" y2="209.12"/><line class="cls-2" x1="373.1" y1="189.95" x2="404.32" y2="207.91"/><line class="cls-2" x1="403.28" y1="200.72" x2="415.16" y2="207.54"/><line class="cls-2" x1="378.46" y1="196.31" x2="398.62" y2="207.91"/><line class="cls-2" x1="375.97" y1="188.21" x2="378.5" y2="189.79"/><line class="cls-2" x1="370.48" y1="191.49" x2="376.09" y2="194.9"/><line class="cls-2" x1="406.19" y1="208.87" x2="408.72" y2="210.45"/><line class="cls-2" x1="401.2" y1="209.32" x2="406.14" y2="212.28"/></g><g id="Satellites_Black" data-name="Satellites Black"><polygon class="cls-2" points="249.7 30.84 273.94 44.93 289.31 36.06 265.07 21.97 249.7 30.84"/><polygon class="cls-2" points="290.51 54.43 314.75 68.52 330.12 59.64 305.88 45.56 290.51 54.43"/><path class="cls-2" d="M301.39,37.39A8.59,8.59,0,0,0,300.14,36a6.3,6.3,0,0,0-1.14-.84,2.89,2.89,0,0,0-2.94-.29L275.51,46.71a2.91,2.91,0,0,1,2.94.28,7.35,7.35,0,0,1,1.13.84,9.15,9.15,0,0,1,1.26,1.43,8.81,8.81,0,0,1,1.72,4.85,4.42,4.42,0,0,1-.17,1.21,2.59,2.59,0,0,1-.6,1.1l20.55-11.87a2.57,2.57,0,0,0,.61-1.09,4.49,4.49,0,0,0,.16-1.21A8.73,8.73,0,0,0,301.39,37.39Z"/><path class="cls-2" d="M278.45,47a9.12,9.12,0,0,1,4.11,7.12c0,2.62-1.86,3.68-4.14,2.36a9,9,0,0,1-4.11-7.12C274.32,46.73,276.17,45.68,278.45,47Z"/><circle class="cls-2" cx="272.38" cy="55.61" r="1.75"/><line class="cls-2" x1="273.92" y1="54.66" x2="277.99" y2="52.15"/><path class="cls-8" d="M265,48.07l3.55,4.65a3.18,3.18,0,0,0-1.3,2.89.68.68,0,0,0,0,.15l-5.44.76s-2.46-2.35-1.4-5.26S264.94,48.08,265,48.07Z"/><path class="cls-8" d="M281.47,58.64l-5.73.08a3.21,3.21,0,0,1-1.39,2.86l-.13.08L277,66.52s3.3.49,4.86-2.2S281.51,58.71,281.47,58.64Z"/><line class="cls-2" x1="284.73" y1="38.7" x2="287" y2="40.07"/><line class="cls-2" x1="298.28" y1="46.9" x2="300.86" y2="48.46"/><line class="cls-2" x1="278.49" y1="42.3" x2="280.76" y2="43.67"/><line class="cls-2" x1="292" y1="50.47" x2="294.58" y2="52.03"/><path class="cls-7" d="M134.6,40.36a.67.67,0,0,0-.23-.53,2.35,2.35,0,0,0-.82-.37,4.77,4.77,0,0,1-1.53-.7,1.3,1.3,0,0,1-.52-1.1,1.35,1.35,0,0,1,.6-1.14,2.43,2.43,0,0,1,1.52-.45,2.28,2.28,0,0,1,1.52.5,1.45,1.45,0,0,1,.57,1.23v0H134.6a.83.83,0,0,0-.26-.63,1,1,0,0,0-.74-.25,1.13,1.13,0,0,0-.71.2.64.64,0,0,0-.25.52.56.56,0,0,0,.27.48,3.89,3.89,0,0,0,.92.39,3.74,3.74,0,0,1,1.43.69,1.46,1.46,0,0,1,.48,1.13,1.35,1.35,0,0,1-.57,1.15,2.48,2.48,0,0,1-1.53.43,2.79,2.79,0,0,1-1.62-.48,1.51,1.51,0,0,1-.67-1.34v0h1.11a.88.88,0,0,0,.31.75,1.46,1.46,0,0,0,.86.23,1.16,1.16,0,0,0,.72-.19A.63.63,0,0,0,134.6,40.36Z"/><path class="cls-7" d="M139.72,40.62h-2l-.38,1.22h-1.15l1.95-5.68h1.17l1.95,5.68h-1.15Zm-1.71-.9h1.43l-.7-2.23h0Z"/><path class="cls-7" d="M145.78,37h-1.61v4.8H143V37h-1.6v-.88h4.35Z"/><path class="cls-7" d="M150,39.34h-2.35V41h2.75v.88h-3.9V36.16h3.89V37h-2.74v1.42H150Z"/><path class="cls-7" d="M152.28,41h2.53v.88h-3.67V36.16h1.14Z"/><path class="cls-7" d="M156.68,41h2.53v.88h-3.68V36.16h1.15Z"/><path class="cls-7" d="M161.14,41.84H160V36.16h1.14Z"/><path class="cls-7" d="M166.27,37h-1.61v4.8h-1.14V37h-1.6v-.88h4.35Z"/><path class="cls-7" d="M170.47,39.34h-2.36V41h2.75v.88H167V36.16h3.89V37h-2.75v1.42h2.36Z"/><path class="cls-7" d="M174.7,40.36a.65.65,0,0,0-.24-.53,2.2,2.2,0,0,0-.81-.37,4.57,4.57,0,0,1-1.53-.7,1.3,1.3,0,0,1-.52-1.1,1.34,1.34,0,0,1,.59-1.14,2.47,2.47,0,0,1,1.52-.45,2.29,2.29,0,0,1,1.53.5,1.5,1.5,0,0,1,.57,1.23v0h-1.1a.8.8,0,0,0-.27-.63,1,1,0,0,0-.74-.25,1.1,1.1,0,0,0-.7.2.64.64,0,0,0-.25.52.58.58,0,0,0,.26.48,4,4,0,0,0,.93.39,3.68,3.68,0,0,1,1.42.69,1.43,1.43,0,0,1,.49,1.13,1.33,1.33,0,0,1-.58,1.15,2.45,2.45,0,0,1-1.52.43,2.77,2.77,0,0,1-1.62-.48,1.48,1.48,0,0,1-.67-1.34v0h1.1a.89.89,0,0,0,.32.75,1.42,1.42,0,0,0,.86.23,1.11,1.11,0,0,0,.71-.19A.61.61,0,0,0,174.7,40.36Z"/><polygon class="cls-2" points="70.74 31.01 94.98 45.09 110.35 36.22 86.11 22.13 70.74 31.01"/><polygon class="cls-2" points="111.56 54.59 135.8 68.68 151.17 59.81 126.93 45.72 111.56 54.59"/><path class="cls-2" d="M122.43,37.55a9,9,0,0,0-1.25-1.42,6.43,6.43,0,0,0-1.14-.84,2.92,2.92,0,0,0-2.93-.29L96.55,46.87a2.89,2.89,0,0,1,2.94.29,6.67,6.67,0,0,1,1.14.84,9.07,9.07,0,0,1,1.25,1.42,8.81,8.81,0,0,1,1.72,4.85,4.51,4.51,0,0,1-.16,1.22,2.57,2.57,0,0,1-.61,1.09l20.55-11.87a2.51,2.51,0,0,0,.61-1.09,4.49,4.49,0,0,0,.16-1.21A8.71,8.71,0,0,0,122.43,37.55Z"/><path class="cls-2" d="M99.49,47.16a9,9,0,0,1,4.11,7.11c0,2.62-1.86,3.68-4.14,2.36a9,9,0,0,1-4.11-7.12C95.36,46.9,97.21,45.84,99.49,47.16Z"/><circle class="cls-2" cx="93.43" cy="55.68" r="1.75"/><line class="cls-2" x1="94.96" y1="54.73" x2="99.03" y2="52.21"/><path class="cls-8" d="M85.9,48.07l3.55,4.65a3.18,3.18,0,0,0-1.3,2.89.68.68,0,0,0,0,.15l-5.44.76s-2.46-2.35-1.4-5.26S85.81,48.08,85.9,48.07Z"/><path class="cls-8" d="M102.34,58.64l-5.73.08a3.19,3.19,0,0,1-1.39,2.86l-.13.08,2.78,4.86s3.3.49,4.86-2.2S102.38,58.71,102.34,58.64Z"/><line class="cls-2" x1="105.77" y1="38.87" x2="108.04" y2="40.24"/><line class="cls-2" x1="119.32" y1="47.06" x2="121.9" y2="48.62"/><line class="cls-2" x1="99.53" y1="42.46" x2="101.8" y2="43.84"/><line class="cls-2" x1="113.04" y1="50.63" x2="115.63" y2="52.19"/></g><g id="Rover_Black" data-name="Rover Black"><path class="cls-7" d="M167.48,151.28v2.28h-1.14v-5.69h2.14a2.37,2.37,0,0,1,1.52.44,1.5,1.5,0,0,1,.55,1.24,1.24,1.24,0,0,1-.23.76,1.61,1.61,0,0,1-.67.51,1.25,1.25,0,0,1,.72.49,1.55,1.55,0,0,1,.22.86v.42a1.77,1.77,0,0,0,.07.5.62.62,0,0,0,.22.38v.09H169.7a.69.69,0,0,1-.2-.42,3.75,3.75,0,0,1-.05-.56v-.4a.93.93,0,0,0-.23-.66.87.87,0,0,0-.65-.24Zm0-.88h1a1.07,1.07,0,0,0,.72-.2.75.75,0,0,0,.24-.6.81.81,0,0,0-.24-.62.94.94,0,0,0-.7-.23h-1Z"/><path class="cls-7" d="M176.27,151.22a2.34,2.34,0,0,1-.67,1.73,2.27,2.27,0,0,1-1.72.69,2.22,2.22,0,0,1-1.7-.69,2.38,2.38,0,0,1-.66-1.73v-1a2.43,2.43,0,0,1,.65-1.73,2.5,2.5,0,0,1,3.43,0,2.4,2.4,0,0,1,.67,1.73Zm-1.14-1a1.76,1.76,0,0,0-.34-1.1,1.09,1.09,0,0,0-.91-.42,1.06,1.06,0,0,0-.9.42,1.73,1.73,0,0,0-.32,1.1v1a1.73,1.73,0,0,0,.32,1.1,1.06,1.06,0,0,0,.9.43,1.09,1.09,0,0,0,.92-.43,1.74,1.74,0,0,0,.33-1.1Z"/><path class="cls-7" d="M179.05,152l.07.31h0l.06-.3,1.24-4.18h1.2l-1.93,5.69h-1.17l-1.93-5.69h1.2Z"/><path class="cls-7" d="M185.77,151.06h-2.35v1.62h2.75v.88h-3.89v-5.69h3.88v.88h-2.74v1.43h2.35Z"/><path class="cls-7" d="M188.07,151.28v2.28h-1.14v-5.69h2.15a2.39,2.39,0,0,1,1.52.44,1.5,1.5,0,0,1,.55,1.24,1.31,1.31,0,0,1-.23.76,1.65,1.65,0,0,1-.68.51,1.24,1.24,0,0,1,.73.49,1.64,1.64,0,0,1,.22.86v.42a2.2,2.2,0,0,0,.06.5.74.74,0,0,0,.22.38v.09H190.3a.7.7,0,0,1-.21-.42,3.69,3.69,0,0,1,0-.56v-.4a.93.93,0,0,0-.23-.66.89.89,0,0,0-.66-.24Zm0-.88h1a1.07,1.07,0,0,0,.72-.2.78.78,0,0,0,.23-.6.85.85,0,0,0-.23-.62.94.94,0,0,0-.7-.23h-1Z"/><path class="cls-2" d="M207.34,77.44c3.66,2.12,3.68,5.54,0,7.65a14.55,14.55,0,0,1-13.2,0c-3.66-2.11-3.68-5.53,0-7.65A14.53,14.53,0,0,1,207.34,77.44Z"/><path class="cls-2" d="M198.62,92.46l.07,61.1,2.25,1.3,2-1.14-.08-61.24A18.14,18.14,0,0,1,198.62,92.46Z"/><path class="cls-2" d="M210.1,81.25l1.32,5.1a3.66,3.66,0,0,1,0,.66,5.67,5.67,0,0,1-3,3.78,16.61,16.61,0,0,1-15.07,0c-2-1.15-3-2.62-3.14-4.12L191.45,81"/></g></svg>