<svg width="48" height="48" viewBox="0 0 48 48" fill="none" xmlns="http://www.w3.org/2000/svg">
<path d="M19.5 11H22.5V8H19.5V11ZM25.5 11V8H28.5V11H25.5ZM19.5 23V20H22.5V23H19.5ZM31.5 17V14H34.5V17H31.5ZM31.5 23V20H34.5V23H31.5ZM25.5 23V20H28.5V23H25.5ZM31.5 11V8H34.5V11H31.5ZM22.5 14V11H25.5V14H22.5ZM13.5 40V8H16.5V11H19.5V14H16.5V17H19.5V20H16.5V40H13.5ZM28.5 20V17H31.5V20H28.5ZM22.5 20V17H25.5V20H22.5ZM19.5 17V14H22.5V17H19.5ZM25.5 17V14H28.5V17H25.5ZM28.5 14V11H31.5V14H28.5Z" fill="#0DFF00"/>
</svg>
