<svg width="32" height="32" version="1.1" viewBox="0 0 32 32" xml:space="preserve" xmlns="http://www.w3.org/2000/svg"><defs><style>.cls-1{fill:none;stroke-linecap:round;stroke-linejoin:round;stroke-width:2px;}</style></defs><path d="m16 26.5c5.799 0 10.5-4.701 10.5-10.5 0-5.799-4.701-10.5-10.5-10.5-5.799 0-10.5 4.701-10.5 10.5 0 5.799 4.701 10.5 10.5 10.5zm0 1.5c6.6274 0 12-5.3726 12-12 0-6.6274-5.3726-12-12-12-6.6274 0-12 5.3726-12 12 0 6.6274 5.3726 12 12 12zm0.75-17.25v8.25h-1.5v-8.25zm0 11.25v-1.5h-1.5v1.5z" clip-rule="evenodd" fill-rule="evenodd"/></svg>
