<svg width="32" height="32" version="1.1" viewBox="0 0 32 32" xml:space="preserve" xmlns="http://www.w3.org/2000/svg"><g transform="translate(-1.5e-5)"><path d="m7 9.5c-1.6569 0-3 1.3431-3 3v7c0 1.6569 1.3432 3 3 3h16c1.3793 0 2.5381-0.93148 2.8887-2.1992h0.11133c1.1046 0 2-0.89543 2-2v-4.6016c0-1.1046-0.8954-2-2-2h-0.11133c-0.35077-1.2674-1.5096-2.1992-2.8887-2.1992zm-0.51172 1.584h16.908c0.58367 0 1.0566 0.49034 1.0566 1.0938 0 0.7241 0.56919 1.3105 1.2695 1.3105h0.84375v5.0254h-0.84375c-0.70034 0-1.2695 0.58645-1.2695 1.3105 0 0.60341-0.47297 1.0938-1.0566 1.0938h-16.908c-0.58365 0-1.0566-0.49034-1.0566-1.0938v-7.6465c0-0.60342 0.47298-1.0938 1.0566-1.0938zm17.531 1.6191c0.0042 0.02436 0.0081 0.04843 0.01367 0.07227-0.0056-0.02376-0.0095-0.04799-0.01367-0.07227zm0.017 6.5137c-0.0069 0.02844-0.01273 0.05675-0.01758 0.08594 0.0049-0.02906 0.01068-0.05762 0.01758-0.08594zm-17.744 0.99024c0.04553 0.04567 0.094817 0.08682 0.14844 0.12305-0.0532-0.03594-0.1032-0.07781-0.14844-0.12305zm0.50586 0.27344c0.065097 0.01332 0.13214 0.02149 0.20117 0.02149h16c0.06838 0 0.13665-0.0084 0.20117-0.02149-0.0651 0.01332-0.13213 0.01953-0.20117 0.01953h-16c-0.069035 0-0.13607-0.0062-0.20117-0.01953z" mask="url(#battery)"/><rect x="8.2299" y="13.363" width="14" height="5" rx="2.5" ry="2.5"/></g></svg>
