<svg width="32" height="32" version="1.1" viewBox="0 0 32 32" xml:space="preserve" xmlns="http://www.w3.org/2000/svg"><g transform="matrix(1.2663 0 0 1.2663 6.0936 4)" fill="none" ><path d="m6.0667 1.9474c9e-5 -1.5e-4 2.3e-4 -4e-4 4.2e-4 -7.5e-4 0.00428-0.00783 0.03598-0.06584 0.13828-0.13155 0.10812-0.06946 0.22924-0.10329 0.32178-0.10329h2.5885c0.09274 0 0.21385 0.03384 0.32185 0.10323 0.10252 0.06582 0.13409 0.12394 0.13826 0.13163 4.6e-4 8.3e-4 5.9e-4 0.00107 4.6e-4 6.6e-4l0.11256 0.33547h-3.7347l0.11251-0.33545c-8e-5 2.5e-4 -6e-5 2.5e-4 6e-5 5e-5zm-1.9283 0.3354 0.29409-0.87679c0.15351-0.45767 0.48907-0.8045 0.83776-1.0285 0.35429-0.2276 0.79595-0.3775 1.2569-0.3775h2.5885c0.4609 0 0.90258 0.14976 1.2569 0.37737 0.3488 0.22403 0.6843 0.5709 0.8378 1.0286l0.2942 0.87679h2.6335c0.4756 0 0.8612 0.38319 0.8612 0.8559 0 0.4727-0.3856 0.85591-0.8612 0.85591h-12.631c-0.47567 0-0.86127-0.38321-0.86127-0.85591 0-0.47271 0.3856-0.8559 0.86127-0.8559zm-2.6854 3.7102c0.47471-0.03006 0.88405 0.328 0.9143 0.79975l0.96974 10.324 8.8e-4 0.0162s4.2e-4 0.0062 0.0048 0.0149c0.00474 0.0094 0.01429 0.0235 0.03127 0.0386 0.03536 0.0314 0.08714 0.0535 0.14512 0.0535h8.6123c0.058 0 0.1099-0.0221 0.1453-0.0534 0.0349-0.0311 0.0358-0.0536 0.0358-0.0536l0.9662-10.324c0.0212-0.47223 0.4236-0.83795 0.8988-0.81686s0.8432 0.42101 0.822 0.89327l-0.9661 10.324c-0.0459 1.0214-0.946 1.7425-1.902 1.7425h-8.6123c-0.95626 0-1.8507-0.7202-1.9016-1.7331l-0.96929-10.317c-0.030249-0.47173 0.33005-0.87853 0.80475-0.90859z" clip-rule="evenodd" fill="#000" fill-rule="evenodd"/></g></svg>
