<svg width="14" height="14" viewBox="0 0 14 14" fill="none" xmlns="http://www.w3.org/2000/svg">
<g clip-path="url(#clip0)">
<path fill-rule="evenodd" clip-rule="evenodd" d="M12.8333 4.30775H1.16667V2.15391H3.5V3.23083H4.66667V2.15391H9.33333V3.23083H10.5V2.15391H12.8333V4.30775ZM1.16667 12.9231H12.8333V5.38468H1.16667V12.9231ZM12.8333 1.07698H10.5V6.10352e-05H9.33333V1.07698H4.66667V6.10352e-05H3.5V1.07698H1.16667C0.522667 1.07698 0 1.55891 0 2.15391V12.9231C0 13.5176 0.522667 14.0001 1.16667 14.0001H12.8333C13.4773 14.0001 14 13.5176 14 12.9231V2.15391C14 1.55891 13.4773 1.07698 12.8333 1.07698Z" fill="white"/>
</g>
<defs>
<clipPath id="clip0">
<rect width="14" height="14" fill="white"/>
</clipPath>
</defs>
</svg>
