<svg width="32" height="32" version="1.1" viewBox="0 0 32 32" xml:space="preserve" xmlns="http://www.w3.org/2000/svg"><defs><style>.cls-1{fill:none;stroke-linecap:round;stroke-linejoin:round;stroke-width:2px;}</style></defs><path d="m20.286 24.571h-14.571c-0.45465 0-0.8907-0.18057-1.2122-0.50206-0.32149-0.32148-0.5021-0.7576-0.5021-1.2122v-13.714c0-0.45465 0.18061-0.8907 0.5021-1.2122 0.32149-0.32149 0.75753-0.5021 1.2122-0.5021h14.571c0.45463 0 0.89074 0.18061 1.2122 0.5021 0.32149 0.32149 0.50206 0.75753 0.50206 1.2122v3.48l4.6457-3.3171c0.12789-0.091086 0.2784-0.14528 0.43509-0.15665 0.15657-0.011383 0.31337 0.020491 0.45314 0.092137 0.13966 0.071646 0.25703 0.18031 0.33931 0.31411 0.08217 0.13382 0.12606 0.28765 0.12674 0.44469v12c-6.86e-4 0.15703-0.04457 0.31086-0.12674 0.44469-0.08229 0.13383-0.19966 0.24251-0.33931 0.31406-0.13977 0.07166-0.29657 0.10354-0.45314 0.09223-0.15669-0.01143-0.3072-0.0656-0.43509-0.15668l-4.6457-3.3171v3.48c0 0.45463-0.18057 0.89074-0.50206 1.2122-0.32149 0.32149-0.7576 0.50206-1.2122 0.50206zm-14.571-15.429v13.714h14.571v-5.1429c6.85e-4 -0.15704 0.04457-0.31087 0.12674-0.44469 0.08228-0.13381 0.19966-0.24247 0.33931-0.31411 0.13977-0.07165 0.29657-0.10352 0.45314-0.09214 0.15668 0.01137 0.3072 0.06557 0.43508 0.15665l4.6457 3.3171v-8.6743l-4.6457 3.3171c-0.12788 0.09109-0.2784 0.14528-0.43508 0.15665-0.15657 0.01138-0.31337-0.02049-0.45314-0.09214-0.13966-0.07165-0.25703-0.18031-0.33931-0.31412-0.08217-0.13382-0.12606-0.28764-0.12674-0.44468v-5.1429z"/></svg>
