<svg width="32" height="32" version="1.1" viewBox="0 0 32 32" xml:space="preserve" xmlns="http://www.w3.org/2000/svg"><path d="m7 9.5c-1.6568 0-3 1.3432-3 3v7c0 1.6569 1.3432 3 3 3h6.625l0.26172-1.582h-7.3984c-0.58365 0-1.0566-0.49034-1.0566-1.0938v-7.6465c0-0.60341 0.47298-1.0938 1.0566-1.0938h8.4258c0.4077-0.61808 0.58876-0.89558 1.043-1.584h-8.957zm9.4609 0-0.06836 0.10156c-2.1514 3.2607-3.7864 5.7401-4.9082 7.4531h2.8984 0.58984l-0.095703 0.58203-0.80469 4.8633h0.041015l0.18555-0.2793c0.22169-0.3354 0.55445-0.83741 0.99805-1.5078 0.858-1.2966 2.1306-3.2191 3.8203-5.7676h-2.9258-0.58984l0.095704-0.58203 0.80469-4.8633h-0.041015zm0.60547 0-0.26172 1.584h6.5918c0.58367 0 1.0566 0.49034 1.0566 1.0938 0 0.7241 0.56919 1.3105 1.2695 1.3105h0.84375v5.0254h-0.84375c-0.70034 0-1.2695 0.58645-1.2695 1.3105 0 0.60341-0.47297 1.0938-1.0566 1.0938h-7.5391c-0.02236 0.0338-0.075826 0.1135-0.097656 0.14648-0.42244 0.63842-0.73003 1.1011-0.95117 1.4355h8.1914c1.3793 0 2.5381-0.93149 2.8887-2.1992h0.11133c1.1046 0 2-0.89544 2-2v-4.6016c0-1.1046-0.8954-2-2-2h-0.11133c-0.35077-1.2674-1.5096-2.1992-2.8887-2.1992h-5.9336zm6.9531 3.2031c0.0042 0.02436 0.008102 0.048426 0.013672 0.072266-0.0056-0.02376-0.009502-0.047986-0.013672-0.072266zm-13.52 0.79688c-1.385 0-2.5 1.115-2.5 2.5 0 1.385 1.115 2.5 2.5 2.5h3.7852l0.14453-0.86914h-3.8242l0.50586-0.77344c0.50558-0.77204 1.497-2.2735 2.2109-3.3574h-2.8223zm5.9062 0-0.16797 1.0195h3.8574l-0.51562 0.77539c-0.93872 1.4158-1.4413 2.1751-2.123 3.2051h2.043c1.385 0 2.5-1.115 2.5-2.5 0-1.385-1.115-2.5-2.5-2.5h-3.0938zm7.6309 5.7168c-0.0069 0.02844-0.012728 0.056747-0.017578 0.085937 0.0049-0.02906 0.010678-0.057617 0.017578-0.085937zm-17.139 1.2793c0.033526 0.0037 0.067045 0.005859 0.10156 0.005859h6.9551v-0.001953h-6.9551c-0.034517 0-0.068036-6.95e-4 -0.10156-0.003906zm16.203 0c-0.033529 0.0032-0.06704 0.003906-0.10156 0.003906h-6.8672v0.001953h6.8672c0.03419 0 0.067881-0.002059 0.10156-0.005859z" mask="url(#battery)"/></svg>
