<svg width="14" height="14" viewBox="0 0 14 14" fill="none" xmlns="http://www.w3.org/2000/svg">
<g clip-path="url(#clip0)">
<path fill-rule="evenodd" clip-rule="evenodd" d="M7 1.00006C3.6915 1.00006 1 3.69156 1 7.00006C1 10.3086 3.6915 13.0001 7 13.0001C10.3085 13.0001 13 10.3086 13 7.00006C13 3.69156 10.3085 1.00006 7 1.00006ZM7 14.0001C3.14 14.0001 0 10.8601 0 7.00006C0 3.14006 3.14 6.10352e-05 7 6.10352e-05C10.86 6.10352e-05 14 3.14006 14 7.00006C14 10.8601 10.86 14.0001 7 14.0001Z" fill="white"/>
<path fill-rule="evenodd" clip-rule="evenodd" d="M9.2935 10.0001L6.5 7.20506V2.50006H7.5V6.79106L10 9.29356L9.2935 10.0001Z" fill="white"/>
</g>
<defs>
<clipPath id="clip0">
<rect width="14" height="14" fill="white"/>
</clipPath>
</defs>
</svg>
