<svg width="32" height="32" viewBox="0 0 32 32" fill="none" xmlns="http://www.w3.org/2000/svg">
<path d="M11.0569 15.2162L13.8461 18.0956L20.943 10.7692L22.4615 12.3368L13.8461 21.2308L9.53843 16.7838L11.0569 15.2162Z" fill="black"/>
<path fill-rule="evenodd" clip-rule="evenodd" d="M28 16C28 22.6274 22.6274 28 16 28C9.37258 28 4 22.6274 4 16C4 9.37258 9.37258 4 16 4C22.6274 4 28 9.37258 28 16ZM25.6 16C25.6 21.3019 21.3019 25.6 16 25.6C10.6981 25.6 6.4 21.3019 6.4 16C6.4 10.6981 10.6981 6.4 16 6.4C21.3019 6.4 25.6 10.6981 25.6 16Z" fill="black"/>
</svg>
