<svg  viewBox="0 0 10 20"  xmlns="http://www.w3.org/2000/svg">
<path fill-rule="evenodd" clip-rule="evenodd" d="M5.09362 0.399963L9.09759 8.97991L9.10617 8.98849C9.13986 9.06334 9.14997 9.14666 9.13517 9.22739C9.12038 9.30812 9.08137 9.38243 9.02334 9.44047C8.9653 9.49851 8.89098 9.53751 8.81025 9.55231C8.72952 9.5671 8.6462 9.55699 8.57136 9.52331L4.72754 7.87596L0.88372 9.52331C0.809312 9.55533 0.727003 9.56427 0.647456 9.54897C0.567908 9.53368 0.494786 9.49485 0.437562 9.43751C0.378811 9.37871 0.339603 9.30323 0.325274 9.22136C0.310946 9.13948 0.322192 9.05517 0.357483 8.97991L4.36146 0.399963C4.39411 0.330457 4.44588 0.271682 4.51071 0.230513C4.57554 0.189344 4.65074 0.16748 4.72754 0.16748C4.80433 0.16748 4.87954 0.189344 4.94437 0.230513C5.0092 0.271682 5.06096 0.330457 5.09362 0.399963ZM2.11034 10.7323L0.88807 10.2084C0.813225 10.1747 0.729904 10.1646 0.649174 10.1794C0.568444 10.1942 0.494127 10.2332 0.436091 10.2913C0.378056 10.3493 0.33905 10.4236 0.324254 10.5043C0.309458 10.5851 0.319572 10.6684 0.353252 10.7432L0.361832 10.7518L4.36581 19.3318C4.39846 19.4013 4.45023 19.4601 4.51506 19.5012C4.57988 19.5424 4.65509 19.5643 4.73189 19.5643C4.80868 19.5643 4.88389 19.5424 4.94872 19.5012C5.01354 19.4601 5.06531 19.4013 5.09796 19.3318L9.10194 10.7518C9.13723 10.6766 9.14848 10.5923 9.13415 10.5104C9.11982 10.4285 9.08062 10.353 9.02186 10.2942C8.96464 10.2369 8.89152 10.1981 8.81197 10.1828C8.73242 10.1675 8.65011 10.1764 8.57571 10.2084L7.40539 10.71L6.41876 12.9025C6.42396 12.9328 6.41974 12.964 6.40668 12.9919L4.91591 16.1864C4.90376 16.2122 4.88448 16.2341 4.86035 16.2495C4.83621 16.2648 4.80821 16.2729 4.77962 16.2729C4.75102 16.2729 4.72302 16.2648 4.69889 16.2495C4.67475 16.2341 4.65548 16.2122 4.64332 16.1864L3.15256 12.9919L3.14936 12.9887C3.13682 12.9608 3.13306 12.9298 3.13857 12.8997L3.13895 12.8977L2.11034 10.7323Z" />
</svg>
