<svg width="23" height="18" viewBox="0 0 23 18" fill="none" xmlns="http://www.w3.org/2000/svg">
<path fill-rule="evenodd" clip-rule="evenodd" d="M21.652 1.34839C19.8549 -0.449462 16.9293 -0.449462 15.1322 1.34839L16.2185 2.43476C17.4169 1.23645 19.3673 1.23645 20.5656 2.43476C21.7639 3.63307 21.7639 5.58349 20.5656 6.78103L14.4483 12.8991C13.25 14.0966 11.2996 14.0966 10.1013 12.8991C8.90296 11.7008 8.90296 9.75036 10.1013 8.55205L11.1884 7.46567L10.1013 6.37929L9.01489 7.46567C7.21704 9.26352 7.21704 12.1876 9.01489 13.9855C9.91266 14.884 11.0772 15.3333 12.2579 15.3333C13.4386 15.3333 14.6361 14.884 15.5347 13.9855L21.652 7.86817C23.449 6.07032 23.449 3.14623 21.652 1.34839Z" fill="white"/>
<path fill-rule="evenodd" clip-rule="evenodd" d="M2.43668 15.1968C1.2376 13.9977 1.2376 12.0465 2.43668 10.8467L8.5463 4.73859C9.74537 3.53952 11.6973 3.53952 12.8972 4.73859C13.4775 5.31973 13.7911 6.07874 13.7911 6.89984C13.7911 7.72095 13.4775 8.50756 12.8972 9.08869L11.2718 10.7133L12.359 11.8004L13.9843 10.1758C15.7829 8.37645 15.7829 5.45006 13.9843 3.65145C13.1126 2.77974 11.9565 2.2998 10.7244 2.2998C9.49237 2.2998 8.33009 2.77974 7.45839 3.65145L1.34954 9.75953C-0.449845 11.5581 -0.449845 14.4853 1.34954 16.2839C2.24884 17.184 3.40959 17.6333 4.59103 17.6333C5.77324 17.6333 6.97538 17.184 7.87469 16.2839L6.78755 15.1968C5.5877 16.3959 3.63576 16.3959 2.43668 15.1968Z" fill="white"/>
</svg>
