<svg width="32" height="32" version="1.1" viewBox="0 0 32 32" xml:space="preserve" xmlns="http://www.w3.org/2000/svg"><defs><style>.cls-1{fill:none;stroke-linecap:round;stroke-linejoin:round;stroke-width:2px;}</style></defs><path d="m11.714 4v3.4286h1.7143v-3.4286zm-5.1429 1.3594-1.2121 1.2121 2.9263 2.9247 1.2121-1.2104zm14.603 0.35826c-1.3371 0-2.6772 0.51255-3.7014 1.5368l-3.1875 3.1858 1.2121 1.2121 3.1875-3.1858c1.3629-1.3629 3.5588-1.384 4.8951-0.046875 1.3371 1.3363 1.3151 3.5331-0.04688 4.8951l-3.1875 3.1875 1.2121 1.2121 3.1875-3.1875c2.0306-2.0314 2.0526-5.3143 0.046879-7.3192-0.99343-0.99428-2.3037-1.4908-3.6177-1.49zm-17.175 5.9967v1.7143h3.4286v-1.7143zm6.4403 2.5698-3.1875 3.1892c-2.0306 2.0306-2.0509 5.3135-0.0452 7.3192 0.99343 0.99343 2.3021 1.49 3.6161 1.49 1.3371 0 2.6788-0.51255 3.7031-1.5368l3.1875-3.1875-1.2137-1.2121-3.1858 3.1875c-1.3629 1.3629-3.5588 1.384-4.8951 0.04688-1.3371-1.3371-1.3168-3.5322 0.045201-4.8951l3.1875-3.1875zm14.131 4.2874v1.7143h3.4286v-1.7143zm-0.85714 3.9275-1.2137 1.2137 2.928 2.928 1.2137-1.2121zm-5.1429 2.0725v3.4286h1.7143v-3.4286z"/></svg>
