<svg width="30" height="23" viewBox="0 0 30 23" fill="none" xmlns="http://www.w3.org/2000/svg">
<path fill-rule="evenodd" clip-rule="evenodd" d="M28.2418 1.75875C25.8978 -0.58625 22.0818 -0.58625 19.7378 1.75875L21.1547 3.17575C22.7177 1.61275 25.2618 1.61275 26.8248 3.17575C28.3878 4.73875 28.3878 7.28275 26.8248 8.84475L18.8457 16.8248C17.2827 18.3868 14.7387 18.3868 13.1758 16.8248C11.6128 15.2618 11.6128 12.7177 13.1758 11.1547L14.5938 9.73775L13.1758 8.32075L11.7587 9.73775C9.41375 12.0828 9.41375 15.8968 11.7587 18.2418C12.9297 19.4138 14.4488 19.9998 15.9887 19.9998C17.5287 19.9998 19.0907 19.4138 20.2627 18.2418L28.2418 10.2627C30.5858 7.91775 30.5858 4.10375 28.2418 1.75875" fill="white"/>
<path fill-rule="evenodd" clip-rule="evenodd" d="M3.17825 19.8218C1.61425 18.2578 1.61425 15.7128 3.17825 14.1478L11.1473 6.18076C12.7113 4.61676 15.2573 4.61676 16.8223 6.18076C17.5793 6.93876 17.9883 7.92876 17.9883 8.99976C17.9883 10.0708 17.5793 11.0968 16.8223 11.8548L14.7022 13.9738L16.1203 15.3918L18.2402 13.2728C20.5862 10.9258 20.5862 7.10876 18.2402 4.76276C17.1032 3.62576 15.5952 2.99976 13.9882 2.99976C12.3812 2.99976 10.8652 3.62576 9.72825 4.76276L1.76025 12.7298C-0.58675 15.0758 -0.58675 18.8938 1.76025 21.2398C2.93325 22.4138 4.44725 22.9998 5.98825 22.9998C7.53025 22.9998 9.09825 22.4138 10.2712 21.2398L8.85325 19.8218C7.28825 21.3858 4.74225 21.3858 3.17825 19.8218" fill="white"/>
</svg>
