<svg width="42" height="25" viewBox="0 0 42 25" fill="none" xmlns="http://www.w3.org/2000/svg">
<path fill-rule="evenodd" clip-rule="evenodd" d="M2 2.7932V21.3242L18 12.0592L2 2.7932ZM1 24.0592C0.828 24.0592 0.655 24.0142 0.5 23.9252C0.191 23.7462 0 23.4162 0 23.0592V1.0592C0 0.701204 0.191 0.371204 0.5 0.192204C0.811 0.0152041 1.192 0.0142041 1.501 0.193204L20.501 11.1932C20.81 11.3722 21 11.7022 21 12.0592C21 12.4152 20.81 12.7452 20.501 12.9242L1.501 23.9242C1.346 24.0142 1.173 24.0592 1 24.0592V24.0592Z" fill="white"/>
<path fill-rule="evenodd" clip-rule="evenodd" d="M23 2.734V21.265L39 12L23 2.734ZM22 24C21.828 24 21.655 23.955 21.5 23.866C21.191 23.687 21 23.357 21 23V1C21 0.642 21.191 0.312 21.5 0.133C21.811 -0.044 22.192 -0.045 22.501 0.134L41.501 11.134C41.81 11.313 42 11.643 42 12C42 12.356 41.81 12.686 41.501 12.865L22.501 23.865C22.346 23.955 22.173 24 22 24V24Z" fill="white"/>
</svg>
