<svg width="28" height="28" viewBox="0 0 28 28" fill="none" xmlns="http://www.w3.org/2000/svg">
<path fill-rule="evenodd" clip-rule="evenodd" d="M25.1602 6.07104L23.6302 7.36104C26.8822 11.214 26.7582 16.884 23.3402 20.591L24.8102 21.991C28.9142 17.543 29.0642 10.735 25.1602 6.11104V6.07104Z" fill="white"/>
<path fill-rule="evenodd" clip-rule="evenodd" d="M19.5801 9.99099C21.5311 12.304 21.4541 15.709 19.4001 17.931L20.8701 19.291C23.6071 16.324 23.7061 11.783 21.1001 8.70099L19.5801 9.99099Z" fill="white"/>
<path fill-rule="evenodd" clip-rule="evenodd" d="M2 17.991H8.08C8.347 17.992 8.603 18.1 8.79 18.291L15 24.561V3.421L8.79 9.691C8.603 9.882 8.347 9.99 8.08 9.991H2V17.991ZM16 27.991C15.733 27.99 15.477 27.882 15.29 27.691L7.67 19.991H1C0.448 19.991 0 19.543 0 18.991V8.991C0 8.439 0.448 7.991 1 7.991H7.67L15.29 0.291C15.68 -0.097 16.31 -0.097 16.7 0.291C16.888 0.476 16.996 0.727 17 0.991V26.991C17 27.543 16.552 27.991 16 27.991V27.991Z" fill="white"/>
</svg>
