<svg width="41" height="25" viewBox="0 0 41 25" fill="none" xmlns="http://www.w3.org/2000/svg">
<path fill-rule="evenodd" clip-rule="evenodd" d="M3 11.9997L19 21.2657V2.73375L3 11.9997ZM20 23.9998C19.827 23.9998 19.654 23.9547 19.499 23.8647L0.499 12.8647C0.19 12.6867 0 12.3558 0 11.9998C0 11.6438 0.19 11.3128 0.499 11.1348L19.499 0.13475C19.808 -0.04525 20.189 -0.04425 20.5 0.13375C20.809 0.31175 21 0.64275 21 0.99975V22.9998C21 23.3568 20.809 23.6877 20.5 23.8657C20.345 23.9547 20.172 23.9998 20 23.9998V23.9998Z" fill="white"/>
<path fill-rule="evenodd" clip-rule="evenodd" d="M23 12.9997L39 22.2657V3.73375L23 12.9997ZM40 24.9998C39.827 24.9998 39.654 24.9547 39.499 24.8647L20.499 13.8647C20.19 13.6867 20 13.3558 20 12.9998C20 12.6438 20.19 12.3128 20.499 12.1348L39.499 1.13475C39.808 0.95475 40.189 0.95575 40.5 1.13375C40.809 1.31175 41 1.64275 41 1.99975V23.9998C41 24.3568 40.809 24.6877 40.5 24.8657C40.345 24.9547 40.172 24.9998 40 24.9998V24.9998Z" fill="white"/>
</svg>
