<svg width="32" height="32" version="1.1" viewBox="0 0 32 32" xml:space="preserve" xmlns="http://www.w3.org/2000/svg"><path d="m16 4c-6.624 0-12 5.376-12 12 0 6.624 5.376 12 12 12 6.624 0 12-5.376 12-12 0-6.624-5.376-12-12-12zm0 2.3997c5.292 0 9.6003 4.3083 9.6003 9.6003 0 5.292-4.3083 9.599-9.6003 9.599s-9.6003-4.307-9.6003-9.599c0-5.292 4.3083-9.6003 9.6003-9.6003zm-0.17969 4.332c-2.652 0-4.6198 1.6682-4.6198 5.4362 0 2.328 1.1161 5.0872 4.6081 5.0872 2.664 0 4.0916-1.9791 4.1276-3.5391h-2.1484c-0.036 0.708-0.53973 1.6559-1.9557 1.7279-1.572-0.048-2.2318-1.272-2.2318-3.276 0-3.468 1.5365-3.5763 2.2565-3.6003 1.536 0.072 1.9317 1.3802 1.9557 1.9922h2.1484c-0.096-2.376-1.7886-3.8281-4.1406-3.8281z"/></svg>
