<svg width="32" height="32" version="1.1" viewBox="0 0 32 32" xml:space="preserve" xmlns="http://www.w3.org/2000/svg"><defs><style>.cls-1{fill:none;stroke-linecap:round;stroke-linejoin:round;stroke-width:2px;}</style></defs><path d="m28 15.143h-5.2029c-0.19223-1.5083-0.87989-2.91-1.955-3.9852-1.0751-1.0752-2.4768-1.763-3.985-1.9554v-5.2023h-1.7143v5.2023c-1.5083 0.19241-2.9099 0.88019-3.985 1.9554-1.0751 1.0752-1.7627 2.4769-1.955 3.9852h-5.2029v1.7143h5.2029c0.19226 1.5082 0.8799 2.9101 1.955 3.9853 1.0751 1.0752 2.4768 1.763 3.985 1.9553v5.2023h1.7143v-5.2023c1.5083-0.19234 2.9101-0.88 3.9853-1.9552s1.7629-2.477 1.9552-3.9854h5.2024zm-12 6c-1.0171 0-2.0115-0.3016-2.8572-0.86674-0.84574-0.56514-1.5049-1.3683-1.8942-2.308-0.38924-0.93977-0.4911-1.9738-0.29265-2.9714 0.19843-0.99762 0.68824-1.914 1.4075-2.6332 0.71924-0.71925 1.6356-1.2091 2.6332-1.4075 0.9976-0.19845 2.0317-0.09659 2.9714 0.29265 0.93966 0.38926 1.7429 1.0484 2.308 1.8942 0.56514 0.84574 0.86674 1.8401 0.86674 2.8572-0.0015 1.3635-0.54377 2.6707-1.508 3.6349-0.96412 0.96423-2.2713 1.5065-3.6349 1.508z"/></svg>
