<svg width="32" height="32" version="1.1" viewBox="0 0 32 32" xml:space="preserve" xmlns="http://www.w3.org/2000/svg"><path d="m13.545 6.8905 0.14775-0.4246c-1.88e-4 5.531e-4 -1.7e-5 2.371e-4 6.12e-4 -8.691e-4 0.0056-0.00991 0.04728-0.083374 0.18166-0.16658 0.14204-0.08796 0.30115-0.1308 0.42273-0.1308h3.4005c0.12171 0 0.28089 0.042857 0.42274 0.13071 0.13466 0.083349 0.17614 0.15695 0.18163 0.16668v2.57e-5c5.93e-4 0.00104 7.9e-4 0.00134 5.93e-4 8.197e-4l0.14777 0.4246zm-2.3852 0 0.38626-1.1101c0.20166-0.57954 0.64246-1.0187 1.1005-1.3024 0.46541-0.28821 1.0456-0.47803 1.6512-0.47803h3.4005c0.6054 0 1.1855 0.18964 1.651 0.47786 0.45823 0.28369 0.89897 0.72293 1.1007 1.3026l0.38623 1.1101h3.4601c0.62486 0 1.1314 0.48525 1.1314 1.0838 0 0.59859-0.50657 1.0838-1.1314 1.0838h-16.593c-0.62485 0-1.1314-0.48525-1.1314-1.0838 0-0.59859 0.50655-1.0838 1.1314-1.0838zm-3.5276 4.6994c0.62359-0.03807 1.1613 0.41534 1.2011 1.0127l1.2739 13.074 0.0012 0.02057s5.53e-4 0.0078 0.0063 0.01877c0.0062 0.01191 0.01877 0.02974 0.04109 0.04886 0.04645 0.03986 0.11447 0.06789 0.19063 0.06789h11.313c0.0762 0 0.14443-0.02803 0.19089-0.0678 0.04603-0.03926 0.04714-0.06771 0.04714-0.06771l1.2691-13.074c0.02786-0.59799 0.55646-1.0611 1.1807-1.0344 0.62426 0.02671 1.1077 0.53313 1.0798 1.1311l-1.2692 13.074c-0.06026 1.2934-1.2427 2.2065-2.4986 2.2065h-11.313c-1.2562 0-2.4312-0.91192-2.498-2.1945l-1.2733-13.065c-0.039737-0.59734 0.43357-1.1125 1.0572-1.1505z" clip-rule="evenodd" fill-rule="evenodd"/></svg>
