<svg width="32" height="32" viewBox="0 0 32 32" xmlns="http://www.w3.org/2000/svg">
<path d="M23 12C24.1046 12 25 11.1046 25 10C25 8.89543 24.1046 8 23 8C21.8954 8 21 8.89543 21 10C21 11.1046 21.8954 12 23 12Z"  stroke-width="2" stroke-linecap="round" stroke-linejoin="round"/>
<path d="M21.2 9.18L12 5L3 14L8 29H22L29 20L24.03 11.72" stroke-width="2" stroke-linecap="round" stroke-linejoin="round" fill="none"/>
<path d="M20.2929 14.05L15.6964 18.6464L15.3429 19L15.6964 19.3536L20.2929 23.95L19.95 24.2929L15.3536 19.6964L15 19.3429L14.6464 19.6964L10.05 24.2929L9.70711 23.95L14.3036 19.3536L14.6571 19L14.3036 18.6464L9.70711 14.05L10.05 13.7071L14.6464 18.3036L15 18.6571L15.3536 18.3036L19.95 13.7071L20.2929 14.05Z" fill="black" />
</svg>
