<svg width="24" height="24" viewBox="0 0 24 24" fill="none" xmlns="http://www.w3.org/2000/svg">
<path fill-rule="evenodd" clip-rule="evenodd" d="M9.90704 5.69429L9.90704 5.69428C9.91092 5.68747 9.93963 5.63698 10.0323 5.57979C10.1302 5.51933 10.2399 5.48989 10.3237 5.48989H12.6678C12.7518 5.48989 12.8615 5.51934 12.9593 5.57973C13.0521 5.63702 13.0807 5.68761 13.0845 5.6943C13.0849 5.69502 13.085 5.69523 13.0849 5.69488L13.187 5.98726H9.80458L9.90662 5.69488C9.90649 5.69526 9.90661 5.69504 9.90704 5.69429ZM8.16029 5.98726L8.42676 5.22373C8.56577 4.8254 8.86965 4.52352 9.18542 4.32856C9.50626 4.13047 9.90622 4 10.3237 4H12.6678C13.0852 4 13.4851 4.13035 13.806 4.32845C14.1219 4.52344 14.4257 4.82534 14.5648 5.22373L14.8313 5.98726H17.2187C17.6494 5.98726 17.9986 6.32078 17.9986 6.7322C17.9986 7.14362 17.6494 7.47715 17.2187 7.47715H5.77996C5.3492 7.47715 5 7.14362 5 6.7322C5 6.32078 5.3492 5.98726 5.77996 5.98726H8.16029ZM5.73174 9.21667C6.16163 9.19051 6.53233 9.50215 6.55972 9.91274L7.4379 18.8986L7.4387 18.9127C7.4387 18.9127 7.43908 18.9181 7.44304 18.9256C7.44734 18.9339 7.45598 18.9461 7.47137 18.9593C7.50338 18.9866 7.55028 19.0059 7.60278 19.0059H15.402C15.4544 19.0059 15.5015 18.9866 15.5335 18.9593C15.5652 18.9323 15.566 18.9127 15.566 18.9127L16.4409 9.92674C16.4602 9.51573 16.8246 9.19742 17.2549 9.21578C17.6852 9.23413 18.0185 9.5822 17.9993 9.99322L17.1244 18.9792C17.0828 19.8682 16.2677 20.4958 15.402 20.4958H7.60278C6.7368 20.4958 5.92678 19.869 5.88075 18.9874L5.00297 10.0075C4.97557 9.5969 5.30186 9.24284 5.73174 9.21667Z" fill="#FAFAFA"/>
</svg>
