<svg width="32" height="33" viewBox="0 0 32 33" fill="none" xmlns="http://www.w3.org/2000/svg">
<path d="M6 9.00439V24.0044C6 25.3305 6.52678 26.6022 7.46447 27.5399C8.40215 28.4776 9.67392 29.0044 11 29.0044C12.3261 29.0044 13.5979 28.4776 14.5355 27.5399C15.4732 26.6022 16 25.3305 16 24.0044V8.00439C16 6.67831 16.5268 5.40654 17.4645 4.46886C18.4021 3.53118 19.6739 3.00439 21 3.00439C22.3261 3.00439 23.5979 3.53118 24.5355 4.46886C25.4732 5.40654 26 6.67831 26 8.00439V23.0044"  stroke-width="2" stroke-linecap="round" stroke-linejoin="round" fill="none"/>
<path d="M26 27.0044C27.1046 27.0044 28 26.109 28 25.0044C28 23.8998 27.1046 23.0044 26 23.0044C24.8954 23.0044 24 23.8998 24 25.0044C24 26.109 24.8954 27.0044 26 27.0044Z"  stroke-width="2" stroke-linecap="round" stroke-linejoin="round"/>
<path d="M6 9.00439C7.10457 9.00439 8 8.10896 8 7.00439C8 5.89982 7.10457 5.00439 6 5.00439C4.89543 5.00439 4 5.89982 4 7.00439C4 8.10896 4.89543 9.00439 6 9.00439Z"  stroke-width="2" stroke-linecap="round" stroke-linejoin="round"/>
<path d="M21.2929 11.0544L16.6964 15.6508L16.3429 16.0044L16.6964 16.3579L21.2929 20.9544L20.95 21.2973L16.3536 16.7008L16 16.3473L15.6464 16.7008L11.05 21.2973L10.7071 20.9544L15.3036 16.3579L15.6571 16.0044L15.3036 15.6508L10.7071 11.0544L11.05 10.7115L15.6464 15.3079L16 15.6615L16.3536 15.3079L20.95 10.7115L21.2929 11.0544Z" fill="black"/>
</svg>
