<svg width="22" height="18" viewBox="0 0 22 18" fill="none" xmlns="http://www.w3.org/2000/svg">
<path fill-rule="evenodd" clip-rule="evenodd" d="M3.92858 4.12269L1.24609 1.92862L2.35712 1.02026L5.03961 3.21433L3.92858 4.12269Z" fill="white"/>
<path fill-rule="evenodd" clip-rule="evenodd" d="M19.6442 16.9818L16.9609 14.7858L18.0727 13.8755L20.7568 16.0721L19.6442 16.9818Z" fill="white"/>
<path fill-rule="evenodd" clip-rule="evenodd" d="M7.07275 2.57143H8.64422V0H7.07275V2.57143Z" fill="white"/>
<path fill-rule="evenodd" clip-rule="evenodd" d="M0 7.07111H3.14293V5.7854H0V7.07111Z" fill="white"/>
<path fill-rule="evenodd" clip-rule="evenodd" d="M18.8569 12.2144H21.9999V10.9287H18.8569V12.2144Z" fill="white"/>
<path fill-rule="evenodd" clip-rule="evenodd" d="M13.3569 17.9999H14.9284V15.4285H13.3569V17.9999Z" fill="white"/>
<path fill-rule="evenodd" clip-rule="evenodd" d="M11.4613 12.2609L8.53992 14.651C7.29061 15.6732 5.27756 15.6892 4.05261 14.6864C2.82687 13.6835 2.84651 12.0365 4.09504 11.0144L7.01639 8.62424L5.90536 7.7146L2.98401 10.1054C1.12261 11.6283 1.10297 14.0911 2.94158 15.5954C3.85224 16.3405 5.05206 16.7127 6.25658 16.7127C7.48232 16.7127 8.71199 16.3282 9.65094 15.56L12.5731 13.1699L11.4613 12.2609Z" fill="white"/>
<path fill-rule="evenodd" clip-rule="evenodd" d="M10.5407 5.74085L13.4621 3.3507C14.7114 2.32856 16.7244 2.31249 17.9494 3.31535C19.1751 4.31756 19.1555 5.9652 17.9069 6.9867L14.9856 9.37749L16.0966 10.2865L19.018 7.89634C20.8794 6.37277 20.899 3.90999 19.0604 2.40635C18.1497 1.66063 16.9499 1.28842 15.7454 1.28906C14.5197 1.28906 13.29 1.67349 12.351 2.44171L9.42969 4.83185L10.5407 5.74085Z" fill="white"/>
</svg>
