<svg width="33" height="32" viewBox="0 0 33 32" fill="none" xmlns="http://www.w3.org/2000/svg">
<path d="M20.4998 23H12.3598C12.2608 22.6493 12.1162 22.3131 11.9298 22L22.4998 11.43C23.1018 11.7994 23.7935 11.9965 24.4998 12C25.2485 12.0024 25.9828 11.7947 26.6193 11.4004C27.2557 11.0061 27.7688 10.4411 28.1 9.76973C28.4312 9.0983 28.5674 8.34739 28.493 7.60241C28.4186 6.85744 28.1365 6.1483 27.679 5.55567C27.2215 4.96304 26.6069 4.5107 25.905 4.25012C25.2031 3.98953 24.4422 3.93116 23.7088 4.08165C22.9754 4.23213 22.2989 4.58542 21.7564 5.10134C21.2138 5.61726 20.827 6.27508 20.6398 6.99999H12.3598C12.1164 6.05734 11.5376 5.2358 10.7318 4.68939C9.92601 4.14298 8.94861 3.9092 7.9828 4.03188C7.01699 4.15455 6.12907 4.62526 5.48548 5.35576C4.84189 6.08627 4.48682 7.02642 4.48682 7.99999C4.48682 8.97357 4.84189 9.91372 5.48548 10.6442C6.12907 11.3747 7.01699 11.8454 7.9828 11.9681C8.94861 12.0908 9.92601 11.857 10.7318 11.3106C11.5376 10.7642 12.1164 9.94265 12.3598 8.99999H20.6398C20.7388 9.35068 20.8834 9.68688 21.0698 9.99999L10.4998 20.57C9.89783 20.2006 9.20606 20.0034 8.4998 20C7.75112 19.9976 7.01678 20.2053 6.38033 20.5996C5.74387 20.9939 5.23084 21.5588 4.8996 22.2303C4.56837 22.9017 4.43221 23.6526 4.50663 24.3976C4.58105 25.1426 4.86306 25.8517 5.32057 26.4443C5.77808 27.037 6.39273 27.4893 7.09461 27.7499C7.79648 28.0105 8.5574 28.0688 9.2908 27.9183C10.0242 27.7679 10.7007 27.4146 11.2432 26.8986C11.7858 26.3827 12.1726 25.7249 12.3598 25H20.4998V28H28.4998V20H20.4998V23ZM8.4998 9.99999C8.10424 9.99999 7.71756 9.8827 7.38866 9.66293C7.05976 9.44317 6.80342 9.13081 6.65204 8.76536C6.50067 8.39991 6.46106 7.99778 6.53823 7.60981C6.6154 7.22185 6.80588 6.86549 7.08559 6.58578C7.36529 6.30608 7.72166 6.11559 8.10962 6.03842C8.49758 5.96125 8.89971 6.00086 9.26517 6.15224C9.63062 6.30361 9.94298 6.55996 10.1627 6.88885C10.3825 7.21775 10.4998 7.60443 10.4998 7.99999C10.4998 8.53043 10.2891 9.03913 9.91401 9.41421C9.53894 9.78928 9.03023 9.99999 8.4998 9.99999ZM24.4998 5.99999C24.8954 5.99999 25.282 6.11729 25.6109 6.33706C25.9398 6.55682 26.1962 6.86917 26.3476 7.23463C26.4989 7.60008 26.5385 8.00221 26.4614 8.39017C26.3842 8.77814 26.1937 9.1345 25.914 9.41421C25.6343 9.69391 25.2779 9.88439 24.89 9.96157C24.502 10.0387 24.0999 9.99913 23.7344 9.84775C23.369 9.69638 23.0566 9.44003 22.8369 9.11113C22.6171 8.78224 22.4998 8.39556 22.4998 7.99999C22.4998 7.46956 22.7105 6.96085 23.0856 6.58578C23.4607 6.21071 23.9694 5.99999 24.4998 5.99999ZM8.4998 26C8.10424 26 7.71756 25.8827 7.38866 25.6629C7.05976 25.4432 6.80342 25.1308 6.65204 24.7654C6.50067 24.3999 6.46106 23.9978 6.53823 23.6098C6.6154 23.2219 6.80588 22.8655 7.08559 22.5858C7.36529 22.3061 7.72166 22.1156 8.10962 22.0384C8.49758 21.9613 8.89971 22.0009 9.26517 22.1522C9.63062 22.3036 9.94298 22.56 10.1627 22.8889C10.3825 23.2178 10.4998 23.6044 10.4998 24C10.4998 24.5304 10.2891 25.0391 9.91401 25.4142C9.53894 25.7893 9.03023 26 8.4998 26ZM22.4998 22H26.4998V26H22.4998V22Z" fill="white"/>
</svg>
