<svg viewBox="0 0 24 24" fill="none" xmlns="http://www.w3.org/2000/svg">
<path fill-rule="evenodd" clip-rule="evenodd" d="M11.9996 22.2857C6.32787 22.2857 1.71387 17.6717 1.71387 12C1.71387 6.32829 6.32787 1.71429 11.9996 1.71429C17.6713 1.71429 22.2853 6.32829 22.2853 12C22.2853 17.6717 17.6713 22.2857 11.9996 22.2857ZM12 0C5.38286 0 0 5.38286 0 12C0 18.6171 5.38286 24 12 24C18.6171 24 24 18.6171 24 12C24 5.38286 18.6171 0 12 0Z" />
<path fill-rule="evenodd" clip-rule="evenodd" d="M11.1426 14.5781H12.8569V5.14954H11.1426V14.5781Z" />
<path fill-rule="evenodd" clip-rule="evenodd" d="M11.9996 17.1428C11.289 17.1428 10.7139 17.718 10.7139 18.4285C10.7139 19.1391 11.289 19.7143 11.9996 19.7143C12.7102 19.7143 13.2853 19.1391 13.2853 18.4285C13.2853 17.718 12.7102 17.1428 11.9996 17.1428Z" />
</svg>
