<svg width="26" height="26" viewBox="0 0 26 26" fill="none" xmlns="http://www.w3.org/2000/svg">
<path fill-rule="evenodd" clip-rule="evenodd" d="M9 7H3.785C7.097 1.909 13.909 0.467 19 3.779C22.12 5.809 24.001 9.278 24 13H26C25.997 5.818 20.182 -0.00199948 13 5.15309e-07C9.14 0.00100052 5.47 1.718 3 4.685V1H1V9H9V7Z" fill="black"/>
<path fill-rule="evenodd" clip-rule="evenodd" d="M17 19H22.215C18.903 24.091 12.091 25.533 7 22.221C3.88 20.191 1.999 16.722 2 13H0C0.002 20.182 5.817 26.002 13 26C16.86 25.999 20.53 24.282 23 21.315V25H25V17H17V19Z" fill="black"/>
<path fill-rule="evenodd" clip-rule="evenodd" d="M16.5545 15.0858L15.4183 14.7132C15.1521 14.9305 14.8447 15.1006 14.5185 15.216L14.2827 16.3574H12.7178L12.4824 15.216C12.1588 15.1015 11.8515 14.9247 11.5889 14.711L10.446 15.0858L9.66357 13.7718L10.567 13.002C10.506 12.6667 10.5037 12.3324 10.5647 11.9965L9.66357 11.2286L10.4464 9.91464L11.5823 10.2872C11.8488 10.0699 12.1558 9.89985 12.4824 9.78446L12.7178 8.64307H14.2827L14.5185 9.78446C14.8417 9.89889 15.1491 10.0757 15.4117 10.2894L16.5545 9.91464L17.3373 11.2286L16.4335 11.9985C16.4945 12.3334 16.4972 12.668 16.4361 13.0039L17.3373 13.7718L16.5545 15.0858ZM17.1344 12.743C17.1401 12.6623 17.147 12.582 17.147 12.5C17.147 12.4171 17.1437 12.3351 17.1378 12.2538L17.7747 11.7112C18.0121 11.509 18.0691 11.1722 17.9113 10.907L17.1285 9.593C17.0075 9.38954 16.786 9.27125 16.5542 9.27125C16.4836 9.27125 16.4117 9.2825 16.3417 9.30532L15.5347 9.57018C15.3961 9.47954 15.2509 9.39789 15.0997 9.32621L14.933 8.51654C14.871 8.21632 14.5987 8 14.2824 8H12.7175C12.4016 8 12.129 8.21632 12.0674 8.51654L11.9003 9.32621C11.7481 9.39854 11.5999 9.47729 11.4603 9.56857L10.6583 9.30532C10.5883 9.2825 10.5167 9.27125 10.4458 9.27125C10.214 9.27125 9.99252 9.38954 9.87151 9.593L9.08872 10.907C8.9309 11.1722 8.98793 11.509 9.22565 11.7112L9.86554 12.2567C9.8599 12.3374 9.85294 12.4177 9.85294 12.5C9.85294 12.5826 9.85626 12.6649 9.86222 12.7459L9.22565 13.2885C8.98793 13.491 8.9309 13.8275 9.08872 14.093L9.87151 15.407C9.99252 15.6105 10.214 15.7284 10.4458 15.7284C10.5167 15.7284 10.5883 15.7175 10.6583 15.6947L11.4653 15.4298C11.6039 15.5205 11.7491 15.6018 11.9003 15.6738L12.0674 16.4831C12.129 16.7837 12.4016 17 12.7175 17H14.2824C14.5987 17 14.871 16.7837 14.933 16.4831L15.0997 15.6738C15.2519 15.6015 15.4004 15.5227 15.5397 15.4314L16.3417 15.6947C16.4117 15.7175 16.4836 15.7284 16.5542 15.7284C16.786 15.7284 17.0075 15.6105 17.1285 15.407L17.9113 14.093C18.0691 13.8275 18.0121 13.491 17.7747 13.2885L17.1344 12.743Z" fill="black"/>
<path fill-rule="evenodd" clip-rule="evenodd" d="M13.5003 11.2144C12.7444 11.2144 12.1741 11.7672 12.1741 12.5001C12.1741 13.2329 12.7444 13.7858 13.5003 13.7858C14.2562 13.7858 14.8265 13.2329 14.8265 12.5001C14.8265 11.7672 14.2562 11.2144 13.5003 11.2144M13.4994 14.4284C12.3841 14.4284 11.5101 13.5811 11.5101 12.4999C11.5101 11.4186 12.3841 10.5713 13.4994 10.5713C14.6148 10.5713 15.4887 11.4186 15.4887 12.4999C15.4887 13.5811 14.6148 14.4284 13.4994 14.4284" fill="black"/>
</svg>
