<svg width="32" height="32" version="1.1" viewBox="0 0 32 32" xml:space="preserve" xmlns="http://www.w3.org/2000/svg"><defs><style>.cls-1{fill:none;stroke-linecap:round;stroke-linejoin:round;stroke-width:2px;}</style></defs><path d="m5.3333 4.4444c-0.35362 0-0.69266 0.14058-0.94271 0.39062-0.25005 0.25005-0.39062 0.58909-0.39062 0.94271v9.3333h1.3333v-9.3333h9.3333v-1.3333zm5.3333 4.4444c-0.35362 0-0.69266 0.14058-0.94271 0.39062-0.25004 0.25004-0.39062 0.58909-0.39062 0.94271v9.3333h1.3333v-9.3333h9.3333v-1.3333zm4 4c-0.3536 0-0.69266 0.14058-0.94271 0.39062-0.25004 0.25001-0.39062 0.58911-0.39062 0.94271v12c0 0.3536 0.14058 0.69266 0.39062 0.94271 0.25004 0.25004 0.58911 0.39062 0.94271 0.39062h12c0.3536 0 0.69266-0.14058 0.94271-0.39062 0.25004-0.25004 0.39062-0.58911 0.39062-0.94271v-12c0-0.3536-0.14058-0.6927-0.39062-0.94271-0.25004-0.25004-0.58911-0.39062-0.94271-0.39062zm0 1.3333h12v12h-12zm3.0677 3.3333c-0.28276 3.56e-4 -0.55356 0.1125-0.75347 0.3125-0.2 0.19991-0.31388 0.47072-0.31424 0.75347v3.1997c3.55e-4 0.28276 0.11424 0.5553 0.31424 0.75521 0.19991 0.2 0.47072 0.31214 0.75347 0.3125h4.2656c0.28275-3.55e-4 0.5553-0.1125 0.75521-0.3125 0.2-0.19991 0.31214-0.47245 0.3125-0.75521v-0.63889l2.1337 1.1736v-4.2674l-2.1337 1.1736v-0.64063c-3.55e-4 -0.28276-0.1125-0.55356-0.3125-0.75347-0.19991-0.2-0.47245-0.31214-0.75521-0.3125zm0 1.066h4.2656l0.0018 3.1997h-4.2674z"/></svg>
