<svg width="32" height="32" version="1.1" viewBox="0 0 32 32" xml:space="preserve" xmlns="http://www.w3.org/2000/svg"><path d="m10.646 4-5.5762 5.3398c-0.023265 1.377e-4 -0.047057-1.412e-4 -0.070312 0v0.066406l-1 0.95898 1.0117 0.95117v0.02344c0.0084-5.1e-5 0.016992 5e-5 0.025391 0l5.5586 5.2266 1.3711-1.459-4.0176-3.7773c6.6926-0.007283 13.671 0.07561 20.051-0.029299l-0.0332-1.998c-6.3316 0.10412-13.291 0.020414-19.996 0.027344l4.0586-3.8848zm10.707 11.467-1.3828 1.4453 4.0586 3.8848c-6.7044-0.0069-13.665 0.07676-19.996-0.02734l-0.033203 1.998c6.3798 0.10491 13.358 0.02202 20.051 0.0293l-4.0176 3.7773 1.3711 1.459 5.5586-5.2266c0.0084 5e-5 0.01699-5.1e-5 0.02539 0v-0.02344l1.0117-0.95117-1-0.95898v-0.06641c-0.02327-1.42e-4 -0.04703 1.38e-4 -0.07031 0z" color="#000000" style="-inkscape-stroke:none"/></svg>
