<svg width="17" height="17" viewBox="0 0 17 17" fill="none" xmlns="http://www.w3.org/2000/svg">
<path d="M5.5 0H1.375C1.01033 0 0.660591 0.144866 0.402728 0.402728C0.144866 0.660591 0 1.01033 0 1.375V5.5C0 5.86467 0.144866 6.21441 0.402728 6.47227C0.660591 6.73013 1.01033 6.875 1.375 6.875H5.5C5.86467 6.875 6.21441 6.73013 6.47227 6.47227C6.73013 6.21441 6.875 5.86467 6.875 5.5V1.375C6.875 1.01033 6.73013 0.660591 6.47227 0.402728C6.21441 0.144866 5.86467 0 5.5 0V0ZM5.5 5.5H1.375V1.375H5.5V5.5Z" fill="black"/>
<path d="M15.125 0H11C10.6353 0 10.2856 0.144866 10.0277 0.402728C9.76987 0.660591 9.625 1.01033 9.625 1.375V5.5C9.625 5.86467 9.76987 6.21441 10.0277 6.47227C10.2856 6.73013 10.6353 6.875 11 6.875H15.125C15.4897 6.875 15.8394 6.73013 16.0973 6.47227C16.3551 6.21441 16.5 5.86467 16.5 5.5V1.375C16.5 1.01033 16.3551 0.660591 16.0973 0.402728C15.8394 0.144866 15.4897 0 15.125 0V0ZM15.125 5.5H11V1.375H15.125V5.5Z" fill="black"/>
<path d="M5.5 9.625H1.375C1.01033 9.625 0.660591 9.76987 0.402728 10.0277C0.144866 10.2856 0 10.6353 0 11V15.125C0 15.4897 0.144866 15.8394 0.402728 16.0973C0.660591 16.3551 1.01033 16.5 1.375 16.5H5.5C5.86467 16.5 6.21441 16.3551 6.47227 16.0973C6.73013 15.8394 6.875 15.4897 6.875 15.125V11C6.875 10.6353 6.73013 10.2856 6.47227 10.0277C6.21441 9.76987 5.86467 9.625 5.5 9.625ZM5.5 15.125H1.375V11H5.5V15.125Z" fill="black"/>
<path d="M15.125 9.625H11C10.6353 9.625 10.2856 9.76987 10.0277 10.0277C9.76987 10.2856 9.625 10.6353 9.625 11V15.125C9.625 15.4897 9.76987 15.8394 10.0277 16.0973C10.2856 16.3551 10.6353 16.5 11 16.5H15.125C15.4897 16.5 15.8394 16.3551 16.0973 16.0973C16.3551 15.8394 16.5 15.4897 16.5 15.125V11C16.5 10.6353 16.3551 10.2856 16.0973 10.0277C15.8394 9.76987 15.4897 9.625 15.125 9.625ZM15.125 15.125H11V11H15.125V15.125Z" fill="black"/>
</svg>
