<svg width="24" height="24" viewBox="0 0 24 24" fill="none" xmlns="http://www.w3.org/2000/svg">
<path fill-rule="evenodd" clip-rule="evenodd" d="M12 20.5714C7.26643 20.5714 3.42857 16.7336 3.42857 12C3.42857 7.26643 7.26643 3.42857 12 3.42857C16.7336 3.42857 20.5714 7.26643 20.5714 12C20.5714 16.7336 16.7336 20.5714 12 20.5714ZM12 2C6.47714 2 2 6.47714 2 12C2 17.5229 6.47714 22 12 22C17.5229 22 22 17.5229 22 12C22 6.47714 17.5229 2 12 2Z" fill="white"/>
<path fill-rule="evenodd" clip-rule="evenodd" d="M12.0001 16.2857C12.5923 16.2857 13.0716 16.765 13.0716 17.3571C13.0716 17.9493 12.5923 18.4286 12.0001 18.4286C11.408 18.4286 10.9287 17.9493 10.9287 17.3571C10.9287 16.765 11.408 16.2857 12.0001 16.2857Z" fill="white"/>
<path fill-rule="evenodd" clip-rule="evenodd" d="M12.7144 6.28571H11.643C9.868 6.28571 8.42871 7.72499 8.42871 9.49999V9.85713H9.85728V9.49999C9.85728 8.51356 10.6566 7.71428 11.643 7.71428H12.7144C13.7009 7.71428 14.5001 8.51356 14.5001 9.49999C14.5001 10.4864 13.7009 11.2857 12.7144 11.2857H11.2859V14.5H12.7144V12.7143C14.4894 12.7143 15.9287 11.275 15.9287 9.49999C15.9287 7.72499 14.4894 6.28571 12.7144 6.28571Z" fill="white"/>
</svg>
