<svg width="32" height="32" version="1.1" viewBox="0 0 32 32" xml:space="preserve" xmlns="http://www.w3.org/2000/svg"><path d="m15.999 4c-2.3735 0-4.6916 0.70498-6.6651 2.0236-1.9735 1.3186-3.5115 3.1913-4.4198 5.384-0.90829 2.1928-1.1473 4.6049-0.68428 6.9328 0.46304 2.3279 1.6067 4.4679 3.2851 6.1462 1.6783 1.6782 3.8161 2.8195 6.144 3.2825 2.3278 0.46305 4.7402 0.22644 6.9329-0.68183 2.1929-0.90828 4.068-2.4463 5.3866-4.4197 1.3186-1.9734 2.0212-4.294 2.0212-6.6673 0-3.1827-1.2635-6.2359-3.514-8.4864-2.2505-2.2505-5.3039-3.5139-8.4866-3.5139zm0.25569 1.7168c1.2583 0.031206 2.5073 0.2951 3.682 0.78167 1.8796 0.77852 3.4869 2.0951 4.6171 3.7866 1.1302 1.6915 1.7314 3.6808 1.7314 5.7152 0 2.7279-1.0833 5.3447-3.0123 7.2737-1.9289 1.929-4.5459 3.0122-7.2739 3.0122-2.0344 0-4.0214-0.6036-5.7129-1.7338-1.6916-1.1302-3.0106-2.735-3.7891-4.6145-0.77853-1.8795-0.98134-3.9489-0.58444-5.9441 0.39688-1.9953 1.3765-3.8286 2.8151-5.2671 1.4386-1.4385 3.2695-2.4181 5.2649-2.815 0.74827-0.14883 1.5073-0.21353 2.2623-0.19481zm-0.68428 3.4262c-0.50695-0.00113-1.0072 0.098776-1.4757 0.29221-0.4685 0.19344-0.8957 0.47683-1.2541 0.83524-0.35841 0.3584-0.64182 0.78316-0.83527 1.2516-0.19344 0.46849-0.29336 0.97126-0.29222 1.4781v0.42858h1.7144v-0.42858c0-0.56833 0.22639-1.1128 0.62828-1.5146 0.40188-0.40187 0.94626-0.62826 1.5147-0.62826h1.2858c0.5683 0 1.1153 0.22639 1.5171 0.62826 0.40197 0.40187 0.62584 0.94631 0.62584 1.5146 0 0.56833-0.22387 1.1128-0.62584 1.5146-0.40185 0.40188-0.94882 0.62826-1.5171 0.62826h-1.7144v3.8572h1.7144v-2.1429c1.023 0 2.004-0.40651 2.7274-1.1299 0.7234-0.72338 1.1299-1.7043 1.1299-2.7273 0-1.023-0.40652-2.004-1.1299-2.7273-0.7234-0.72337-1.7044-1.1299-2.7274-1.1299zm0.42859 12c-0.71006 0-1.2858 0.5757-1.2858 1.2857 0 0.71016 0.57572 1.2857 1.2858 1.2857 0.71006 0 1.2858-0.57558 1.2858-1.2857 0-0.71004-0.57572-1.2857-1.2858-1.2857z"/></svg>
