<svg width="32" height="32" version="1.1" viewBox="0 0 32 32" xml:space="preserve" xmlns="http://www.w3.org/2000/svg"><path d="m16.297 4.0037c-0.88072-0.021844-1.7654 0.054045-2.6383 0.22769-2.3277 0.46303-4.4667 1.6053-6.1449 3.2836-1.6782 1.6783-2.8204 3.8174-3.2834 6.1453-0.46302 2.3279-0.22521 4.7405 0.68302 6.9333 0.90823 2.1928 2.4462 4.0656 4.4195 5.3841 1.9733 1.3187 4.2939 2.0224 6.6672 2.0224 3.1825 0 6.2338-1.2629 8.4842-3.5135 2.2505-2.2505 3.5155-5.3042 3.5155-8.4869 0-2.3734-0.70368-4.692-2.0223-6.6654-1.3185-1.9735-3.1934-3.5115-5.386-4.4198-1.3704-0.56768-2.8267-0.87434-4.2945-0.91074zm-0.29687 1.7099c2.7279 0 5.3432 1.0845 7.2721 3.0135 1.9289 1.929 3.0133 4.5445 3.0133 7.2726 0 2.0344-0.60408 4.0252-1.7343 5.7167-1.1301 1.6916-2.7366 3.0095-4.616 3.7881-1.8795 0.77854-3.9467 0.98165-5.9418 0.58484-1.9952-0.39693-3.8293-1.3764-5.2677-2.8148-1.4384-1.4386-2.4178-3.2728-2.8147-5.268-0.39687-1.9953-0.19368-4.0626 0.58481-5.9422 0.77848-1.8795 2.0987-3.486 3.7901-4.6162 1.6914-1.1302 3.6799-1.7344 5.7141-1.7344zm0 3.4287c-0.25428 0-0.50284 0.077473-0.71427 0.21876-0.21142 0.14127-0.37806 0.34097-0.47543 0.57591-0.09726 0.23494-0.12103 0.49392-0.07143 0.74333 0.0496 0.24941 0.17067 0.47868 0.35044 0.6585 0.17977 0.17981 0.4091 0.30086 0.65846 0.35046 0.24948 0.04961 0.50843 0.02589 0.74328-0.07143 0.23496-0.09731 0.43686-0.26403 0.57811-0.47546 0.14125-0.21145 0.21651-0.46002 0.21651-0.71431 0-0.341-0.13608-0.66738-0.37722-0.90851-0.24113-0.24112-0.56744-0.37725-0.90846-0.37725zm-2.5714 5.143v1.7143h1.7142v5.143h-2.5714v1.7143h6.857v-1.7143h-2.5714v-6.8574z"/></svg>
