<svg width="36" height="36" viewBox="0 0 36 36" fill="none" xmlns="http://www.w3.org/2000/svg">
<circle cx="18" cy="18" r="18" fill="white"/>
<path d="M8 18.8724C8.0025 21.3863 8.94352 23.8079 10.6372 25.6589C12.3309 27.5099 14.654 28.6557 17.1478 28.8699C19.6417 29.0841 22.1248 28.3512 24.1068 26.816C26.0888 25.2808 27.4256 23.0548 27.8531 20.5778C27.9516 20.0147 28.0008 19.4441 28 18.8724V8.86108" stroke="#30353B" stroke-width="2" stroke-linecap="round" stroke-linejoin="round"/>
<path d="M18 8.82837C16.6865 8.82729 15.3856 9.08637 14.1719 9.59075C12.9582 10.0951 11.8554 10.8349 10.9266 11.7678C9.99775 12.7007 9.2612 13.8084 8.75903 15.0275C8.25686 16.2466 7.99893 17.5531 8 18.8725" stroke="#30353B" stroke-width="2" stroke-linecap="round" stroke-linejoin="round"/>
<path d="M17.3808 20.299C17.0968 20.1747 16.8559 19.9687 16.6884 19.707C16.5209 19.4453 16.4343 19.1397 16.4397 18.8286C16.445 18.5175 16.542 18.2151 16.7184 17.9593C16.8948 17.7036 17.1426 17.5061 17.4307 17.3917C17.7187 17.2774 18.0341 17.2513 18.3369 17.3168C18.6397 17.3823 18.9163 17.5365 19.132 17.7598C19.3476 17.9831 19.4925 18.2656 19.5484 18.5716C19.6043 18.8776 19.5687 19.1934 19.4461 19.479C19.3644 19.6693 19.2461 19.8416 19.098 19.9859C18.9498 20.1301 18.7748 20.2436 18.5829 20.3198C18.3911 20.396 18.1861 20.4333 17.9798 20.4298C17.7735 20.4262 17.5699 20.3817 17.3808 20.299V20.299Z" stroke="#30353B" stroke-width="2" stroke-miterlimit="10"/>
<path d="M18 8.9021V17.2407" stroke="#30353B" stroke-width="2" stroke-miterlimit="10" stroke-linecap="round"/>
<path d="M24.6034 12.9524H22.9707V16.3961H24.6034V12.9524Z" fill="#30353B"/>
<path d="M24.6038 8H22.9712V11.4437H24.6038V8Z" fill="#30353B"/>
<path d="M12.2207 18.8723C12.2276 20.3231 12.7742 21.7189 13.7534 22.7855C14.7325 23.852 16.0734 24.5123 17.5125 24.6366C18.9516 24.7609 20.385 24.3403 21.5311 23.4573C22.6771 22.5743 23.4531 21.2927 23.7064 19.8644C23.7581 19.561 23.7854 19.2539 23.7881 18.9461" stroke="#30353B" stroke-width="2" stroke-linecap="square" stroke-linejoin="round"/>
<path d="M18.0085 13.0508C16.4749 13.0508 15.004 13.6621 13.9188 14.7506C12.8336 15.839 12.2229 17.3155 12.2207 18.8559" stroke="#30353B" stroke-width="2" stroke-linecap="round" stroke-linejoin="round"/>
</svg>
