<svg width="12" height="29" viewBox="0 0 12 29" fill="none" xmlns="http://www.w3.org/2000/svg">
<path fill-rule="evenodd" clip-rule="evenodd" d="M3 11C2.4 11 2 11.4 2 12V18H4V27H8V18H10V12C10 11.4 9.6 11 9 11H3ZM8 29H4C2.9 29 2 28.1 2 27V20C0.9 20 0 19.1 0 18V12C0 10.3 1.3 9 3 9H9C10.7 9 12 10.3 12 12V18C12 19.1 11.1 20 10 20V27C10 28.1 9.1 29 8 29V29Z" fill="white"/>
<path fill-rule="evenodd" clip-rule="evenodd" d="M6 2C4.9 2 4 2.9 4 4C4 5.1 4.9 6 6 6C7.1 6 8 5.1 8 4C8 2.9 7.1 2 6 2M6 8C3.8 8 2 6.2 2 4C2 1.8 3.8 0 6 0C8.2 0 10 1.8 10 4C10 6.2 8.2 8 6 8" fill="white"/>
</svg>
