<svg width="24" height="24" viewBox="0 0 24 24" fill="none" xmlns="http://www.w3.org/2000/svg">
<path d="M19.77 11.66L18.65 15.63C17.87 15.2 17.58 14.77 16 12.96C14.4 14.78 13.57 16 12 16C10.47 16 9.66 14.85 8 12.96C6.4 14.78 6.13 15.17 5.35 15.61L4.22 11.65L12 9.11L19.77 11.66ZM15 0H9V3H6C4.9 3 4 3.9 4 5V9.62L2.71 10.04C2.08 10.23 1.9 10.88 2.05 11.32L3.95 18H4C5.6 18 7.02 17.12 8 16C8.98 17.12 10.4 18 12 18C13.6 18 15.02 17.12 16 16C16.98 17.12 18.4 18 20 18H20.05L21.96 11.32C22.07 10.95 22 10.26 21.3 10.04L20 9.62V5C20 3.9 19.1 3 18 3H15V0ZM6 8.97V5H18V8.97L12 7L6 8.97ZM16 18.68C14.78 19.53 13.39 19.96 12 19.96C10.61 19.96 9.22 19.53 8 18.68C6.78 19.53 5.39 20 4 20H2V22H4C5.38 22 6.74 21.65 8 21.01C9.26 21.65 10.63 21.98 12 21.98C13.37 21.98 14.74 21.66 16 21.01C17.26 21.66 18.62 22 20 22H22V20H20C18.61 20 17.22 19.53 16 18.68Z" fill="white"/>
</svg>
