<svg width="32" height="32" viewBox="0 0 32 32" fill="none" xmlns="http://www.w3.org/2000/svg">
<path fill-rule="evenodd" clip-rule="evenodd" d="M16.4 4C17.7248 4 18.8 5.0752 18.8 6.4C18.8 7.7248 17.7248 8.80001 16.4 8.80001C15.0752 8.80001 14 7.7248 14 6.4C14 5.0752 15.0752 4 16.4 4ZM16.4 13.6001C17.7248 13.6001 18.8 14.6753 18.8 16.0001C18.8 17.3249 17.7248 18.4001 16.4 18.4001C15.0752 18.4001 14 17.3249 14 16.0001C14 14.6753 15.0752 13.6001 16.4 13.6001ZM18.8 25.6C18.8 24.2752 17.7248 23.2 16.4 23.2C15.0752 23.2 14 24.2752 14 25.6C14 26.9248 15.0752 28 16.4 28C17.7248 28 18.8 26.9248 18.8 25.6Z" fill="black"/>
</svg>
