<svg width="32" height="32" version="1.1" viewBox="0 0 32 32" xml:space="preserve" xmlns="http://www.w3.org/2000/svg"><path d="m10 4v2.6672h-6v1.7766h9.2016c-0.42772 1.7387-1.1257 3.5346-2.7328 5.4938-1.0509-1.3662-1.6422-2.7113-1.9594-3.7148h-1.8c0.54343 1.8151 1.4292 3.4977 2.5992 4.9617-1.1752 1.1182-2.5453 2.2419-4.4508 3.0375l0.63984 1.65c2.1283-0.88896 3.6556-2.1444 4.9594-3.4031 1.4512 1.4436 2.984 2.6545 4.9383 3.4172l0.60469-1.6641c-1.9629-0.7662-3.2481-1.8679-4.3898-2.9906 2.1112-2.5395 2.8912-4.8631 3.3609-6.7875h2.7422v-1.7766h-6v-2.6672zm10.84 10.666-5.1422 13.334h1.8469l1.3711-3.5555h5.8688l1.3711 3.5555h1.8445l-5.1422-13.334zm1.0102 2.1703 2.25 5.8289h-4.4977z"/></svg>
