<svg width="28" height="28" viewBox="0 0 28 28" fill="none" xmlns="http://www.w3.org/2000/svg">
<g clip-path="url(#clip0_2558_1468)">
<path d="M25.9187 0.00341034C27.0649 0.0501404 27.9792 0.895157 27.9792 1.93114V2.09228L28.0037 2.11767L27.9792 2.14111V5.79247H25.8191V4.27294L20.323 9.69579L25.905 14.9018L24.3816 16.3227L18.8386 11.1597L16.1833 13.7808V25.9849C16.1833 27.0971 15.2148 27.9995 14.0222 27.9995H1.77319L1.75464 28.0181L1.73608 27.9995H-0.020752V26.2192L-0.35376 25.8823L14.0222 11.6977V8.68603L5.823 16.3227L4.30054 14.9018L15.1023 4.82763L18.1267 7.64794L23.9216 1.93114H4.21362V5.79247H2.05347V1.93114C2.05347 0.865333 3.02123 -0.000299489 4.21362 -0.000495911H25.8191C25.838 -0.000493731 25.8569 0.00102104 25.8757 0.00145721L25.8972 -0.018074L25.9187 0.00341034ZM3.81519 25.9849H14.0222V15.9126L3.81519 25.9849ZM16.1833 9.56591L16.6414 9.11279L16.1833 8.68603V9.56591Z" fill="white"/>
</g>
<defs>
<clipPath id="clip0_2558_1468">
<rect width="28" height="28" fill="white"/>
</clipPath>
</defs>
</svg>
