<svg width="32" height="32" version="1.1" viewBox="0 0 32 32" xml:space="preserve" xmlns="http://www.w3.org/2000/svg"><defs><style>.cls-1{fill:none;stroke-linecap:round;stroke-linejoin:round;stroke-width:2px;}</style></defs><path d="m4 6.6667v2.6667h8v5.3333h-5.3333v2.6667h5.3333v5.3333h-8v2.6667h8c0.70724 0 1.3853-0.28112 1.8854-0.78125 0.50011-0.50013 0.78125-1.1782 0.78125-1.8854v-13.333c0-0.70724-0.28114-1.3853-0.78125-1.8854-0.50009-0.5001-1.1782-0.78125-1.8854-0.78125zm13.333 0v18.667h5.3333c1.4145 0 2.7707-0.56223 3.7708-1.5625 1.0003-1.0001 1.5625-2.3563 1.5625-3.7708v-8c0-1.4145-0.56223-2.7706-1.5625-3.7708-1.0001-1.0002-2.3563-1.5625-3.7708-1.5625zm2.6667 2.6667h2.6667c0.7072 0 1.3853 0.28114 1.8854 0.78125 0.50013 0.50009 0.78125 1.1782 0.78125 1.8854v8c0 0.7072-0.28112 1.3853-0.78125 1.8854-0.50013 0.50013-1.1782 0.78125-1.8854 0.78125h-2.6667z"/></svg>
