<svg width="32" height="32" version="1.1" viewBox="0 0 32 32" xml:space="preserve" xmlns="http://www.w3.org/2000/svg"><g transform="translate(4.6781 -2.4161)"><path d="m1.0376 6.4161v6.8579h6.8555v-1.7157h-4.2188c1.9355-2.1634 4.6863-3.4289 7.6477-3.4289 5.6718 0 10.287 4.615 10.287 10.287 0 5.6718-4.6151 10.284-10.287 10.284-5.6718 0-10.284-4.6128-10.284-10.284h-1.7157c0 6.6172 5.3829 12 12 12 6.6172 0 12-5.3829 12-12 0-6.6172-5.3829-12-12-12-3.282 0-6.3366 1.3344-8.5712 3.6282v-3.6282zm9.4266 4.2844v8.0672l4.7883 4.7906 1.2118-1.2118-4.2867-4.289v-7.3571z"/></g></svg>
