<svg width="32" height="32" version="1.1" viewBox="0 0 32 32" xml:space="preserve" xmlns="http://www.w3.org/2000/svg"><path d="m25.333 17.333v8c0 0.70725-0.28095 1.3856-0.78105 1.8856s-1.1784 0.78105-1.8856 0.78105h-16c-0.70725 0-1.3855-0.28095-1.8856-0.78105-0.5001-0.5001-0.78105-1.1784-0.78105-1.8856v-16c0-0.70725 0.28095-1.3855 0.78105-1.8856 0.5001-0.5001 1.1784-0.78105 1.8856-0.78105h8v2.6667h-8v16h16v-8zm-8-13.333v2.6667h6.1146l-10.391 10.391 1.8853 1.8854 10.391-10.391v6.1147h2.6667v-10.667z"/></svg>
