<svg width="32" height="32" version="1.1" viewBox="0 0 32 32" xml:space="preserve" xmlns="http://www.w3.org/2000/svg"><defs><style>.cls-1{fill:none;stroke-linecap:round;stroke-linejoin:round;stroke-width:2px;}</style></defs><path d="m27.351 6.6725-6.8571-1.5585c-0.17498-0.039487-0.35913-0.028178-0.52658 0.032338l-8.3143 3.0234-6.5877-1.4973c-0.12637-0.028746-0.25828-0.030916-0.38571-0.0063709-0.12743 0.024545-0.24704 0.075174-0.34972 0.14805-0.10269 0.072862-0.18575 0.16605-0.24289 0.27247-0.057136 0.10643-0.086839 0.22329-0.086852 0.34171v17.143c1.94e-5 0.17378 0.06391 0.34254 0.18152 0.47945 0.11761 0.13691 0.28219 0.23422 0.46759 0.27644l6.8571 1.5585c0.06806 0.01527 0.1379 0.02313 0.20802 0.02334 0.10912 0 0.21726-0.01898 0.31851-0.05596l8.3143-3.0233 6.588 1.4976c0.12644 0.02869 0.25833 0.03076 0.38564 0.0062 0.12742-0.02454 0.24698-0.07516 0.34964-0.14804 0.10266-0.07287 0.18578-0.16615 0.24284-0.27251 0.057163-0.10634 0.086836-0.22318 0.086836-0.34165v-17.143c0-0.17374-0.063927-0.34249-0.18153-0.47944-0.1176-0.13695-0.28222-0.23424-0.46756-0.2764zm-1.0652 5.4312h-5.1429v-5.236l5.1429 1.1688zm-15.429 6.2339h-5.1429v-4.6754h5.1429zm1.7143-6.2339v-2.5893l6.8572-2.4935v5.0828zm6.8572 1.5585v4.6754h-6.8572v-4.6754zm-6.8572 6.2339h6.8572v2.5891l-6.8572 2.4936zm8.5714-6.2339h5.1429v4.6754h-5.1429zm-10.286-4.0671v2.5087h-5.1429v-3.6775zm-5.1429 10.301h5.1429v5.2357l-5.1429-1.1688zm15.429 2.5081v-2.5081h5.1429v3.6772z"/></svg>
