<svg id="Icon_Black" data-name="Icon Black" xmlns="http://www.w3.org/2000/svg" viewBox="0 0 32 32"><defs><style>.cls-1{fill:none;stroke:#fff;stroke-linecap:round;stroke-linejoin:round;stroke-width:2px;}</style></defs><path class="cls-1" d="M24,13a2,2,0,0,1,4,0V23.08a6,6,0,0,1-6,6H17A8.5,8.5,0,0,1,10,26a40,40,0,0,1-2.8-4A2.4,2.4,0,0,1,7,21a2.49,2.49,0,0,1,2.5-2.5,2.69,2.69,0,0,1,.81.13A2.64,2.64,0,0,1,11,19l1,1V13a2,2,0,0,1,4,0"/><path class="cls-1" d="M20,12a2,2,0,0,1,4,0v5"/><path class="cls-1" d="M16,16V12a2,2,0,0,1,4,0v4"/></svg>