<svg width="32" height="32" version="1.1" viewBox="0 0 32 32" xml:space="preserve" xmlns="http://www.w3.org/2000/svg"><defs><style>.cls-1{fill:none;stroke-linecap:round;stroke-linejoin:round;stroke-width:2px;}</style></defs><path d="m6.7692 4c-1.5185 0-2.7692 1.2508-2.7692 2.7692 0 1.5185 1.2508 2.7692 2.7692 2.7692 1.5185 0 2.7692-1.2508 2.7692-2.7692 0-1.5185-1.2508-2.7692-2.7692-2.7692zm0 1.8462c0.52074 0 0.92308 0.40235 0.92308 0.92308s-0.40235 0.92308-0.92308 0.92308c-0.52074 0-0.92308-0.40235-0.92308-0.92308s0.40235-0.92308 0.92308-0.92308zm4.7993 0a0.92308 0.92308 0 0 0-0.92308 0.92308 0.92308 0.92308 0 0 0 0.92308 0.92308h1.8462a0.92308 0.92308 0 0 0 0.92308-0.92308 0.92308 0.92308 0 0 0-0.92308-0.92308zm4.8011 0a0.92308 0.92308 0 0 0-0.92308 0.92308 0.92308 0.92308 0 0 0 0.92308 0.92308h1.8462a0.92308 0.92308 0 0 0 0.92308-0.92308 0.92308 0.92308 0 0 0-0.92308-0.92308zm4.7993 0a0.92308 0.92308 0 0 0-0.92308 0.92308 0.92308 0.92308 0 0 0 0.92308 0.92308h1.8462a0.92308 0.92308 0 0 0 0.92308-0.92308 0.92308 0.92308 0 0 0-0.92308-0.92308zm5.7639 0.01262a0.92308 0.92308 0 0 0-0.50842 0.25781l-8.3113 8.3113c-0.36183-0.1748-0.7644-0.27404-1.1899-0.27404-1.5185 0-2.7692 1.2508-2.7692 2.7692 0 0.42551 0.09924 0.82808 0.27404 1.1899l-8.3113 8.3113a0.92308 0.92308 0 0 0 0 1.3053 0.92308 0.92308 0 0 0 1.3053 0l8.3132-8.3131c0.36109 0.17392 0.76375 0.27584 1.1881 0.27584 1.5185 0 2.7692-1.2508 2.7692-2.7692 0-0.42436-0.10193-0.82702-0.27584-1.1881l8.3131-8.3132a0.92308 0.92308 0 0 0 0-1.3053 0.92308 0.92308 0 0 0-0.79688-0.25781zm-20.164 4.7867a0.92308 0.92308 0 0 0-0.92308 0.92308v1.8462a0.92308 0.92308 0 0 0 0.92308 0.92308 0.92308 0.92308 0 0 0 0.92308-0.92308v-1.8462a0.92308 0.92308 0 0 0-0.92308-0.92308zm0 4.8011a0.92308 0.92308 0 0 0-0.92308 0.92308v1.8462a0.92308 0.92308 0 0 0 0.92308 0.92308 0.92308 0.92308 0 0 0 0.92308-0.92308v-1.8462a0.92308 0.92308 0 0 0-0.92308-0.92308zm10.154 0.55349c0.52074 0 0.92308 0.40235 0.92308 0.92308s-0.40235 0.92308-0.92308 0.92308-0.92308-0.40235-0.92308-0.92308 0.40235-0.92308 0.92308-0.92308zm-10.154 4.2458a0.92308 0.92308 0 0 0-0.92308 0.92308v1.8462a0.92308 0.92308 0 0 0 0.92308 0.92308 0.92308 0.92308 0 0 0 0.92308-0.92308v-1.8462a0.92308 0.92308 0 0 0-0.92308-0.92308z" color="#000000"/></svg>
