<svg width="29" height="28" viewBox="0 0 29 28" fill="none" xmlns="http://www.w3.org/2000/svg">
<path fill-rule="evenodd" clip-rule="evenodd" d="M29 10.4149L27.586 8.99988L24 12.5869L20.414 8.99988L19 10.4149L22.586 13.9999L19 17.5859L20.414 18.9999L24 15.4139L27.586 18.9999L29 17.5859L25.414 13.9999L29 10.4149Z" fill="white"/>
<path fill-rule="evenodd" clip-rule="evenodd" d="M2 17.9999H8C8.267 17.9999 8.606 18.1069 8.794 18.2969L15 24.5679V3.43189L8.794 9.70289C8.606 9.89289 8.267 9.99989 8 9.99989H2V17.9999ZM16 27.9999C15.733 27.9999 15.477 27.8929 15.289 27.7029L7.666 19.9999H1C0.448 19.9999 0 19.5529 0 19.0009V18.9999V8.99989C0 8.44789 0.447 7.99989 0.999 7.99989H1H7.666L15.289 0.29689C15.677 -0.0961105 16.311 -0.0991105 16.703 0.28889C16.893 0.47689 17 0.73289 17 0.99989V26.9999C17 27.5519 16.552 27.9999 16 27.9999V27.9999Z" fill="white"/>
</svg>
