<svg width="32" height="32" version="1.1" viewBox="0 0 32 32" xml:space="preserve" xmlns="http://www.w3.org/2000/svg"><path d="m4 5.5v2.0996h13.439v-2.0996zm13.919 3.1484c-0.25742 0-0.5148 0.11091-0.63865 0.33008l-9.359 16.553c-0.11593 0.2053-0.10884 0.45114 0.021483 0.64844 0.13103 0.1973 0.36516 0.31836 0.61716 0.31836h18.72c0.25199 0 0.48422-0.12106 0.61521-0.31836 0.1303-0.1973 0.13933-0.44314 0.02344-0.64844l-9.361-16.553c-0.12384-0.21917-0.38123-0.33008-0.63865-0.33008zm2e-3 2.0703 8.1735 14.457h-16.349zm-13.921 1.0801v2.1016h9.5992v-2.1016zm13.201 2.7812v5.959h1.4394v-5.959zm-13.201 3.5195v2.0996h6.7204v-2.0996zm13.919 3.7637c-0.59688 0-1.08 0.44514-1.08 0.99414 0 0.5489 0.48316 0.99219 1.08 0.99219 0.59688 0 1.08-0.44329 1.08-0.99219 0-0.549-0.48316-0.99414-1.08-0.99414zm-13.919 2.5352v2.1016h2.8807v-2.1016z"/></svg>
