<svg width="32" height="32" viewBox="0 0 32 32" fill="none" xmlns="http://www.w3.org/2000/svg">
<g clip-path="url(#clip0_824_2)">
<path d="M11.405 26.1712H2.26215C1.00158 26.1712 -0.0235596 25.1461 -0.0235596 23.8855V7.88556C-0.0235596 6.62499 1.00158 5.59985 2.26215 5.59985H11.405C12.6656 5.59985 13.6907 6.62499 13.6907 7.88556V11.3141H11.405V7.88556H2.26215V23.8855H11.405V20.457H13.6907V23.8855C13.6907 25.1461 12.6656 26.1712 11.405 26.1712Z" fill="black"/>
<path d="M29.6907 26.1712H20.5479C19.2873 26.1712 18.2622 25.1461 18.2622 23.8855V20.457H20.5479V23.8855H29.6907V7.88556H20.5479V11.3141H18.2622V7.88556C18.2622 6.62499 19.2873 5.59985 20.5479 5.59985H29.6907C30.9513 5.59985 31.9764 6.62499 31.9764 7.88556V23.8855C31.9764 25.1461 30.9513 26.1712 29.6907 26.1712Z" fill="black"/>
<path d="M11.4049 17.0284H6.83348V14.7427H11.4049V17.0284Z" fill="black"/>
<path d="M20.5478 17.0284H25.1192V14.7427H20.5478V17.0284Z" fill="black"/>
<path d="M18.2621 17.0284H13.6907V14.7427H18.2621V17.0284Z" fill="black"/>
</g>
<defs>
<clipPath id="clip0_824_2">
<rect width="32" height="32" fill="white"/>
</clipPath>
</defs>
</svg>
