<svg width="32" height="32" version="1.1" viewBox="0 0 32 32" xml:space="preserve" xmlns="http://www.w3.org/2000/svg"><path d="m25.381 4-1.802 0.21798 0.48865 3.3224c-2.5248-2.3147-6.0022-3.5624-9.6258-3.1208-3.5992 0.43863-6.5776 2.4523-8.3506 5.2607l1.5495 0.98456c1.4993-2.376 4.02-4.0811 7.0663-4.4523 3.4715-0.42305 6.7699 0.99938 8.9337 3.4768l-4.6721 0.57039 0.2634 1.7929 7.2044-0.87738zm-10.781 5.0045v8.4178l4.9991 5.0027 1.2643-1.2661-4.4759-4.4759v-7.6785zm-9.8292 4.812c-0.34439 1.1832-0.45811 2.424-0.27248 3.6857l2.0163-0.24705c-0.15711-1.0679-0.059524-2.1173 0.23252-3.119zm20.937 4.7539c-0.24647 1.2392-0.69741 2.4059-1.3352 3.4514l1.3061 0.8574 0.33424 0.2198c0.75326-1.2344 1.2861-2.6148 1.5767-4.0799zm-17.998 2.1926-1.6876 0.88647c0.70467 1.3429 1.6177 2.5462 2.7012 3.5568l1.2716-1.4332c-0.91645-0.8551-1.6883-1.8735-2.2852-3.01zm15.101 3.6385c-0.99256 0.64918-2.1232 1.1617-3.3569 1.5005l0.57766 1.5767c1.4589-0.40132 2.7938-1.0063 3.9673-1.7748zm-10.623 1.2952-0.76839 1.5422c1.3542 0.45936 2.8171 0.72318 4.3397 0.76113l0.10172-1.6585c-1.2883-0.03218-2.5277-0.25545-3.673-0.64487z"/></svg>
