<svg width="32" height="32" version="1.1" viewBox="0 0 32 32" xml:space="preserve" xmlns="http://www.w3.org/2000/svg"><path d="m16.922 7.601c-7.1253 0-12.922 5.8627-12.922 13.067h1.8467c0-6.1751 4.968-11.199 11.075-11.199 2.0509 0 3.9665 0.57526 5.615 1.5608l1.3405-1.3545c-2.0111-1.3056-4.3942-2.074-6.9554-2.074zm9.7723 1.8677-7.9069 7.9936c-0.55001-0.3285-1.1811-0.52728-1.8631-0.52728-2.0352 0-3.6933 1.6745-3.6933 3.7332 0 2.0587 1.6582 3.7308 3.6933 3.7308 2.0351 0 3.691-1.6721 3.691-3.7308 0-0.69064-0.19947-1.3289-0.52259-1.8842l7.9069-7.9959zm-9.7723 9.3317c1.019 0 1.8467 0.83839 1.8467 1.8677 0 1.0292-0.82762 1.8654-1.8467 1.8654-1.0189 0-1.8467-0.83617-1.8467-1.8654 0-1.0294 0.82776-1.8677 1.8467-1.8677z"/></svg>
