<svg width="32" height="32" version="1.1" viewBox="0 0 32 32" xml:space="preserve" xmlns="http://www.w3.org/2000/svg"><path d="m16 4c-6.6266 0-12 5.3726-12 12 0 6.6274 5.3734 12 12 12 6.6274 0 12-5.3726 12-12 0-6.6274-5.3726-12-12-12zm-3.4453 6c0.14636-0.00257 0.29404 0.03347 0.4269 0.10547l9.4286 5.1429c0.27514 0.15 0.44699 0.43796 0.44699 0.75167s-0.17184 0.60335-0.44699 0.75335l-9.4286 5.1429c-0.12771 0.06943-0.26873 0.1038-0.41016 0.1038-0.15086 0-0.30237-0.03915-0.43694-0.11886-0.25971-0.15429-0.4202-0.43571-0.4202-0.73828v-10.286c0-0.30257 0.16049-0.58232 0.4202-0.73661 0.12943-0.077143 0.27384-0.11796 0.4202-0.12054zm0.87388 2.3019v7.3979l6.7818-3.6998z"/></svg>
