<svg width="32" height="32" version="1.1" viewBox="0 0 32 32" xml:space="preserve" xmlns="http://www.w3.org/2000/svg"><path d="m19.739 4c-0.34435 0-0.6225 0.28031-0.6225 0.62461 0 0.34428 0.27816 0.6225 0.6225 0.6225 0.34424 0 0.6246-0.27822 0.6246-0.6225 0-0.34429-0.28036-0.62461-0.6246-0.62461zm-8.103 2.4942c-0.68858 0-1.2471 0.55853-1.2471 1.2471 0 0.68858 0.55853 1.2471 1.2471 1.2471 0.68858 0 1.2471-0.55853 1.2471-1.2471 0-0.68858-0.55853-1.2471-1.2471-1.2471zm4.9863 0c-0.86065 0-1.5584 0.69764-1.5584 1.5584 0 0.86072 0.69771 1.5584 1.5584 1.5584 0.86076 0 1.5584-0.69764 1.5584-1.5584 0-0.86072-0.6976-1.5584-1.5584-1.5584zm6.2334 0c-0.51652 0-0.93375 0.41943-0.93375 0.93586 0 0.51644 0.41723 0.93375 0.93375 0.93375 0.51642 0 0.93586-0.41732 0.93586-0.93375 0-0.51642-0.41944-0.93586-0.93586-0.93586zm-15.272 1.8696c-0.51642 0-0.93586 0.41942-0.93586 0.93586 0 0.51642 0.41943 0.93586 0.93586 0.93586 0.51644 0 0.93586-0.41943 0.93586-0.93586 0-0.51644-0.41942-0.93586-0.93586-0.93586zm16.831 1.8717c-0.68848 0-1.245 0.55643-1.245 1.245 0 0.68858 0.55652 1.2471 1.245 1.2471 0.68859 0 1.2471-0.55853 1.2471-1.2471 0-0.68858-0.55852-1.245-1.2471-1.245zm-11.531 0.93375c-1.0329 0-1.8717 0.83886-1.8717 1.8717 0 1.0329 0.83885 1.8696 1.8717 1.8696 1.0328 0 1.8696-0.83673 1.8696-1.8696 0-1.0329-0.83679-1.8717-1.8696-1.8717zm6.2334 0c-1.0329 0-1.8696 0.83674-1.8696 1.8696 0 1.0328 0.83668 1.8717 1.8696 1.8717 1.0328 0 1.8696-0.83886 1.8696-1.8717 0-1.0329-0.83678-1.8696-1.8696-1.8696zm-14.339 0.62461c-0.34429 0-0.6225 0.27822-0.6225 0.6225s0.27821 0.6225 0.6225 0.6225c0.34428 0 0.62461-0.27822 0.62461-0.6225s-0.28032-0.6225-0.62461-0.6225zm3.1167 2.1809c-0.86072 0-1.5584 0.6976-1.5584 1.5584 0 0.86065 0.69764 1.5584 1.5584 1.5584 0.86073 0 1.5584-0.6977 1.5584-1.5584 0-0.86076-0.69763-1.5584-1.5584-1.5584zm16.208 0.93586c-0.86065 0-1.5584 0.6977-1.5584 1.5584 0 0.86076 0.6977 1.5584 1.5584 1.5584 0.86076 0 1.5584-0.6976 1.5584-1.5584 0-0.86065-0.6976-1.5584-1.5584-1.5584zm-11.22 2.1809c-1.0329 0-1.8717 0.83667-1.8717 1.8696 0 1.0328 0.83884 1.8717 1.8717 1.8717 1.0328 0 1.8696-0.83889 1.8696-1.8717 0-1.0329-0.83676-1.8696-1.8696-1.8696zm6.2334 0c-1.0329 0-1.8696 0.83667-1.8696 1.8696 0 1.0328 0.83668 1.8717 1.8696 1.8717 1.0328 0 1.8696-0.83889 1.8696-1.8717 0-1.0329-0.83678-1.8696-1.8696-1.8696zm8.103 1.8696c-0.34424 0-0.6225 0.28037-0.6225 0.62461 0 0.34424 0.27826 0.6225 0.6225 0.6225 0.34435 0 0.62461-0.27826 0.62461-0.6225 0-0.34424-0.28026-0.62461-0.62461-0.62461zm-19.636 0.31336c-0.68858 0-1.2471 0.55642-1.2471 1.245 0 0.68859 0.55853 1.2471 1.2471 1.2471 0.68858 0 1.2471-0.55852 1.2471-1.2471 0-0.68859-0.55853-1.245-1.2471-1.245zm16.833 2.4921c-0.51642 0-0.93586 0.41934-0.93586 0.93586 0 0.51641 0.41944 0.93586 0.93586 0.93586 0.51641 0 0.93375-0.41944 0.93375-0.93586 0-0.51652-0.41734-0.93586-0.93375-0.93586zm-9.041 0.6246c-0.86076 0-1.5584 0.6976-1.5584 1.5584 0 0.86065 0.6976 1.5584 1.5584 1.5584 0.86076 0 1.5584-0.69771 1.5584-1.5584 0-0.86076-0.6976-1.5584-1.5584-1.5584zm4.9884 0.6225c-0.68859 0-1.2471 0.55863-1.2471 1.2471 0 0.68859 0.55852 1.2471 1.2471 1.2471 0.68859 0 1.245-0.55852 1.245-1.2471 0-0.68848-0.55642-1.2471-1.245-1.2471zm-11.222 0.6246c-0.51644 0-0.93375 0.41734-0.93375 0.93376 0 0.51641 0.41732 0.93586 0.93375 0.93586 0.51642 0 0.93586-0.41944 0.93586-0.93586 0-0.51642-0.41943-0.93376-0.93586-0.93376zm3.1167 3.1167c-0.34428 0-0.6225 0.27826-0.6225 0.6225 0 0.34435 0.27822 0.6225 0.6225 0.6225 0.34428 0 0.6246-0.27816 0.6246-0.6225 0-0.34424-0.28032-0.6225-0.6246-0.6225z"/></svg>
