<svg width="32" height="32" fill="none" version="1.1" viewBox="0 0 32 32" xml:space="preserve" xmlns="http://www.w3.org/2000/svg"><path d="m20.871 4.0002c-0.20968-0.0039356-0.41283 0.064568-0.57617 0.19336-0.16334 0.12879-0.27555 0.31027-0.3164 0.51172l-0.22852 1.1016c-0.20374 0.096533-0.40087 0.20611-0.58984 0.32812l-1.0625-0.375c-0.09323-0.023794-0.18904-0.033751-0.28516-0.027344-0.15666 1.568e-4 -0.31159 0.040392-0.44726 0.11719-0.13558 0.076804-0.2478 0.18741-0.32617 0.32031l-1.0547 1.75c-0.10428 0.17546-0.1428 0.38167-0.10937 0.58203 0.03343 0.20037 0.13714 0.38374 0.29297 0.51757l0.84375 0.75585v0.66992l-0.84375 0.73437c-0.16019 0.13477-0.26726 0.32112-0.30078 0.52539-0.03352 0.20426 0.0082 0.41461 0.11719 0.59179l1.0547 1.75c0.07837 0.13285 0.19059 0.24352 0.32617 0.32031 0.13567 0.07679 0.29061 0.117 0.44726 0.11719 0.09713 7.38e-4 0.19294-0.01328 0.28516-0.04297l1.0859-0.35937c0.18749 0.12197 0.38173 0.2316 0.58398 0.32812l0.22851 1.1016c0.04086 0.20144 0.15306 0.38292 0.31641 0.51172 0.16334 0.12879 0.36658 0.19732 0.57617 0.19336h2.1094c0.20968 4e-3 0.41478-0.06457 0.57812-0.19336 0.16334-0.12879 0.27359-0.31028 0.31445-0.51172l0.22852-1.1016c0.20374-0.09652 0.40096-0.20615 0.58984-0.32812l1.0801 0.35937c0.09221 0.02969 0.19007 0.04371 0.28711 0.04297 0.15675-1.84e-4 0.30973-0.04039 0.44531-0.11719 0.13567-0.0768 0.2478-0.18746 0.32617-0.32031l1.0195-1.75c0.10428-0.17546 0.1428-0.38167 0.10937-0.58203-0.03343-0.20037-0.13714-0.38374-0.29297-0.51758l-0.84375-0.75585v-0.66992l0.85742-0.73437c0.15814-0.1365 0.26186-0.32317 0.29297-0.52734 0.031015-0.20417-0.012449-0.41412-0.12305-0.58984l-1.0547-1.75c-0.078375-0.1329-0.1905-0.24351-0.32617-0.32031-0.13558-0.076795-0.29052-0.11703-0.44726-0.11719-0.09704-7.283e-4 -0.19294 0.015218-0.28516 0.044922l-1.0859 0.35742c-0.18739-0.12199-0.38173-0.23157-0.58398-0.32812l-0.22852-1.1016c-0.040859-0.20145-0.15315-0.38293-0.3164-0.51172-0.16334-0.12879-0.36649-0.19729-0.57617-0.19336zm0 0.85742h2.1094l0.3164 1.5547c0.43849 0.1612 0.84709 0.392 1.207 0.68554l1.5352-0.49023 1.0547 1.75-1.2148 1.0508c0.08255 0.45294 0.08255 0.9162 0 1.3691l1.2148 1.082-1.0547 1.75-1.5312-0.50781c-0.35863 0.29759-0.76891 0.53068-1.2109 0.6875l-0.3164 1.5703h-2.1094l-0.3164-1.5527c-0.43849-0.16115-0.8471-0.39396-1.207-0.6875l-1.5351 0.49023-1.0547-1.75 1.2148-1.0508c-0.08265-0.45294-0.08265-0.9162 0-1.3691l-1.2148-1.082 1.0547-1.75 1.5312 0.50781c0.35872-0.29759 0.76891-0.53073 1.2109-0.6875zm-7.9668 1.3613c-0.75762 0-1.4081 0.52463-1.5566 1.2519l-0.40039 1.959c-0.36452 0.17425-0.72113 0.36502-1.0547 0.58593l-1.9219-0.63671c-0.16757-0.056006-0.33865-0.08203-0.50781-0.08203-0.55511 0-1.0851 0.28571-1.375 0.77734l-1.875 3.1797c-0.37881 0.64248-0.24165 1.4572 0.32617 1.9473l1.5351 1.3203c-0.014301 0.19526-0.03125 0.38949-0.03125 0.58789 0 0.2007 0.00799 0.39887 0.021485 0.5957l-1.5254 1.3125c-0.56782 0.48925-0.70498 1.3055-0.32617 1.9473l1.875 3.1797c0.28987 0.49239 0.81989 0.77929 1.375 0.77929 0.16916 0 0.34024-0.02598 0.50781-0.08203l1.9336-0.64062c0.33195 0.21858 0.68083 0.41634 1.043 0.58984l0.40039 1.959c0.1485 0.72812 0.79901 1.25 1.5566 1.25h3.75c0.75682 0 1.4081-0.52187 1.5566-1.25l0.40039-1.959c0.36448-0.17507 0.71917-0.36505 1.0527-0.58593l1.9219 0.63671c0.16761 0.05606 0.33862 0.08203 0.50781 0.08203 0.55513 0 1.0859-0.2869 1.375-0.77929l1.875-3.1797c0.37878-0.64174 0.24242-1.458-0.32617-1.9473l-2.2207-1.9082-1.0449 1.1699 2.2168 1.9082-1.875 3.1797-2.7207-0.90234c-0.63768 0.52586-1.374 0.93876-2.1562 1.2187l-0.5625 2.7597h-3.75l-0.56445-2.7597c-0.7743-0.27694-1.5116-0.70732-2.1406-1.2246l-2.7363 0.9082-1.875-3.1797 2.1641-1.8633c-0.14613-0.81137-0.15199-1.6207-0.0058593-2.4336l-2.1582-1.8594 1.875-3.1797 2.7226 0.90234c0.63771-0.52663 1.3721-0.93675 2.1543-1.2168l0.56445-2.7617h1.875v-1.5566zm9.0878 1.2656c-0.19671-0.00478-0.39487 0.010841-0.58984 0.048828-0.51993 0.1013-0.99825 0.35158-1.373 0.71875-0.37488 0.36716-0.62906 0.83447-0.73242 1.3437-0.10345 0.50927-0.05056 1.0378 0.15234 1.5176 0.2029 0.47972 0.5456 0.88924 0.98632 1.1777 0.44081 0.28846 0.96008 0.44336 1.4902 0.44336 0.35297 0.0035 0.70251-0.06263 1.0293-0.19336 0.32678-0.13073 0.62343-0.32387 0.87304-0.56836 0.24961-0.24449 0.44673-0.53535 0.58008-0.85546 0.13344-0.32011 0.20079-0.66206 0.19726-1.0078 0-0.51924-0.15671-1.0272-0.45117-1.459-0.29456-0.43174-0.71337-0.76808-1.2031-0.96679-0.30609-0.12419-0.63113-0.19125-0.95898-0.19922zm-0.0664 0.87304c0.23615-0.00538 0.4702 0.036995 0.68945 0.12305 0.21924 0.086051 0.41888 0.21529 0.58594 0.3789s0.29887 0.35748 0.38672 0.57226c0.08785 0.21479 0.13048 0.44641 0.125 0.67773 0.0055 0.23132-0.03715 0.46099-0.125 0.67578-0.08785 0.21479-0.21966 0.40865-0.38672 0.57226-0.16706 0.16361-0.36669 0.29285-0.58594 0.3789-0.21925 0.08605-0.4533 0.12843-0.68945 0.12305-0.23615 0.0054-0.47216-0.037-0.6914-0.12305-0.21934-0.08605-0.41692-0.21529-0.58398-0.3789-0.16706-0.16361-0.29887-0.35748-0.38672-0.57226-0.08785-0.21478-0.13048-0.44446-0.125-0.67578-0.0055-0.23132 0.03715-0.46294 0.125-0.67773 0.08785-0.21479 0.21966-0.40865 0.38672-0.57226 0.16706-0.16361 0.36464-0.29285 0.58398-0.3789 0.21925-0.086051 0.45526-0.12843 0.6914-0.12305zm-7.1484 4.084c-2.6715 0-4.7636 2.0511-4.7636 4.6679s2.0921 4.6679 4.7636 4.6679c2.6715 0 4.7656-2.0511 4.7656-4.6679h-1.5879c0 1.7736-1.3671 3.1113-3.1777 3.1113-1.8107 0-3.1758-1.3377-3.1758-3.1113s1.3651-3.1113 3.1758-3.1113z" fill="#000" stroke-width=".97129"/></svg>
