<svg width="70" height="70" viewBox="0 0 70 70" fill="none" xmlns="http://www.w3.org/2000/svg">
<path d="M52.5 56.875V61.25H56.875V56.875H52.5Z" fill="white"/>
<path d="M39.375 48.125V52.5H43.75V48.125H39.375Z" fill="white"/>
<path d="M39.375 65.625H48.125V61.25H43.75V56.875H39.375V65.625Z" fill="white"/>
<path d="M56.875 48.125V56.875H61.25V48.125H56.875Z" fill="white"/>
<path d="M61.25 56.875H65.625V65.625H56.875V61.25H61.25V56.875Z" fill="white"/>
<path d="M56.875 43.75V39.375H65.625V48.125H61.25V43.75H56.875Z" fill="white"/>
<path d="M52.5 43.75H48.125V52.5H43.75V56.875H52.5V43.75Z" fill="white"/>
<path d="M39.375 39.375V43.75H48.125V39.375H39.375Z" fill="white"/>
<path d="M21.875 48.125H13.125V56.875H21.875V48.125Z" fill="white"/>
<path d="M30.625 65.625H4.375V39.375H30.625V65.625ZM8.75 61.25H26.25V43.75H8.75V61.25Z" fill="white"/>
<path d="M56.875 13.125H48.125V21.875H56.875V13.125Z" fill="white"/>
<path d="M65.625 30.625H39.375V4.375H65.625V30.625ZM43.75 26.25H61.25V8.75H43.75V26.25Z" fill="white"/>
<path d="M21.875 13.125H13.125V21.875H21.875V13.125Z" fill="white"/>
<path d="M30.625 30.625H4.375V4.375H30.625V30.625ZM8.75 26.25H26.25V8.75H8.75V26.25Z" fill="white"/>
</svg>
