<svg width="32" height="32" version="1.1" viewBox="0 0 32 32" xml:space="preserve" xmlns="http://www.w3.org/2000/svg"><path d="m9.3119 4.8677-0.051519 0.69416c-0.089454 1.1816-0.59925 2.2913-1.4371 3.1291s-1.9476 1.3477-3.1291 1.4371l-0.69416 0.05152 0.10575 1.3856 0.69145-0.05423c1.5123-0.11449 2.9353-0.76604 4.0077-1.8384 1.0724-1.0724 1.7239-2.4954 1.8384-4.0077l0.05423-0.69145zm3.422 0.046096-0.0054 0.69416c-0.01672 2.1137-0.86441 4.1345-2.3591 5.6292-1.4947 1.4947-3.5155 2.3423-5.6292 2.3591l-0.69416 0.0054 0.010843 1.3883 0.69416-0.0054c2.4776-0.01958 4.848-1.0138 6.5999-2.7658 1.752-1.752 2.7462-4.1223 2.7658-6.5999l0.0054-0.69416zm-6.947 0.00543v0.69416c0 0.27641-0.10823 0.54208-0.30369 0.73754-0.19546 0.19546-0.46113 0.30369-0.73754 0.30369h-0.69416v1.3883h0.69416c0.6441 0 1.2637-0.25499 1.7191-0.71043 0.45544-0.45544 0.71043-1.075 0.71043-1.7191v-0.69416zm11.974 1.7354a0.69416 0.69416 0 0 0-0.69416 0.69416 0.69416 0.69416 0 0 0 0.69416 0.69416h8.8505v17.701h-17.077l-3.2864-7.3971a0.69416 0.69416 0 0 0-0.91651-0.3525 0.69416 0.69416 0 0 0-0.3525 0.91651l3.4708 7.8093a0.69423 0.69423 0 0 0 0.6345 0.41216h18.222a0.69423 0.69423 0 0 0 0.69416-0.69416v-19.089a0.69423 0.69423 0 0 0-0.69416-0.69416z" color="#000000"/></svg>
