<svg width="32" height="32" version="1.1" viewBox="0 0 32 32" xml:space="preserve" xmlns="http://www.w3.org/2000/svg"><path d="m15.999 4c-3.5634 9.231e-4 -6.9506 1.5849-9.2308 4.3237v-3.3996h-1.8462v7.3839h7.3846v-1.846h-4.8129c3.0575-4.6994 9.3461-6.0304 14.046-2.9732 2.8803 1.8738 4.6152 5.0755 4.6143 8.5112h1.8462c-0.002743-6.6295-5.3709-12.002-12.001-12zm-11.999 12c0.00185 6.6295 5.37 12.002 12.001 12 3.5634-9.14e-4 6.9506-1.5849 9.2308-4.3237v3.4018h1.8462v-7.3862h-7.3846v1.846h4.8129c-3.0575 4.6993-9.3461 6.0305-14.046 2.9732-2.8803-1.8738-4.6152-5.0755-4.6143-8.5112z"/></svg>
