<svg width="32" height="32" version="1.1" viewBox="0 0 32 32" xml:space="preserve" xmlns="http://www.w3.org/2000/svg"><path d="m16 4c-2.3733 0-4.6935 0.70379-6.6668 2.0224-1.9734 1.3186-3.5115 3.1927-4.4197 5.3854-0.90825 2.1927-1.1459 4.6055-0.68287 6.9333 0.46303 2.3277 1.6059 4.466 3.2841 6.1442 1.6782 1.6782 3.8164 2.8211 6.1442 3.2841 2.3278 0.46303 4.7406 0.22534 6.9333-0.68289 2.1927-0.90823 4.0668-2.4463 5.3854-4.4197 1.3185-1.9734 2.0223-4.2935 2.0223-6.6669 0-3.1826-1.2643-6.2348-3.5147-8.4853-2.2504-2.2504-5.3027-3.5147-8.4853-3.5147zm6.3834 12.767-10.286 5.1429c-0.13072 0.0654-0.27592 0.09626-0.42189 0.08966-0.14597-0.0065-0.28783-0.05032-0.41211-0.12712-0.12429-0.07689-0.22689-0.1842-0.29803-0.31183-0.07123-0.12763-0.10852-0.27129-0.10851-0.41743v-10.286c-9e-6 -0.14612 0.03728-0.28982 0.10851-0.41746 0.07114-0.12763 0.17374-0.23495 0.29803-0.31177 0.12428-0.07683 0.26614-0.12059 0.41211-0.12716 0.14597-0.00656 0.29117 0.02431 0.42189 0.08967l10.286 5.1429c0.14237 0.07114 0.2622 0.1806 0.34586 0.31603 0.08374 0.13543 0.12806 0.29152 0.12806 0.45069 0 0.15917-0.04432 0.31526-0.12806 0.45069-0.08366 0.13543-0.20348 0.24489-0.34586 0.31603z"/></svg>
