<svg width="32" height="32" fill="none" version="1.1" viewBox="0 0 32 32" xml:space="preserve" xmlns="http://www.w3.org/2000/svg"><path d="m16 4c-2.3733 0-4.6934 0.70379-6.6668 2.0224-1.9734 1.3186-3.5115 3.1927-4.4197 5.3854-0.90825 2.1927-1.1459 4.6055-0.68287 6.9333 0.46302 2.3277 1.6059 4.466 3.2841 6.1442 1.6782 1.6782 3.8164 2.8211 6.1442 3.2841 2.3278 0.46303 4.7406 0.22534 6.9333-0.68289 2.1927-0.90823 4.0668-2.4463 5.3854-4.4197 1.3185-1.9734 2.0223-4.2935 2.0223-6.6669 0-3.1826-1.2643-6.2348-3.5147-8.4853-2.2504-2.2504-5.3027-3.5147-8.4853-3.5147zm-1.7143 17.143h-1.7143v-10.286h1.7143zm5.1429 0h-1.7143v-10.286h1.7143z" fill="#000"/></svg>
