<svg width="32" height="32" version="1.1" viewBox="0 0 32 32" xml:space="preserve" xmlns="http://www.w3.org/2000/svg"><path d="m16 4c-2.3734 0-4.6934 0.70379-6.6668 2.0224-1.9734 1.3186-3.5115 3.1927-4.4197 5.3854-0.90825 2.1927-1.1459 4.6055-0.68287 6.9333s1.6059 4.4659 3.2841 6.1442c1.6782 1.6782 3.8164 2.8211 6.1442 3.2841 2.3278 0.463 4.7406 0.2254 6.9333-0.6829 2.1927-0.9082 4.0669-2.4463 5.3854-4.4197 1.3186-1.9734 2.0224-4.2934 2.0224-6.6668 0-3.1826-1.2643-6.2349-3.5147-8.4853-2.2505-2.2504-5.3027-3.5147-8.4853-3.5147zm-1.7143 16.792-4.2857-4.2857 1.3634-1.3635 2.9223 2.9221 6.3514-6.3507 1.3678 1.3594z"/></svg>
