<?xml version="1.0" encoding="UTF-8" standalone="no"?>
<svg
   width="27"
   height="27"
   viewBox="0 0 27 27"
   fill="none"
   id="svg863"
   xmlns="http://www.w3.org/2000/svg">
  <path
     id="path846"
     d="M 17.638672 3.4511719 C 14.646494 3.4511719 12.220703 5.935569 12.220703 8.9707031 L 12.220703 18.193359 C 12.220703 20.371748 10.502382 22.117188 8.3847656 22.117188 C 6.2648993 22.117188 4.5488281 20.371896 4.5488281 18.193359 L 4.5488281 8.5957031 C 5.7071765 8.4730971 6.609375 7.4947248 6.609375 6.3046875 C 6.609375 5.0316875 5.5767344 4 4.3027344 4 C 3.0307344 4 2 5.0316875 2 6.3046875 C 2 7.2763952 2.6010861 8.1062484 3.4511719 8.4453125 L 3.4511719 18.193359 C 3.4511719 20.952818 5.6606368 23.214844 8.3847656 23.214844 C 11.107144 23.214844 13.316406 20.952966 13.316406 18.193359 L 13.316406 8.9707031 C 13.316406 6.5158428 15.250855 4.5488281 17.638672 4.5488281 C 20.027601 4.5488281 21.962891 6.5159759 21.962891 8.9707031 L 21.962891 17.025391 C 20.852601 17.190141 20 18.147631 20 19.304688 C 20 20.577687 21.030734 21.609375 22.302734 21.609375 C 23.576734 21.609375 24.609375 20.577688 24.609375 19.304688 C 24.609375 18.296316 23.961018 17.439484 23.058594 17.126953 L 23.058594 8.9707031 C 23.058594 5.9354359 20.631737 3.4511719 17.638672 3.4511719 z " />
</svg>
