<svg width="32" height="32" version="1.1" viewBox="0 0 32 32" xml:space="preserve" xmlns="http://www.w3.org/2000/svg"><defs><style>.cls-1{fill:none;stroke-linecap:round;stroke-linejoin:round;stroke-width:2px;}</style><style>.cls-1{fill:none;stroke-linecap:round;stroke-linejoin:round;stroke-width:2px;}</style></defs><path d="m13.429 7.8572c-1.41 0-2.5714 1.1614-2.5714 2.5714 0 1.3408 1.05 2.4567 2.3655 2.5631l0.49888 1.87-2.3203 0.34654c-0.43776-0.80128-1.289-1.351-2.2584-1.351-1.41 0-2.5714 1.1614-2.5714 2.5714 0 1.41 1.1614 2.5714 2.5714 2.5714 1.2496 0 2.3025-0.91198 2.5262-2.101l2.4961-0.37333 1.5753 5.9029h-10.883a0.85714 0.85714 0 0 0-0.85714 0.85714 0.85714 0.85714 0 0 0 0.85714 0.85714h12a0.85714 0.85714 0 0 0 0.09542-0.01507 0.85714 0.85714 0 0 0 0.12556-0.0134 0.85714 0.85714 0 0 0 0.04353-0.0134 0.85714 0.85714 0 0 0 0.0067-0.0033 0.85714 0.85714 0 0 0 0.2327-0.11886 0.85714 0.85714 0 0 0 0.0017-0.0017 0.85714 0.85714 0 0 0 0.30971-0.4269 0.85714 0.85714 0 0 0 0-0.0017 0.85714 0.85714 0 0 0 0.04017-0.25446 0.85714 0.85714 0 0 0 0.0017-0.0084 0.85714 0.85714 0 0 0 0-0.01005 0.85714 0.85714 0 0 0-0.0067-0.08538 0.85714 0.85714 0 0 0 0-0.0017 0.85714 0.85714 0 0 0-0.01507-0.09375 0.85714 0.85714 0 0 0-0.0017-0.0084 0.85714 0.85714 0 0 0-0.0051-0.02176l-1.8131-6.7935 10.413-1.5569a3.1543 3.1543 0 0 0-2.7958-1.3108l-8.0608 1.2037-0.55078-2.0608c0.67504-0.46558 1.1217-1.2438 1.1217-2.1177 0-1.41-1.1614-2.5714-2.5714-2.5714zm0 1.7143c0.48354 0 0.85714 0.3736 0.85714 0.85714 0 0.38198-0.23457 0.69548-0.57087 0.81027a0.85714 0.85714 0 0 0-0.07031 0.0067 0.85714 0.85714 0 0 0-0.06027 0.02679c-0.05041 0.0088-0.10224 0.01339-0.15569 0.01339-0.48354 0-0.85714-0.3736-0.85714-0.85714 0-0.48354 0.3736-0.85714 0.85714-0.85714zm-4.2857 6c0.48354 0 0.85714 0.3736 0.85714 0.85714 0 0.48354-0.3736 0.85714-0.85714 0.85714s-0.85714-0.3736-0.85714-0.85714c0-0.48354 0.3736-0.85714 0.85714-0.85714zm11.143 6.8571a0.85714 0.85714 0 0 0-0.85714 0.85714 0.85714 0.85714 0 0 0 0.85714 0.85714h1.7143a0.85714 0.85714 0 0 0 0.85714-0.85714 0.85714 0.85714 0 0 0-0.85714-0.85714zm5.1429 0a0.85714 0.85714 0 0 0-0.85714 0.85714 0.85714 0.85714 0 0 0 0.85714 0.85714h1.7143a0.85714 0.85714 0 0 0 0.85714-0.85714 0.85714 0.85714 0 0 0-0.85714-0.85714z" color="#000000"/></svg>
