<svg width="32" height="32" version="1.1" viewBox="0 0 32 32" xml:space="preserve" xmlns="http://www.w3.org/2000/svg"><path d="m14.264 24.526c2.2772-5.13e-4 4.4888-0.7628 6.2826-2.1655l5.6398 5.6395 1.8141-1.814-5.6398-5.6395c1.4035-1.7938 2.1664-4.0059 2.1669-6.2835 0-5.6588-4.6045-10.263-10.264-10.263-5.6591 1e-7 -10.264 4.6042-10.264 10.263 0 5.6588 4.6045 10.263 10.264 10.263zm0-17.96c4.2453 0 7.6977 3.4522 7.6977 7.6972 0 4.245-3.4524 7.6972-7.6977 7.6972-4.2453 0-7.6977-3.4522-7.6977-7.6972 0-4.245 3.4524-7.6972 7.6977-7.6972z"/></svg>
