<svg width="32" height="32" version="1.1" viewBox="0 0 32 32" xml:space="preserve" xmlns="http://www.w3.org/2000/svg"><path d="m19.508 4.0006c-0.30141-0.00454-0.60599 0.015559-0.90543 0.064291-0.79865 0.12995-1.5542 0.44664-2.2073 0.92419-0.65327 0.47754-1.185 1.1027-1.551 1.8243-0.36607 0.72157-0.55494 1.5187-0.55451 2.3279-0.0014 0.94407 0.25678 1.8722 0.74738 2.6788 0.4906 0.80656 1.1942 1.4611 2.0332 1.8939 0.83911 0.43279 1.7801 0.62496 2.7217 0.55719 0.9417-0.06777 1.846-0.39179 2.6145-0.94026l2.6708 2.6681 1.2135-1.2108-2.6708-2.6708c0.46879-0.65949 0.77553-1.4204 0.89472-2.2207 0.11932-0.80028 0.047258-1.6166-0.20894-2.3841-0.25607-0.76752-0.68848-1.4649-1.2644-2.0332-0.57605-0.5683-1.2785-0.99177-2.0493-1.2376-0.48184-0.15364-0.9817-0.23352-1.4841-0.24109zm-7.2649 0.25449c-1.86 0.4584-3.5131 1.5282-4.6959 3.0351-1.1828 1.5069-1.8262 3.3642-1.8296 5.2799-0.058195 1.2454 0.17815 2.4893 0.69381 3.6244 0.51567 1.1351 1.2954 2.131 2.2716 2.9065 0.86724 0.80112 1.3206 1.254 1.3206 2.0412h1.7144c0-1.5773-0.95391-2.4569-1.8752-3.3083-0.80281-0.6124-1.441-1.4127-1.8618-2.3306-0.42071-0.91791-0.6093-1.9254-0.54915-2.9333 0.0024414-1.5189 0.50777-2.9921 1.4385-4.1923 0.93076-1.2003 2.2344-2.0572 3.7048-2.4377zm7.1042 1.4599c0.25166-0.00624 0.50334 0.01468 0.75274 0.064291 0.6652 0.13231 1.2777 0.45805 1.7573 0.93758 0.47949 0.47953 0.80523 1.0922 0.93758 1.7573 0.13222 0.66513 0.06394 1.3531-0.19555 1.9796-0.2595 0.62655-0.69774 1.1635-1.2617 1.5403-0.56384 0.37676-1.2264 0.57594-1.9046 0.57594-0.90906-1e-3 -1.7816-0.36174-2.4243-1.0046-0.64284-0.64282-1.0036-1.5152-1.0046-2.4243 0-0.67817 0.19918-1.3408 0.57594-1.9046 0.37676-0.56387 0.91379-1.0022 1.5403-1.2617 0.39158-0.1622 0.80746-0.24944 1.2269-0.25984zm0.98312 10.284c-0.44054 0.68852-0.98164 1.3085-1.6046 1.8377-0.91798 0.85049-1.8644 1.7293-1.8644 3.3056h1.7144c0-0.78809 0.45053-1.2418 1.3153-2.0439 0.80921-0.68893 1.4959-1.5113 2.0305-2.4297zm-10.327 6.8577v1.7144h8.5722v-1.7144zm1.7144 3.4289v1.7144h5.1433v-1.7144z"/></svg>
