<svg width="32" height="32" version="1.1" viewBox="0 0 32 32" xml:space="preserve" xmlns="http://www.w3.org/2000/svg"><path d="m20.286 5.7143c-2.0571 0-3.7714 1.4571-4.2 3.4286h-12.086v1.7143h12.086c0.42857 1.9714 2.1429 3.4286 4.2 3.4286s3.7714-1.4571 4.2-3.4286h3.5143v-1.7143h-3.5143c-0.42857-1.9714-2.1429-3.4286-4.2-3.4286zm0 1.7143c1.4571 0 2.5714 1.1143 2.5714 2.5714 0 1.4571-1.1143 2.5714-2.5714 2.5714-1.4571 0-2.5714-1.1143-2.5714-2.5714 0-1.4571 1.1143-2.5714 2.5714-2.5714zm-8.5714 10.286c-2.0571 0-3.7714 1.4571-4.2 3.4286h-3.5143v1.7143h3.5143c0.42857 1.9714 2.1429 3.4286 4.2 3.4286 2.0571 0 3.7714-1.4571 4.2-3.4286h12.086v-1.7143h-12.086c-0.42857-1.9714-2.1429-3.4286-4.2-3.4286zm0 1.7143c1.4571 0 2.5714 1.1143 2.5714 2.5714 0 1.4571-1.1143 2.5714-2.5714 2.5714-1.4571 0-2.5714-1.1143-2.5714-2.5714 0-1.4571 1.1143-2.5714 2.5714-2.5714z"/></svg>
