<svg width="32" height="32" version="1.1" viewBox="0 0 32 32" xml:space="preserve" xmlns="http://www.w3.org/2000/svg"><path d="m13.978 4c-0.81686 0-1.5214 0.57722-1.6808 1.3778l-0.43192 2.1596c-0.39343 0.19286-0.77754 0.40278-1.1384 0.64621l-2.0725-0.70312c-0.18086-0.060857-0.36568-0.090402-0.54911-0.090402-0.59914 0-1.1721 0.31457-1.4849 0.85714l-2.024 3.5056c-0.408 0.70714-0.26133 1.6054 0.35324 2.1445l1.6557 1.4531c-0.014571 0.21514-0.033483 0.43013-0.033483 0.64955 0 0.22029 0.00968 0.44025 0.025112 0.65625l-1.6473 1.4464c-0.61457 0.54-0.76124 1.4365-0.35324 2.1445l2.024 3.5056c0.31286 0.54257 0.88579 0.85714 1.4849 0.85714 0.18343 0 0.36825-0.02955 0.54911-0.0904l2.0859-0.70647c0.35829 0.24171 0.73414 0.45755 1.125 0.64955l0.43192 2.1596c0.15943 0.80143 0.86395 1.3778 1.6808 1.3778h4.0463c0.81771 0 1.5205-0.57636 1.6808-1.3778l0.43192-2.1596c0.39343-0.19286 0.77672-0.40278 1.1367-0.6462l2.0742 0.70312c0.18086 0.06086 0.36654 0.0904 0.54911 0.0904 0.59914 0 1.1721-0.31457 1.4849-0.85714l2.0223-3.5056c0.408-0.708 0.26048-1.6045-0.35324-2.1445l-1.654-1.4548c0.01457-0.21514 0.03181-0.42931 0.03181-0.64788 0-0.22114-8e-3 -0.43939-0.02343-0.65625l1.6456-1.4464c0.61371-0.53914 0.76124-1.4374 0.35324-2.1445l-2.0223-3.5056c-0.31286-0.54257-0.88579-0.85714-1.4849-0.85714-0.18257 0-0.36825 0.029545-0.54911 0.090402l-2.0876 0.70647c-0.35829-0.24171-0.73247-0.45841-1.1233-0.64955l-0.43192-2.1596c-0.16028-0.80057-0.86309-1.3778-1.6808-1.3778zm0 1.7143h4.0463l0.60938 3.0435c0.83571 0.30514 1.6297 0.77598 2.3086 1.346l2.9548-0.99944 2.024 3.5056-2.3371 2.0525c0.15771 0.89314 0.16441 1.7845 0.0067 2.6802l2.3304 2.0474-2.024 3.5056-2.9381-0.99442c-0.68829 0.57943-1.4819 1.0332-2.3253 1.341l-0.60938 3.0435h-4.0463l-0.60937-3.0435c-0.83659-0.30514-1.6314-0.77598-2.3103-1.346l-2.9531 0.99944-2.024-3.5056 2.3371-2.0525c-0.15771-0.894-0.16441-1.7845-0.0066964-2.6802l-2.3304-2.0474 2.024-3.5056 2.9364 0.99442c0.68914-0.57943 1.4827-1.0332 2.327-1.341zm2.0223 5.1429c-2.8834 0-5.1429 2.2594-5.1429 5.1429 0 2.8834 2.2594 5.1429 5.1429 5.1429 2.8834 0 5.1429-2.2594 5.1429-5.1429 0-2.8834-2.2594-5.1429-5.1429-5.1429zm0 1.7143c1.9543 0 3.4286 1.4743 3.4286 3.4286 0 1.9543-1.4743 3.4286-3.4286 3.4286-1.9543 0-3.4286-1.4743-3.4286-3.4286 0-1.9543 1.4743-3.4286 3.4286-3.4286z"/></svg>
