<svg width="32" height="32" version="1.1" viewBox="0 0 32 32" xml:space="preserve" xmlns="http://www.w3.org/2000/svg"><path d="m12 8v12.444h1.7778v-7.1111h3.5556v7.1111h1.7778v-7.1111c0-0.4715-0.18711-0.92389-0.52053-1.2572-0.33336-0.33342-0.78575-0.52053-1.2572-0.52053h-3.5556v-3.5556zm-6.2222 3.5556c-0.47149 0-0.92265 0.18711-1.256 0.52053-0.33339 0.33336-0.52174 0.78575-0.52174 1.2572v1.7778c0 0.47144 0.18835 0.92389 0.52174 1.2572 0.33339 0.33342 0.78455 0.52053 1.256 0.52053h2.6667v1.7778h-4.4444v1.7778h4.4444c0.4715 0 0.92389-0.18711 1.2572-0.52053 0.33342-0.33336 0.52053-0.78575 0.52053-1.2572v-1.7778c0-0.4715-0.18711-0.92389-0.52053-1.2572-0.33336-0.33342-0.78575-0.52053-1.2572-0.52053h-2.6667v-1.7778h4.4444v-1.7778zm15.111 0v12.444h1.7778v-3.5556h3.5556c0.47137-6.19e-4 0.92395-0.18851 1.2572-0.52174 0.33323-0.33329 0.51991-0.78466 0.52053-1.256v-5.3333c-6.18e-4 -0.47131-0.18724-0.92395-0.52053-1.2572-0.33323-0.33323-0.78587-0.51998-1.2572-0.52053zm1.7778 1.7778h3.5556v5.3333h-3.5556z"/></svg>
