<svg width="32" height="32" version="1.1" viewBox="0 0 32 32" xml:space="preserve" xmlns="http://www.w3.org/2000/svg"><path d="m12.571 6.5714c-0.14118 7.314e-4 -0.2799 0.035387-0.40402 0.10268-0.12411 0.067291-0.23039 0.16557-0.30804 0.28348l-1.4665 2.1853h-5.5357c-0.22733 0-0.4464 0.089257-0.60714 0.25-0.16074 0.16074-0.25 0.37982-0.25 0.60714v14.571c0 0.22731 0.089257 0.44422 0.25 0.60491 0.16074 0.1608 0.37982 0.25223 0.60714 0.25223h22.286c0.22731 0 0.44422-0.09143 0.60491-0.25223 0.1608-0.16068 0.25223-0.3776 0.25223-0.60491v-14.571c0-0.22733-0.09143-0.4464-0.25223-0.60714-0.16069-0.16074-0.3776-0.25-0.60491-0.25h-5.5379l-1.4665-2.1853c-0.0776-0.11791-0.18169-0.21619-0.3058-0.28348-0.12411-0.067291-0.26288-0.10195-0.40402-0.10268zm0.46205 1.7143h5.9308l1.4665 2.1853c0.0776 0.11791 0.18392 0.21396 0.30804 0.28125 0.12411 0.06729 0.26288 0.10418 0.40402 0.10491h5.1429v12.857h-20.571v-12.857h5.1429c0.14118-7.31e-4 0.2799-0.03762 0.40402-0.10491 0.12411-0.06729 0.22816-0.16334 0.3058-0.28125zm3.0937 3.4286c-0.37746-0.0094-0.7576 0.0238-1.1317 0.09821-0.9976 0.19843-1.9147 0.68925-2.6339 1.4085-0.71923 0.71924-1.2078 1.6341-1.4062 2.6317-0.19844 0.9976-0.09683 2.0312 0.29241 2.971 0.38926 0.93966 1.0493 1.7429 1.8951 2.308 0.84578 0.56515 1.84 0.86831 2.8571 0.86831 1.364 0 2.6717-0.54224 3.6362-1.5067 0.96446-0.96446 1.5067-2.2722 1.5067-3.6362 0-1.0171-0.30316-2.0114-0.8683-2.8571-0.56514-0.84575-1.3684-1.5058-2.308-1.8951-0.58736-0.24328-1.2102-0.37502-1.8393-0.39062zm-0.12723 1.7143c0.90937 0 1.7811 0.36148 2.4241 1.0045 0.64297 0.64299 1.0045 1.5149 1.0045 2.4241 0 0.67806-0.20133 1.3402-0.57812 1.904-0.37668 0.56389-0.91378 1.004-1.5402 1.2634-0.62651 0.25954-1.3148 0.32642-1.9799 0.1942-0.66503-0.13234-1.275-0.45796-1.7545-0.9375-0.4795-0.47943-0.80745-1.0917-0.93973-1.7567-0.1323-0.66514-0.06307-1.3535 0.19643-1.9799 0.25951-0.62651 0.69732-1.1612 1.2612-1.5379 0.56377-0.37673 1.2282-0.57812 1.9062-0.57812z"/></svg>
