<svg width="32" height="32" version="1.1" viewBox="0 0 32 32" xml:space="preserve" xmlns="http://www.w3.org/2000/svg"><path d="m13.626 5.3394-0.70546 0.99623-4.0445 5.7033-2.2689-2.3833-0.84131-0.88421-1.766 1.6826 0.84131 0.88421 3.289 3.4558a1.2204 1.2204 0 0 0 1.8781-0.13585l4.9025-6.9116 0.70546-0.99384zm1.3037 4.8095-0.0143 2.4405 1.2203 0.0048 10.63 0.05243 1.2203 0.0071 0.0143-2.4405-1.2203-0.00715-10.63-0.052433zm-10.084 7.3025-0.00715 1.7541 5.2624 0.02621 0.0071-1.7541zm17.536 0-0.0095 1.7541 5.2624 0.02621 0.0095-1.7541zm-8.4703 0.0024-0.0095 1.7541 5.2624 0.02621 0.0095-1.7541zm-9.5333 6.6471-0.0143 2.4405 1.2203 0.0072 21.109 0.10487 1.2203 0.0072 0.0143-2.4405-1.2203-0.0072-21.111-0.10483z" color="#000000"/></svg>
