<svg width="32" height="32" version="1.1" viewBox="0 0 32 32" xml:space="preserve" xmlns="http://www.w3.org/2000/svg"><path d="m5.709 3.9999c-0.94451 0-1.709 0.76635-1.709 1.7109v8.5781c0 0.4534 0.17945 0.88838 0.5 1.209l11.998 12c0.6702 0.6695 1.7574 0.6695 2.4277 0l8.5723-8.5703c0.6693-0.6694 0.6693-1.7544 0-2.4238l-12.002-12.002c-0.3206-0.32057-0.75558-0.50195-1.209-0.50195zm8.5762 1.7129 12 12.002-8.5723 8.5723-11.998-11.998-0.0039063-8.5742zm-3.4316 1.7168c-1.8907 0-3.4277 1.5369-3.4277 3.4277 0 1.8909 1.537 3.4277 3.4277 3.4277s3.4277-1.5369 3.4277-3.4277c0-1.8909-1.537-3.4277-3.4277-3.4277zm0 1.7129c0.94537 0 1.7129 0.77332 1.7129 1.7187 0 0.94544-0.76752 1.7109-1.7129 1.7109-0.94537 0-1.7129-0.7694-1.7129-1.7148 0-0.94543 0.76752-1.7148 1.7129-1.7148z"/></svg>
