<svg width="32" height="32" version="1.1" viewBox="0 0 32 32" xml:space="preserve" xmlns="http://www.w3.org/2000/svg"><path d="m14.981 4c-0.058 0-0.115 0.00462-0.175 0.014769-6.348 1.044-11.134 6.2953-10.788 12.525 0.343 6.1744 5.918 11.231 12.612 11.458 0.16404 0.0046 0.32904 0 0.492 0 4.424 0 8.331-2.028 10.702-5.1287 0.44796-0.58704-9e-3 -1.3818-0.783-1.4446-2.955-0.23904-5.836-1.3948-8.097-3.4818-3.7129-3.4255-4.7299-8.3953-3.0539-12.67 0.24197-0.61845-0.236-1.2729-0.909-1.2729zm-1.4784 2.2283c-1.165 4.6421 0.32899 9.6073 4.0279 13.022 2.072 1.9135 4.712 3.2206 7.565 3.7726-2.076 1.981-4.952 3.1292-7.974 3.1292-0.13896 0-0.279 0.0037-0.41796 0-5.693-0.192-10.396-4.4603-10.687-9.7069-0.257-4.6136 2.884-8.7572 7.4859-10.217z" clip-rule="evenodd" fill-rule="evenodd"/></svg>
