<svg width="32" height="32" version="1.1" viewBox="0 0 32 32" xml:space="preserve" xmlns="http://www.w3.org/2000/svg"><path d="m27.298 4.0339c-0.06195 0.00408-0.12418 0.016028-0.18307 0.037496l-14.491 5.2715c-0.12535 0.045714-0.23361 0.12732-0.311 0.23601-0.07739 0.10868-0.12134 0.23935-0.12352 0.37276-0.0022 0.13349 0.0363 0.26382 0.11028 0.37496 0.07398 0.11115 0.18038 0.1975 0.30438 0.24704l6.3259 2.5299 2.5299 6.3237c0.04879 0.1223 0.13353 0.22832 0.24262 0.30218 0.10909 0.07386 0.23667 0.11249 0.36835 0.11249h0.01107c0.13337-0.0023 0.26191-0.04384 0.37055-0.12131 0.10864-0.07736 0.19259-0.18565 0.23821-0.311l5.2693-14.493c0.04291-0.11784 0.05136-0.24591 0.02426-0.36835-0.02722-0.12245-0.0878-0.23335-0.17645-0.32203-0.08865-0.088673-0.20182-0.15154-0.32423-0.17866-0.06121-0.013557-0.12332-0.017312-0.18528-0.013234zm-15.259 9.5153-8.0397 8.0419 1.3962 1.3962 5.7039-5.7039-2.1196 9.2881 1.3962 1.3962 8.0419-8.0397-1.3874-1.3852-5.7259 5.7259 2.1307-9.3212z"/></svg>
