<svg width="32" height="32" version="1.1" viewBox="0 0 32 32" xml:space="preserve" xmlns="http://www.w3.org/2000/svg"><g transform="translate(4.6781 -2.4161)"><path d="m1.9723 8.5979v6.2344h6.2322v-1.5597h-3.8352c1.7595-1.9667 4.2602-3.1172 6.9524-3.1172 5.1561 0 9.3515 4.1954 9.3515 9.3515 0 5.1561-4.1955 9.3494-9.3515 9.3494-5.1561 0-9.3494-4.1934-9.3494-9.3494h-1.5597c0 6.0156 4.8935 10.909 10.909 10.909 6.0156 0 10.909-4.8935 10.909-10.909 0-6.0156-4.8935-10.909-10.909-10.909-2.9836 0-5.7605 1.2131-7.7919 3.2983v-3.2983zm8.5696 3.8949v7.3338l4.353 4.3551 1.1016-1.1016-3.897-3.8991v-6.6882z"/><circle cx="17.868" cy="10.78" r="4.3636" fill="#e00c0c"/></g></svg>
