<svg width="32" height="32" viewBox="0 0 32 32" fill="none" xmlns="http://www.w3.org/2000/svg">
<path d="M16.1387 28C15.4678 28 14.8937 27.7613 14.4163 27.284C13.939 26.8066 13.6999 26.2321 13.6991 25.5604C13.6991 25.1334 13.8109 24.737 14.0345 24.371C14.2582 24.0051 14.553 23.7103 14.9189 23.4867V20.6811H11.2594C10.5885 20.6811 10.0144 20.4424 9.53705 19.965C9.0597 19.4877 8.82061 18.9131 8.8198 18.2414V15.4358C8.45385 15.2529 8.15906 14.9784 7.93543 14.6125C7.71179 14.2465 7.59998 13.8297 7.59998 13.3621C7.59998 12.6912 7.83906 12.1167 8.31723 11.6385C8.7954 11.1604 9.36953 10.9217 10.0396 10.9225C10.7097 10.9233 11.2842 11.1624 11.7632 11.6397C12.2422 12.1171 12.4809 12.6912 12.4793 13.3621C12.4793 13.8297 12.3674 14.2363 12.1438 14.582C11.9202 14.9276 11.6254 15.2122 11.2594 15.4358V18.2414H14.9189V8.48285H13.6991C13.4551 8.48285 13.2721 8.37103 13.1502 8.14739C13.0282 7.92376 13.0485 7.71029 13.2112 7.50699L15.6508 4.24396C15.7728 4.08132 15.9354 4 16.1387 4C16.342 4 16.5047 4.08132 16.6267 4.24396L19.0663 7.50699C19.2289 7.71029 19.2493 7.92376 19.1273 8.14739C19.0053 8.37103 18.8223 8.48285 18.5784 8.48285H17.3586V18.2414H21.018V15.8018H20.4081C20.2455 15.8018 20.1032 15.7408 19.9812 15.6188C19.8592 15.4968 19.7982 15.3545 19.7982 15.1919V11.5324C19.7982 11.3698 19.8592 11.2274 19.9812 11.1055C20.1032 10.9835 20.2455 10.9225 20.4081 10.9225H24.0676C24.2302 10.9225 24.3725 10.9835 24.4945 11.1055C24.6165 11.2274 24.6775 11.3698 24.6775 11.5324V15.1919C24.6775 15.3545 24.6165 15.4968 24.4945 15.6188C24.3725 15.7408 24.2302 15.8018 24.0676 15.8018H23.4577V18.2414C23.4577 18.9123 23.219 19.4869 22.7416 19.965C22.2643 20.4432 21.6897 20.6819 21.018 20.6811H17.3586V23.4867C17.7448 23.69 18.0449 23.9746 18.2588 24.3405C18.4727 24.7065 18.5792 25.1131 18.5784 25.5604C18.5784 26.2313 18.3397 26.8058 17.8623 27.284C17.385 27.7621 16.8104 28.0008 16.1387 28Z" fill="black"/>
</svg>
