<svg width="32" height="32" version="1.1" viewBox="0 0 32 32" xml:space="preserve" xmlns="http://www.w3.org/2000/svg"><path d="m16 4c-6.6274 0-12 5.3726-12 12 0 6.6275 5.3726 12 12 12 6.6275 0 12-5.3725 12-12 0-6.6274-5.3725-12-12-12zm0.0024 1.7133c5.6717 0 10.287 4.615 10.287 10.287 0 3.036-1.3306 5.7605-3.4289 7.6453v-0.52266c-0.03348-2.5165-1.9494-4.5516-4.2867-4.5516h-5.1422c-2.3374 0-4.2439 2.035-4.2773 4.5516-8.639e-4 0.0086-0.00937 0.01865-0.00937 0.02813v0.50156c-2.1035-1.884-3.429-4.612-3.429-7.6523 0-5.6717 4.615-10.287 10.287-10.287zm0 2.5711c-2.3674 0-4.2867 1.9202-4.2867 4.2867 0 2.3666 1.9193 4.2867 4.2867 4.2867 2.3675 0 4.2867-1.9202 4.2867-4.2867 0-2.3666-1.9192-4.2867-4.2867-4.2867zm-0.0024 1.7156c1.4178 0 2.5711 1.1534 2.5711 2.5711 0 1.4177-1.1533 2.5711-2.5711 2.5711-1.4177 0-2.5734-1.1534-2.5734-2.5711 0-1.4177 1.1557-2.5711 2.5734-2.5711zm-2.5688 10.284h5.1422c1.4126 0 2.5711 1.3052 2.5711 2.9062v1.7039c-1.5155 0.87864-3.2677 1.3898-5.1422 1.3898-1.8712 0-3.6308-0.50916-5.1445-1.3852v-1.7086c0-1.601 1.1609-2.9062 2.5734-2.9062z"/></svg>
