<svg width="32" height="32" version="1.1" viewBox="0 0 32 32" xml:space="preserve" xmlns="http://www.w3.org/2000/svg"><path d="m16.001 6.8925c-5.5957 0-10.352 3.6829-11.949 8.7673a1.1385 1.1385 0 0 0 0 0.68039c1.5966 5.0844 6.3534 8.7673 11.949 8.7673 5.5967 0 10.35-3.6831 11.947-8.7673a1.1385 1.1385 0 0 0 0-0.68039c-1.5966-5.0842-6.3502-8.7673-11.947-8.7673zm0 2.2769c4.463 0 8.1962 2.8672 9.6078 6.8306-1.4115 3.9634-5.1447 6.8306-9.6078 6.8306-4.4618 0-8.1984-2.8673-9.61-6.8306 1.4116-3.9633 5.1482-6.8306 9.61-6.8306zm-0.0023 3.4153c-0.90585 0-1.7742 0.36008-2.4147 1.0006-0.64044 0.6405-1.0005 1.509-1.0005 2.4147s0.36008 1.7742 1.0006 2.4147 1.5089 1.0006 2.4147 1.0006c0.90574 0 1.7765-0.36009 2.4169-1.0006 0.64048-0.64048 0.99835-1.509 0.99835-2.4147s-0.35787-1.7742-0.99835-2.4147c-0.64048-0.64049-1.5112-1.0006-2.4169-1.0006z" fill="#0b0b0b"/></svg>
