<svg width="32" height="32" version="1.1" viewBox="0 0 32 32" xml:space="preserve" xmlns="http://www.w3.org/2000/svg"><path d="m26.068 4.8001-21.27 21.27 1.13 1.13 4.08-4.08c1.856 1.0577 3.9276 1.68 5.9899 1.68 5.0463 0 10.184-3.664 11.952-8.5249 0.06554-0.17676 0.06554-0.37073 0-0.54749-0.86169-2.3688-2.5326-4.4389-4.595-5.9524l3.8425-3.845zm-10.07 2.4c-5.0463 0-10.182 3.6659-11.95 8.5274-0.064793 0.176-0.064793 0.3681 0 0.54499 0.6808 1.8711 1.8634 3.564 3.345 4.9399l1.14-1.1425c-1.2536-1.1488-2.2687-2.5436-2.8775-4.07 1.62-4.0591 6.1025-7.1999 10.342-7.1999 1.0776 0 2.1717 0.20619 3.23 0.57499l1.245-1.245c-1.4383-0.59359-2.9606-0.92999-4.475-0.92999zm6.2024 3.7275c1.8288 1.2888 3.3402 3.0629 4.1425 5.0724-1.6207 4.0592-6.1049 7.1999-10.345 7.1999-1.6256 0-3.2851-0.46403-4.8075-1.2625l2.0325-2.0325c0.78395 0.56076 1.7397 0.89499 2.775 0.89499 2.6471 0 4.8-2.1528 4.8-4.8 0-1.0351-0.3316-1.9909-0.89249-2.775zm-6.2024 0.2725c-2.6464 0-4.8 2.1527-4.8 4.8 0 0.4279 0.0619 0.8405 0.1675 1.235l1.455-1.455c0.10959-1.5872 1.3728-2.8479 2.96-2.9575l1.455-1.455c-0.39526-0.1056-0.80959-0.1675-1.2375-0.1675zm2.7525 3.18c0.28403 0.47359 0.4475 1.0265 0.4475 1.62 0 1.7648-1.4353 3.2-3.2 3.2-0.59366 0-1.1464-0.1661-1.62-0.45z" fill="#0b0b0b"/></svg>
