<svg width="32" height="32" version="1.1" viewBox="0 0 32 32" xml:space="preserve" xmlns="http://www.w3.org/2000/svg"><path d="m17.237 4.414c-0.21185 0.00114-0.42379 0.084249-0.58434 0.24686l-6.3074 6.3746h-5.5168c-0.4568 0-0.82807 0.36971-0.82807 0.82651v8.276c0 0.45685 0.37128 0.82651 0.82807 0.82651h5.5168l6.3074 6.3746c0.15559 0.15719 0.36808 0.24686 0.58902 0.24686 0.45685 0 0.82807-0.37122 0.82807-0.82807v-21.516c0-0.22095-0.08967-0.43345-0.24686-0.58902-0.16223-0.16054-0.37405-0.24018-0.5859-0.23905zm-0.82338 2.8404v17.491l-5.1356-5.1903c-0.15557-0.15719-0.43525-0.2453-0.65621-0.2453h-4.9653v-6.6199h4.9653c0.22095 0 0.50063-0.08811 0.65621-0.2453zm4.481 4.6075-1.1702 1.1718 2.967 2.9654-2.967 2.9686 1.1702 1.1702 2.967-2.9686 2.9686 2.9686 1.1702-1.1702-2.9686-2.9686 2.9686-2.9654-1.1702-1.1718-2.9686 2.9686z" fill="#0b0b0b"/></svg>
