<svg width="32" height="32" version="1.1" viewBox="0 0 32 32" xml:space="preserve" xmlns="http://www.w3.org/2000/svg"><path d="m17.714 4.4142c-0.21865 0-0.43611 0.0801-0.60332 0.2407l-6.5334 6.374h-5.7191c-0.4733 0-0.85809 0.37141-0.85809 0.8284v8.2777c0 0.45703 0.38479 0.8284 0.85809 0.8284h5.7191l6.5334 6.374c0.16037 0.15813 0.37906 0.24772 0.60801 0.24852 0.47327 0 0.85809-0.36988 0.85809-0.82683v-21.524c-0.0034-0.21855-0.09672-0.42672-0.2579-0.57988-0.16721-0.1606-0.38623-0.2407-0.60488-0.2407zm-0.85184 2.8322v17.501l-5.3252-5.1908c-0.16034-0.15813-0.38064-0.24772-0.60957-0.24852h-5.2126v-6.6225h5.2126c0.22894-7.99e-4 0.44923-0.09047 0.60957-0.24852zm8.7107 2.1929-1.3114 1.0691c2.7883 3.1898 2.6822 7.8832-0.24852 10.952l1.2598 1.1598c3.5189-3.6823 3.6475-9.3184 0.3001-13.146zm-3.4808 2.1773-1.3036 1.0691c1.6729 1.9148 1.6065 4.733-0.15474 6.5725l1.2613 1.1254c2.3468-2.4562 2.4313-6.2155 0.19694-8.7669z"/></svg>
