<svg width="32" height="32" version="1.1" viewBox="0 0 32 32" xml:space="preserve" xmlns="http://www.w3.org/2000/svg"><path d="m16 4c-0.15691 0-0.31013 0.042894-0.44418 0.12731-0.13405 0.084419-0.24461 0.20521-0.31695 0.34954l-11.142 22.222c-0.067945 0.13547-0.10084 0.28716-0.095978 0.43982 0.00486 0.15265 0.048578 0.30238 0.125 0.43287 0.076419 0.13061 0.18416 0.2376 0.31249 0.3125 0.12833 0.0749 0.27236 0.11574 0.41963 0.11574h22.285c0.14731 0 0.29129-0.04084 0.41962-0.11574 0.12834-0.0749 0.23604-0.18189 0.31249-0.3125 0.07645-0.13049 0.12008-0.28022 0.125-0.43287 0.0049-0.15265-0.02798-0.30435-0.09597-0.43982l-11.142-22.222c-0.072339-0.14433-0.1829-0.26512-0.31695-0.34954-0.13405-0.084421-0.28727-0.12731-0.44418-0.12731zm-0.0023 2.8171h0.0045l9.7273 19.4-0.0023 0.0046h-19.454l-0.00223-0.0046zm-0.85488 5.1829v8h1.7142v-8zm0.85711 9.7778c-0.25428 0-0.50284 0.07804-0.71426 0.22454-0.21142 0.14649-0.37588 0.35355-0.4732 0.59722-0.09731 0.24356-0.12327 0.51211-0.07366 0.77083 0.04961 0.25861 0.1729 0.49644 0.35266 0.68287s0.4091 0.3143 0.65846 0.36574c0.24948 0.05144 0.5062 0.02447 0.74104-0.07639 0.23496-0.10098 0.43685-0.27148 0.5781-0.49074 0.14125-0.21926 0.21651-0.47704 0.21651-0.74074 0-0.35366-0.13608-0.69437-0.37722-0.94444-0.24113-0.25007-0.56743-0.38889-0.90845-0.38889z"/></svg>
