<svg width="32" height="32" version="1.1" viewBox="0 0 32 32" xml:space="preserve" xmlns="http://www.w3.org/2000/svg"><path d="m26.788 4-22.788 22.788 1.2121 1.2121 9.1557-9.1557c0.51343-0.17314 1.0605-0.27288 1.6323-0.27288 1.362 0 2.5975 0.53548 3.519 1.4029l1.2121-1.2104c-1.1554-1.1049-2.694-1.8052-4.3929-1.8901l2.9029-2.9029c1.4811 0.49286 2.8169 1.3052 3.9141 2.3689l1.2104-1.2121c-1.0851-1.0577-2.3724-1.9006-3.7935-2.4877l2.5681-2.5698c1.3414 0.702 2.5747 1.585 3.6479 2.6367l1.2121-1.2137v-0.0017c-1.068-1.0482-2.2795-1.9471-3.591-2.6886l3.591-3.591zm-10.788 2.5714c-4.6697 0-8.9049 1.8808-12 4.9202v0.02009l1.2037 1.2037c2.784-2.736 6.5938-4.4297 10.796-4.4297 1.2523 0 2.4629 0.16748 3.6278 0.45034l1.4079-1.4079c-1.5917-0.492-3.2837-0.7567-5.0357-0.7567zm0 5.1429c-3.2563 0-6.2113 1.3082-8.3756 3.4219l1.2121 1.2121c1.5986-1.5557 3.6986-2.5947 6.0318-2.8527l1.7511-1.7511c-0.20657-0.01029-0.41028-0.03014-0.61942-0.03014zm0 10.286c-0.94628 0-1.7143 0.768-1.7143 1.7143s0.768 1.7143 1.7143 1.7143 1.7143-0.768 1.7143-1.7143-0.768-1.7143-1.7143-1.7143z"/></svg>
