<svg width="32" height="32" version="1.1" viewBox="0 0 32 32" xml:space="preserve" xmlns="http://www.w3.org/2000/svg"><g><path d="m17.714 23.714c0 0.94629-0.768 1.7143-1.7143 1.7143-0.94628 0-1.7143-0.768-1.7143-1.7143 0-0.94629 0.768-1.7143 1.7143-1.7143 0.94629 0 1.7143 0.768 1.7143 1.7143"/><path d="m11.264 18.771 1.2111 1.2111c0.92228-0.87171 2.1634-1.4109 3.5289-1.4109 1.362 0 2.5989 0.53571 3.5203 1.4031l1.2111-1.212c-1.2326-1.1777-2.8963-1.9054-4.7314-1.9054-1.8386 0-3.5074 0.73114-4.74 1.914"/><path d="m7.6296 15.136 1.212 1.212c1.854-1.8034 4.3791-2.9203 7.1631-2.9203 2.7806 0 5.3014 1.1134 7.1546 2.9117l1.2111-1.212c-2.1626-2.1086-5.1129-3.414-8.3657-3.414-3.2563 0-6.2109 1.3089-8.3751 3.4226"/><path d="m28 11.492c-3.0951-3.0394-7.3303-4.9209-12-4.9209-4.6697 0-8.9049 1.8814-12 4.9209v0.01886l1.2034 1.2043c2.784-2.736 6.594-4.4297 10.797-4.4297 4.1983 0 8.004 1.6903 10.788 4.4211l1.212-1.2129z"/></g></svg>
