<svg width="32" height="32" version="1.1" viewBox="0 0 32 32" xmlns="http://www.w3.org/2000/svg">
 <g transform="matrix(1.3333 0 0 1.3333 -33.333 -1122.7)">
  <path transform="translate(28,845)" d="m16.149 13.424c0.75343 0.75351 0.75343 1.9744 0 2.7273-0.75278 0.75351-1.9742 0.75351-2.727 0l-4.9866-4.9865c-0.61714 0.26231-1.2954 0.40826-2.007 0.40826-2.8356 0-5.1429-2.3075-5.1429-5.1434 0-0.45969 0.064286-0.90395 0.17936-1.3276l3.1455 3.1458c0.48536 0.48605 1.1314 0.75351 1.818 0.75351s1.3326-0.26746 1.818-0.75351c0.48536-0.48541 0.75343-1.1315 0.75343-1.8182 0-0.68664-0.26807-1.3328-0.75343-1.8182l-3.1455-3.1458c0.42364-0.11508 0.86786-0.17938 1.3275-0.17938 2.8356 0 5.1429 2.3075 5.1429 5.1434 0 0.71172-0.14593 1.39-0.40822 2.0072l4.986 4.9872zm1.8508 1.3636c0-0.85895-0.33429-1.6658-0.94114-2.2727 0 0-4.4267-4.4272-4.4267-4.4272 0.14271-0.52977 0.225-1.084 0.225-1.6581 0-3.5451-2.8839-6.4293-6.4286-6.4293-1.3082 0-2.5251 0.39476-3.5415 1.0692l4.4505 4.451c0.50207 0.50213 0.50207 1.3161 0 1.8182-0.50207 0.50213-1.3159 0.50213-1.818 0l-4.4505-4.451c-0.67436 1.0165-1.0691 2.2335-1.0691 3.5419 0 3.5451 2.8839 6.4293 6.4286 6.4293 0.57407 0 1.1282-0.0823 1.6579-0.22502 0 0 4.4261 4.4265 4.4261 4.4265 0.62679 0.62685 1.4496 0.93996 2.2731 0.93996 0.82286 0 1.6464-0.3131 2.2731-0.93996 0.60686-0.60692 0.94114-1.4138 0.94114-2.2727z" />
 </g>
</svg>
