<svg width="28" height="28" viewBox="0 0 28 28" fill="none" xmlns="http://www.w3.org/2000/svg">
<path fill-rule="evenodd" clip-rule="evenodd" d="M14 2C10.691 2 8 4.75 8 8.129C8 9.606 8.529 11.037 9.486 12.156L14 18.523L18.63 12.031C19.515 10.937 20 9.551 20 8.129C20 4.75 17.309 2 14 2V2ZM14 21.977L7.91 13.384C6.699 11.974 6 10.083 6 8.129C6 3.647 9.589 0 14 0C18.411 0 22 3.647 22 8.129C22 9.997 21.364 11.819 20.205 13.264L14 21.977Z" fill="white"/>
<path fill-rule="evenodd" clip-rule="evenodd" d="M26 9.97656H24V11.9766H26V25.9766H2V11.9766H4V9.97656H2C0.897 9.97656 0 10.8736 0 11.9766V25.9766C0 27.0796 0.897 27.9766 2 27.9766H26C27.103 27.9766 28 27.0796 28 25.9766V11.9766C28 10.8736 27.103 9.97656 26 9.97656" fill="white"/>
<path fill-rule="evenodd" clip-rule="evenodd" d="M12.5714 12L10 9.40453L10.606 8.80151L12.5714 10.7935L18.394 5L19 5.60302L12.5714 12Z" fill="white"/>
</svg>
