<svg width="41" height="41" viewBox="0 0 41 41" fill="none" xmlns="http://www.w3.org/2000/svg">
<path d="M17.22 13.6667C18.04 8.815 22.2425 5.125 27.3333 5.125C32.9879 5.125 37.5833 9.72042 37.5833 15.375C37.5833 20.4488 33.8933 24.6683 29.0416 25.4883V35.875H25.625V25.4713C25.625 23.7971 26.8379 22.3962 28.4779 22.1058C31.7066 21.5762 34.1666 18.7575 34.1666 15.375C34.1666 11.5996 31.1087 8.54167 27.3333 8.54167C23.9508 8.54167 21.132 11.0017 20.6025 14.2304C20.312 15.8704 18.9112 17.0833 17.237 17.0833H9.95954L12.6758 19.7996L10.25 22.2083L3.41663 15.375L10.25 8.54167L12.6587 10.9504L9.95954 13.6667H17.22Z" fill="white"/>
</svg>
