<svg width="49" height="48" viewBox="0 0 49 48" fill="none" xmlns="http://www.w3.org/2000/svg">
<path fill-rule="evenodd" clip-rule="evenodd" d="M24.4368 1L19.0283 5.12821L20.1208 5.9621L23.6642 3.25754V15.1538H25.2095V3.25754L28.7528 5.9621L29.8453 5.12821L24.4368 1Z" fill="white" stroke="white"/>
<path fill-rule="evenodd" clip-rule="evenodd" d="M48.013 23.2289L43.6635 18.0333L42.8433 19.1273L45.6928 22.5312L33.5748 22.8486L33.6161 24.3646L45.734 24.0471L43.0736 27.5953L43.9522 28.6449L48.013 23.2289Z" fill="white" stroke="white"/>
<path fill-rule="evenodd" clip-rule="evenodd" d="M1.14739 23.5986L5.11564 18.1873L5.97677 19.2377L3.377 22.7829L15.2371 22.4786L15.2792 23.9945L3.41911 24.2988L6.212 27.7056L5.41042 28.7987L1.14739 23.5986Z" fill="white" stroke="white"/>
<path d="M34.2539 25C34.2539 30.2928 29.8765 34.6154 24.4369 34.6154C18.9973 34.6154 14.6199 30.2928 14.6199 25C14.6199 19.7073 18.9973 15.3846 24.4369 15.3846C29.8765 15.3846 34.2539 19.7073 34.2539 25Z" stroke="white" stroke-width="2"/>
<line x1="23.634" y1="33.8462" x2="23.634" y2="48" stroke="white" stroke-width="2"/>
</svg>
