<svg width="41" height="41" viewBox="0 0 41 41" fill="none" xmlns="http://www.w3.org/2000/svg">
<path d="M23.78 13.6667C22.96 8.815 18.7404 5.125 13.6666 5.125C8.01204 5.125 3.41663 9.72042 3.41663 15.375C3.41663 20.4488 7.10663 24.6683 11.9583 25.4883V35.875H15.375V25.4713C15.375 23.7971 14.162 22.3962 12.522 22.1058C9.29329 21.5762 6.83329 18.7575 6.83329 15.375C6.83329 11.5996 9.89121 8.54167 13.6666 8.54167C17.0491 8.54167 19.8679 11.0017 20.3975 14.2304C20.6879 15.8704 22.0887 17.0833 23.7629 17.0833H31.0404L28.3241 19.7996L30.75 22.2083L37.5833 15.375L30.75 8.54167L28.3412 10.9504L31.0404 13.6667H23.78Z" fill="white"/>
</svg>
