<svg width="41" height="41" viewBox="0 0 41 41" fill="none" xmlns="http://www.w3.org/2000/svg">
<circle cx="20.5" cy="20.5" r="19.5" stroke="black" stroke-width="2"/>
<path d="M7.91992 21.877H6.51953V25H4.76172V16.4688H7.93164C8.93945 16.4688 9.7168 16.6934 10.2637 17.1426C10.8105 17.5918 11.084 18.2266 11.084 19.0469C11.084 19.6289 10.957 20.1152 10.7031 20.5059C10.4531 20.8926 10.0723 21.2012 9.56055 21.4316L11.4062 24.918V25H9.51953L7.91992 21.877ZM6.51953 20.4531H7.9375C8.37891 20.4531 8.7207 20.3418 8.96289 20.1191C9.20508 19.8926 9.32617 19.582 9.32617 19.1875C9.32617 18.7852 9.21094 18.4688 8.98047 18.2383C8.75391 18.0078 8.4043 17.8926 7.93164 17.8926H6.51953V20.4531ZM17.2422 23.2422H14.1602L13.5742 25H11.7051L14.8809 16.4688H16.5098L19.7031 25H17.834L17.2422 23.2422ZM14.6348 21.8184H16.7676L15.6953 18.625L14.6348 21.8184ZM22.7969 16.4688L24.9883 22.6562L27.168 16.4688H29.4766V25H27.7129V22.668L27.8887 18.6426L25.5859 25H24.3789L22.082 18.6484L22.2578 22.668V25H20.5V16.4688H22.7969ZM32.7695 21.9941V25H31.0117V16.4688H34.3398C34.9805 16.4688 35.543 16.5859 36.0273 16.8203C36.5156 17.0547 36.8906 17.3887 37.1523 17.8223C37.4141 18.252 37.5449 18.7422 37.5449 19.293C37.5449 20.1289 37.2578 20.7891 36.6836 21.2734C36.1133 21.7539 35.3223 21.9941 34.3105 21.9941H32.7695ZM32.7695 20.5703H34.3398C34.8047 20.5703 35.1582 20.4609 35.4004 20.2422C35.6465 20.0234 35.7695 19.7109 35.7695 19.3047C35.7695 18.8867 35.6465 18.5488 35.4004 18.291C35.1543 18.0332 34.8145 17.9004 34.3809 17.8926H32.7695V20.5703Z" fill="black"/>
</svg>
