<svg width="49" height="44" viewBox="0 0 49 44" fill="none" xmlns="http://www.w3.org/2000/svg">
<path fill-rule="evenodd" clip-rule="evenodd" d="M24.3768 13.2858L29.0768 9.70243L28.1274 8.9786L25.0482 11.3262V1.00005H23.7054V11.3262L20.6262 8.9786L19.6768 9.70243L24.3768 13.2858Z" fill="black" stroke="black"/>
<path fill-rule="evenodd" clip-rule="evenodd" d="M35.4667 22.6623L39.1222 27.2694L39.8607 26.3388L37.4657 23.3204H48V22.0041H37.4657L39.8607 18.9858L39.1222 18.0551L35.4667 22.6623Z" fill="black" stroke="black"/>
<path fill-rule="evenodd" clip-rule="evenodd" d="M13.2665 22.659L9.68876 27.2661L8.96606 26.3355L11.31 23.3171H1.00002V22.0008H11.31L8.96606 18.9825L9.68876 18.0518L13.2665 22.659Z" fill="black" stroke="black"/>
<path d="M32.7768 24.0357C32.7768 28.5536 29.0349 32.25 24.3768 32.25C19.7187 32.25 15.9768 28.5536 15.9768 24.0357C15.9768 19.5178 19.7187 15.8214 24.3768 15.8214C29.0349 15.8214 32.7768 19.5178 32.7768 24.0357Z" stroke="black" stroke-width="2"/>
<line x1="23.8101" y1="31.7142" x2="23.8101" y2="43.9999" stroke="black" stroke-width="2"/>
</svg>
